<svg width="20" height="20" viewBox="0 0 20 20" fill="none" xmlns="http://www.w3.org/2000/svg">
<path d="M2 9L3.5 11H16L18 9V7L15 5L14 6V4L11 2H8L5.5 5H4L2 7V9Z" fill="white"/>
<path d="M18.75 8.125C18.75 6.05688 17.0681 4.375 15 4.375H14.6319C13.8881 2.545 12.0938 1.25 10 1.25C7.90625 1.25 6.11188 2.545 5.36812 4.375H5C2.93187 4.375 1.25 6.05688 1.25 8.125C1.25077 8.78242 1.42441 9.42809 1.75351 9.99721C2.08261 10.5663 2.55559 11.0389 3.125 11.3675V13.125C3.125 13.2908 3.19085 13.4497 3.30806 13.5669C3.42527 13.6842 3.58424 13.75 3.75 13.75H4.70125C4.7675 13.9356 4.84312 14.1181 4.9275 14.2956L4.255 14.9688C4.13783 15.086 4.07201 15.2449 4.07201 15.4106C4.07201 15.5764 4.13783 15.7353 4.255 15.8525L6.0225 17.62C6.1397 17.7372 6.29865 17.803 6.46438 17.803C6.6301 17.803 6.78905 17.7372 6.90625 17.62L7.57937 16.9475C7.75688 17.0319 7.93875 17.1075 8.125 17.1737V18.125C8.125 18.2908 8.19085 18.4497 8.30806 18.5669C8.42527 18.6842 8.58424 18.75 8.75 18.75H11.25C11.4158 18.75 11.5747 18.6842 11.6919 18.5669C11.8092 18.4497 11.875 18.2908 11.875 18.125V17.1737C12.0612 17.1075 12.2431 17.0319 12.4206 16.9475L13.0938 17.62C13.211 17.7372 13.3699 17.803 13.5356 17.803C13.7014 17.803 13.8603 17.7372 13.9775 17.62L15.745 15.8525C15.8622 15.7353 15.928 15.5764 15.928 15.4106C15.928 15.2449 15.8622 15.086 15.745 14.9688L15.0719 14.2956C15.157 14.1179 15.2326 13.9358 15.2981 13.75H16.25C16.4158 13.75 16.5747 13.6842 16.6919 13.5669C16.8092 13.4497 16.875 13.2908 16.875 13.125V11.3675C17.9937 10.7175 18.75 9.50937 18.75 8.125ZM15.625 12.5H14.8356C14.6971 12.5 14.5625 12.5461 14.453 12.6309C14.3435 12.7158 14.2653 12.8346 14.2306 12.9688C14.1291 13.3638 13.9724 13.7425 13.765 14.0938C13.6947 14.2132 13.666 14.3525 13.6836 14.49C13.7011 14.6275 13.7638 14.7552 13.8619 14.8531L14.4194 15.4106L13.5356 16.2944L12.9781 15.7369C12.8801 15.6388 12.7522 15.5761 12.6146 15.5587C12.477 15.5412 12.3375 15.5701 12.2181 15.6406C11.8687 15.8469 11.4906 16.0031 11.0938 16.1063C10.9596 16.1409 10.8408 16.2191 10.7559 16.3286C10.6711 16.4381 10.625 16.5727 10.625 16.7113V17.5H9.375V16.7113C9.37497 16.5727 9.32891 16.4381 9.24406 16.3286C9.15921 16.2191 9.04038 16.1409 8.90625 16.1063C8.51148 16.0045 8.13298 15.8478 7.78188 15.6406C7.66247 15.5701 7.52299 15.5412 7.3854 15.5587C7.24781 15.5761 7.11992 15.6388 7.02187 15.7369L6.46438 16.2944L5.58063 15.4106L6.13812 14.8531C6.23632 14.7552 6.29913 14.6273 6.31667 14.4897C6.33421 14.3521 6.30548 14.2126 6.235 14.0931C6.02738 13.7419 5.87022 13.3632 5.76813 12.9681C5.7334 12.8342 5.65523 12.7156 5.54585 12.6309C5.43648 12.5462 5.30209 12.5001 5.16375 12.5H4.375V11.8188C4.57875 11.8531 4.78688 11.875 5 11.875H7.5C7.5 13.2537 8.62125 14.375 10 14.375C11.3787 14.375 12.5 13.2537 12.5 11.875H15C15.2131 11.875 15.4213 11.8531 15.625 11.8188V12.5ZM8.75 11.875H11.25C11.25 12.5644 10.6894 13.125 10 13.125C9.31063 13.125 8.75 12.5644 8.75 11.875ZM15 10.625H5C3.62125 10.625 2.5 9.50375 2.5 8.125C2.5 6.74625 3.62125 5.625 5 5.625H5.04375C5.0175 5.83 5 6.0375 5 6.25C5 6.41576 5.06585 6.57473 5.18306 6.69194C5.30027 6.80915 5.45924 6.875 5.625 6.875C5.79076 6.875 5.94973 6.80915 6.06694 6.69194C6.18415 6.57473 6.25 6.41576 6.25 6.25C6.25 4.18187 7.93188 2.5 10 2.5C12.0681 2.5 13.75 4.18187 13.75 6.25C13.75 6.41576 13.8158 6.57473 13.9331 6.69194C14.0503 6.80915 14.2092 6.875 14.375 6.875C14.5408 6.875 14.6997 6.80915 14.8169 6.69194C14.9342 6.57473 15 6.41576 15 6.25C15 6.0375 14.9825 5.83 14.9563 5.625H15C16.3787 5.625 17.5 6.74625 17.5 8.125C17.5 9.50375 16.3787 10.625 15 10.625Z" fill="black"/>
</svg>
