<svg width="177" height="116" viewBox="0 0 177 116" fill="none" xmlns="http://www.w3.org/2000/svg">
<g filter="url(#filter0_b_119_3545)">
<path d="M144.995 48.6882C143.175 37.0935 137.786 26.3544 129.578 17.9658C121.369 9.57712 110.75 3.95624 99.1973 1.88545C87.6448 -0.185334 75.7341 1.39701 65.123 6.41225C54.5119 11.4275 45.7283 19.6261 39.9948 29.8669C34.4327 30.3271 29.0157 31.8783 24.0531 34.4319C19.0906 36.9856 14.6796 40.4917 11.072 44.7501C7.46442 49.0085 4.73095 53.9358 3.02763 59.2506C1.32431 64.5654 0.68451 70.1636 1.14476 75.7257C1.5996 81.2872 3.14546 86.7047 5.69407 91.6688C8.24269 96.6329 11.7441 101.046 15.9985 104.657C20.2529 108.268 25.1768 111.006 30.4892 112.713C35.8015 114.421 41.3982 115.066 46.9598 114.611H141.031C145.357 114.87 149.693 114.275 153.789 112.858C157.885 111.442 161.662 109.232 164.904 106.356C168.146 103.479 170.79 99.9923 172.684 96.0939C174.578 92.1955 175.686 87.9622 175.944 83.6357C176.47 74.8985 173.504 66.3101 167.699 59.7596C161.893 53.209 153.723 49.2328 144.986 48.7057L144.995 48.6882Z" fill="#FAFCEE"/>
<path d="M144.995 48.6882C143.175 37.0935 137.786 26.3544 129.578 17.9658C121.369 9.57712 110.75 3.95624 99.1973 1.88545C87.6448 -0.185334 75.7341 1.39701 65.123 6.41225C54.5119 11.4275 45.7283 19.6261 39.9948 29.8669C34.4327 30.3271 29.0157 31.8783 24.0531 34.4319C19.0906 36.9856 14.6796 40.4917 11.072 44.7501C7.46442 49.0085 4.73095 53.9358 3.02763 59.2506C1.32431 64.5654 0.68451 70.1636 1.14476 75.7257C1.5996 81.2872 3.14546 86.7047 5.69407 91.6688C8.24269 96.6329 11.7441 101.046 15.9985 104.657C20.2529 108.268 25.1768 111.006 30.4892 112.713C35.8015 114.421 41.3982 115.066 46.9598 114.611H141.031C145.357 114.87 149.693 114.275 153.789 112.858C157.885 111.442 161.662 109.232 164.904 106.356C168.146 103.479 170.79 99.9923 172.684 96.0939C174.578 92.1955 175.686 87.9622 175.944 83.6357C176.47 74.8985 173.504 66.3101 167.699 59.7596C161.893 53.209 153.723 49.2328 144.986 48.7057L144.995 48.6882Z" stroke="#0C2126" stroke-linecap="round" stroke-linejoin="round"/>
</g>
<g filter="url(#filter1_d_119_3545)">
<path d="M83.5956 45.073C84.5896 40.9757 90.4182 40.9757 91.4122 45.073C91.5614 45.6885 91.8538 46.2602 92.2656 46.7413C92.6774 47.2225 93.197 47.5997 93.7821 47.8421C94.3672 48.0845 95.0013 48.1853 95.6327 48.1364C96.2642 48.0874 96.8751 47.89 97.4159 47.5603C101.016 45.367 105.139 49.4877 102.946 53.0903C102.617 53.6309 102.42 54.2415 102.371 54.8725C102.322 55.5035 102.423 56.1371 102.665 56.7219C102.907 57.3066 103.284 57.826 103.764 58.2378C104.245 58.6496 104.816 58.9421 105.431 59.0917C109.528 60.0857 109.528 65.9143 105.431 66.9083C104.815 67.0575 104.244 67.3498 103.763 67.7617C103.281 68.1735 102.904 68.6931 102.662 69.2782C102.419 69.8633 102.319 70.4974 102.368 71.1288C102.417 71.7603 102.614 72.3712 102.944 72.912C105.137 76.5123 101.016 80.6353 97.4136 78.442C96.873 78.1128 96.2625 77.9157 95.6314 77.8669C95.0004 77.818 94.3668 77.9188 93.782 78.1609C93.1973 78.403 92.6779 78.7797 92.2661 79.2604C91.8543 79.741 91.5618 80.312 91.4122 80.927C90.4182 85.0243 84.5896 85.0243 83.5956 80.927C83.4464 80.3115 83.1541 79.7398 82.7422 79.2587C82.3304 78.7775 81.8108 78.4003 81.2257 78.1579C80.6406 77.9155 80.0065 77.8147 79.3751 77.8636C78.7436 77.9126 78.1327 78.11 77.5919 78.4397C73.9916 80.633 69.8686 76.5123 72.0619 72.9097C72.3911 72.3691 72.5882 71.7585 72.637 71.1275C72.6859 70.4965 72.5851 69.8629 72.343 69.2781C72.1009 68.6934 71.7242 68.174 71.2435 67.7622C70.7629 67.3504 70.1919 67.0579 69.5769 66.9083C65.4796 65.9143 65.4796 60.0857 69.5769 59.0917C70.1924 58.9425 70.7641 58.6502 71.2452 58.2383C71.7264 57.8265 72.1036 57.3069 72.346 56.7218C72.5884 56.1367 72.6892 55.5026 72.6403 54.8712C72.5913 54.2397 72.3939 53.6288 72.0642 53.088C69.8709 49.4877 73.9916 45.3647 77.5942 47.558C79.9276 48.9767 82.9516 47.7213 83.5956 45.073Z" fill="#EDFF6C"/>
<path d="M83.5956 45.073C84.5896 40.9757 90.4182 40.9757 91.4122 45.073C91.5614 45.6885 91.8538 46.2602 92.2656 46.7413C92.6774 47.2225 93.197 47.5997 93.7821 47.8421C94.3672 48.0845 95.0013 48.1853 95.6327 48.1364C96.2642 48.0874 96.8751 47.89 97.4159 47.5603C101.016 45.367 105.139 49.4877 102.946 53.0903C102.617 53.6309 102.42 54.2415 102.371 54.8725C102.322 55.5035 102.423 56.1371 102.665 56.7219C102.907 57.3066 103.284 57.826 103.764 58.2378C104.245 58.6496 104.816 58.9421 105.431 59.0917C109.528 60.0857 109.528 65.9143 105.431 66.9083C104.815 67.0575 104.244 67.3498 103.763 67.7617C103.281 68.1735 102.904 68.6931 102.662 69.2782C102.419 69.8633 102.319 70.4974 102.368 71.1288C102.417 71.7603 102.614 72.3712 102.944 72.912C105.137 76.5123 101.016 80.6353 97.4136 78.442C96.873 78.1128 96.2625 77.9157 95.6314 77.8669C95.0004 77.818 94.3668 77.9188 93.782 78.1609C93.1973 78.403 92.6779 78.7797 92.2661 79.2604C91.8543 79.741 91.5618 80.312 91.4122 80.927C90.4182 85.0243 84.5896 85.0243 83.5956 80.927C83.4464 80.3115 83.1541 79.7398 82.7422 79.2587C82.3304 78.7775 81.8108 78.4003 81.2257 78.1579C80.6406 77.9155 80.0065 77.8147 79.3751 77.8636C78.7436 77.9126 78.1327 78.11 77.5919 78.4397C73.9916 80.633 69.8686 76.5123 72.0619 72.9097C72.3911 72.3691 72.5882 71.7585 72.637 71.1275C72.6859 70.4965 72.5851 69.8629 72.343 69.2781C72.1009 68.6934 71.7242 68.174 71.2435 67.7622C70.7629 67.3504 70.1919 67.0579 69.5769 66.9083C65.4796 65.9143 65.4796 60.0857 69.5769 59.0917C70.1924 58.9425 70.7641 58.6502 71.2452 58.2383C71.7264 57.8265 72.1036 57.3069 72.346 56.7218C72.5884 56.1367 72.6892 55.5026 72.6403 54.8712C72.5913 54.2397 72.3939 53.6288 72.0642 53.088C69.8709 49.4877 73.9916 45.3647 77.5942 47.558C79.9276 48.9767 82.9516 47.7213 83.5956 45.073Z" stroke="black" stroke-linecap="round" stroke-linejoin="round"/>
</g>
<path d="M84.5039 63C84.5039 63.7956 84.82 64.5587 85.3826 65.1213C85.9452 65.6839 86.7083 66 87.5039 66C88.2996 66 89.0626 65.6839 89.6252 65.1213C90.1878 64.5587 90.5039 63.7956 90.5039 63C90.5039 62.2044 90.1878 61.4413 89.6252 60.8787C89.0626 60.3161 88.2996 60 87.5039 60C86.7083 60 85.9452 60.3161 85.3826 60.8787C84.82 61.4413 84.5039 62.2044 84.5039 63Z" fill="#FAFCEE" stroke="black" stroke-linecap="round" stroke-linejoin="round"/>
<defs>
<filter id="filter0_b_119_3545" x="-20.7" y="-20.7" width="218.403" height="157.152" filterUnits="userSpaceOnUse" color-interpolation-filters="sRGB">
<feFlood flood-opacity="0" result="BackgroundImageFix"/>
<feGaussianBlur in="BackgroundImageFix" stdDeviation="10.6"/>
<feComposite in2="SourceAlpha" operator="in" result="effect1_backgroundBlur_119_3545"/>
<feBlend mode="normal" in="SourceGraphic" in2="effect1_backgroundBlur_119_3545" result="shape"/>
</filter>
<filter id="filter1_d_119_3545" x="57.8039" y="37.3" width="59.4" height="59.4" filterUnits="userSpaceOnUse" color-interpolation-filters="sRGB">
<feFlood flood-opacity="0" result="BackgroundImageFix"/>
<feColorMatrix in="SourceAlpha" type="matrix" values="0 0 0 0 0 0 0 0 0 0 0 0 0 0 0 0 0 0 127 0" result="hardAlpha"/>
<feOffset dy="4"/>
<feGaussianBlur stdDeviation="4.1"/>
<feComposite in2="hardAlpha" operator="out"/>
<feColorMatrix type="matrix" values="0 0 0 0 0.00492765 0 0 0 0 0.00561523 0 0 0 0 0 0 0 0 0.08 0"/>
<feBlend mode="normal" in2="BackgroundImageFix" result="effect1_dropShadow_119_3545"/>
<feBlend mode="normal" in="SourceGraphic" in2="effect1_dropShadow_119_3545" result="shape"/>
</filter>
</defs>
</svg>
