<svg width="213" height="137" viewBox="0 0 213 137" fill="none" xmlns="http://www.w3.org/2000/svg">
<g filter="url(#filter0_d_119_3649)">
<path d="M13 21.3422C13 18.0689 14.3003 14.9296 16.615 12.615C18.9296 10.3003 22.0689 9 25.3422 9H74.7112C77.9846 9 81.1239 10.3003 83.4385 12.615C85.7531 14.9296 87.0535 18.0689 87.0535 21.3422V107.738C87.0535 111.011 85.7531 114.151 83.4385 116.465C81.1239 118.78 77.9846 120.08 74.7112 120.08H25.3422C22.0689 120.08 18.9296 118.78 16.615 116.465C14.3003 114.151 13 111.011 13 107.738V21.3422Z" fill="#FDFFF1"/>
<path d="M13 21.3422C13 18.0689 14.3003 14.9296 16.615 12.615C18.9296 10.3003 22.0689 9 25.3422 9H74.7112C77.9846 9 81.1239 10.3003 83.4385 12.615C85.7531 14.9296 87.0535 18.0689 87.0535 21.3422V107.738C87.0535 111.011 85.7531 114.151 83.4385 116.465C81.1239 118.78 77.9846 120.08 74.7112 120.08H25.3422C22.0689 120.08 18.9296 118.78 16.615 116.465C14.3003 114.151 13 111.011 13 107.738V21.3422Z" stroke="black" stroke-linecap="round" stroke-linejoin="round"/>
</g>
<path d="M100.529 21.6372C100.529 18.3638 101.829 15.2245 104.144 12.9099C106.458 10.5953 109.598 9.29492 112.871 9.29492H199.267C202.54 9.29492 205.679 10.5953 207.994 12.9099C210.309 15.2245 211.609 18.3638 211.609 21.6372V83.3484C211.609 86.6218 210.309 89.7611 207.994 92.0757C205.679 94.3903 202.54 95.6907 199.267 95.6907H112.871C109.598 95.6907 106.458 94.3903 104.144 92.0757C101.829 89.7611 100.529 86.6218 100.529 83.3484V21.6372Z" fill="#FDFFF1" stroke="black" stroke-linecap="round" stroke-linejoin="round"/>
<path d="M115.146 22.4395H115.207" stroke="black" stroke-linecap="round" stroke-linejoin="round"/>
<path d="M124 22.4395H124.062" stroke="black" stroke-linecap="round" stroke-linejoin="round"/>
<path d="M44 15.1709H56.3422" stroke="black" stroke-linecap="round" stroke-linejoin="round"/>
<g filter="url(#filter1_d_119_3649)">
<circle cx="50" cy="66.4395" r="20" fill="#EDFF6C"/>
<circle cx="50" cy="66.4395" r="19.5" stroke="black"/>
</g>
<g filter="url(#filter2_d_119_3649)">
<circle cx="157" cy="52.4395" r="22" fill="#EDFF6C"/>
<circle cx="157" cy="52.4395" r="21.5" stroke="black"/>
</g>
<path d="M53.5 67C52.5717 67 51.6815 67.3687 51.0251 68.0251C50.3687 68.6815 50 69.5717 50 70.5V71.5C50 72.4282 50.3687 73.3185 51.0251 73.9748C51.6815 74.6312 52.5717 74.9999 53.5 74.9999C54.4282 74.9999 55.3185 74.6312 55.9748 73.9748C56.6312 73.3185 56.9999 72.4282 56.9999 71.5V69.7" stroke="#0C2126" stroke-linecap="round" stroke-linejoin="round"/>
<path d="M46.5 67C47.4282 67 48.3185 67.3687 48.9748 68.0251C49.6312 68.6815 49.9999 69.5717 49.9999 70.5V71.5C49.9999 72.4282 49.6312 73.3185 48.9748 73.9748C48.3185 74.6312 47.4282 74.9999 46.5 74.9999C45.5717 74.9999 44.6815 74.6312 44.0251 73.9748C43.3687 73.3185 43 72.4282 43 71.5V69.7" stroke="#0C2126" stroke-linecap="round" stroke-linejoin="round"/>
<path d="M55.5 69.9999C56.4282 69.9999 57.3185 69.6312 57.9749 68.9748C58.6312 68.3185 59 67.4282 59 66.5C59 65.5717 58.6312 64.6815 57.9749 64.0251C57.3185 63.3687 56.4282 63 55.5 63H55" stroke="#0C2126" stroke-linecap="round" stroke-linejoin="round"/>
<path d="M56.9999 63.3V60.5C56.9999 59.5717 56.6312 58.6815 55.9748 58.0251C55.3185 57.3687 54.4282 57 53.5 57C52.5717 57 51.6815 57.3687 51.0251 58.0251C50.3687 58.6815 50 59.5717 50 60.5" stroke="#0C2126" stroke-linecap="round" stroke-linejoin="round"/>
<path d="M44.5 69.9999C43.5717 69.9999 42.6815 69.6312 42.0251 68.9748C41.3687 68.3185 41 67.4282 41 66.5C41 65.5717 41.3687 64.6815 42.0251 64.0251C42.6815 63.3687 43.5717 63 44.5 63H45" stroke="#0C2126" stroke-linecap="round" stroke-linejoin="round"/>
<path d="M43 63.3V60.5C43 59.5717 43.3687 58.6815 44.0251 58.0251C44.6815 57.3687 45.5717 57 46.5 57C47.4282 57 48.3185 57.3687 48.9748 58.0251C49.6312 58.6815 49.9999 59.5717 49.9999 60.5V70.4999" stroke="#0C2126" stroke-linecap="round" stroke-linejoin="round"/>
<g clip-path="url(#clip0_119_3649)">
<path d="M151.057 62.0475L166.199 46.9056L163.17 43.8772L148.029 59.0191L151.057 62.0475Z" stroke="black" stroke-linecap="round" stroke-linejoin="round"/>
<path d="M160.142 46.906L163.17 49.9344" stroke="black" stroke-linecap="round" stroke-linejoin="round"/>
<path d="M154.085 43.8772C154.085 44.4126 154.298 44.9262 154.676 45.3048C155.055 45.6834 155.569 45.8961 156.104 45.8961C155.569 45.8961 155.055 46.1088 154.676 46.4874C154.298 46.8661 154.085 47.3796 154.085 47.915C154.085 47.3796 153.872 46.8661 153.494 46.4874C153.115 46.1088 152.602 45.8961 152.066 45.8961C152.602 45.8961 153.115 45.6834 153.494 45.3048C153.872 44.9262 154.085 44.4126 154.085 43.8772Z" fill="#A2B803"/>
<path d="M164.18 53.9717C164.18 54.5071 164.392 55.0207 164.771 55.3993C165.15 55.7779 165.663 55.9906 166.198 55.9906C165.663 55.9906 165.15 56.2033 164.771 56.5819C164.392 56.9605 164.18 57.4741 164.18 58.0095C164.18 57.4741 163.967 56.9605 163.588 56.5819C163.21 56.2033 162.696 55.9906 162.161 55.9906C162.696 55.9906 163.21 55.7779 163.588 55.3993C163.967 55.0207 164.18 54.5071 164.18 53.9717Z" fill="#A2B803"/>
</g>
<defs>
<filter id="filter0_d_119_3649" x="0.6" y="0.6" width="98.8535" height="135.88" filterUnits="userSpaceOnUse" color-interpolation-filters="sRGB">
<feFlood flood-opacity="0" result="BackgroundImageFix"/>
<feColorMatrix in="SourceAlpha" type="matrix" values="0 0 0 0 0 0 0 0 0 0 0 0 0 0 0 0 0 0 127 0" result="hardAlpha"/>
<feOffset dy="4"/>
<feGaussianBlur stdDeviation="5.95"/>
<feComposite in2="hardAlpha" operator="out"/>
<feColorMatrix type="matrix" values="0 0 0 0 0.929412 0 0 0 0 1 0 0 0 0 0.423529 0 0 0 0.07 0"/>
<feBlend mode="normal" in2="BackgroundImageFix" result="effect1_dropShadow_119_3649"/>
<feBlend mode="normal" in="SourceGraphic" in2="effect1_dropShadow_119_3649" result="shape"/>
</filter>
<filter id="filter1_d_119_3649" x="21.8" y="42.2395" width="56.4" height="56.4" filterUnits="userSpaceOnUse" color-interpolation-filters="sRGB">
<feFlood flood-opacity="0" result="BackgroundImageFix"/>
<feColorMatrix in="SourceAlpha" type="matrix" values="0 0 0 0 0 0 0 0 0 0 0 0 0 0 0 0 0 0 127 0" result="hardAlpha"/>
<feOffset dy="4"/>
<feGaussianBlur stdDeviation="4.1"/>
<feComposite in2="hardAlpha" operator="out"/>
<feColorMatrix type="matrix" values="0 0 0 0 0.00492765 0 0 0 0 0.00561523 0 0 0 0 0 0 0 0 0.08 0"/>
<feBlend mode="normal" in2="BackgroundImageFix" result="effect1_dropShadow_119_3649"/>
<feBlend mode="normal" in="SourceGraphic" in2="effect1_dropShadow_119_3649" result="shape"/>
</filter>
<filter id="filter2_d_119_3649" x="126.8" y="26.2395" width="60.4" height="60.4" filterUnits="userSpaceOnUse" color-interpolation-filters="sRGB">
<feFlood flood-opacity="0" result="BackgroundImageFix"/>
<feColorMatrix in="SourceAlpha" type="matrix" values="0 0 0 0 0 0 0 0 0 0 0 0 0 0 0 0 0 0 127 0" result="hardAlpha"/>
<feOffset dy="4"/>
<feGaussianBlur stdDeviation="4.1"/>
<feComposite in2="hardAlpha" operator="out"/>
<feColorMatrix type="matrix" values="0 0 0 0 0.00492765 0 0 0 0 0.00561523 0 0 0 0 0 0 0 0 0.08 0"/>
<feBlend mode="normal" in2="BackgroundImageFix" result="effect1_dropShadow_119_3649"/>
<feBlend mode="normal" in="SourceGraphic" in2="effect1_dropShadow_119_3649" result="shape"/>
</filter>
<clipPath id="clip0_119_3649">
<rect width="24.227" height="24.227" fill="white" transform="translate(145 39.2129)"/>
</clipPath>
</defs>
</svg>
