<svg width="120" height="26" viewBox="0 0 120 26" fill="none" xmlns="http://www.w3.org/2000/svg">
<path d="M0.567122 12.9507C0.567122 11.7592 0.824904 10.6994 1.34047 9.77138C1.85603 8.83191 2.5721 8.10439 3.48866 7.58882C4.41668 7.0618 5.46499 6.79829 6.63361 6.79829C8.06573 6.79829 9.29163 7.17637 10.3113 7.93253C11.331 8.6887 12.0127 9.71983 12.3564 11.0259H9.1255C8.88491 10.5218 8.5412 10.138 8.09437 9.8745C7.65901 9.61098 7.16063 9.47923 6.59923 9.47923C5.69413 9.47923 4.96088 9.7943 4.39949 10.4244C3.8381 11.0546 3.5574 11.8967 3.5574 12.9507C3.5574 14.0047 3.8381 14.8468 4.39949 15.477C4.96088 16.1071 5.69413 16.4222 6.59923 16.4222C7.16063 16.4222 7.65901 16.2904 8.09437 16.0269C8.5412 15.7634 8.88491 15.3796 9.1255 14.8755H12.3564C12.0127 16.1816 11.331 17.2127 10.3113 17.9689C9.29163 18.7136 8.06573 19.0859 6.63361 19.0859C5.46499 19.0859 4.41668 18.8281 3.48866 18.3126C2.5721 17.7856 1.85603 17.058 1.34047 16.13C0.824904 15.202 0.567122 14.1422 0.567122 12.9507ZM17.6103 16.7315H21.4599V19H14.6716V6.93577H17.6103V16.7315ZM29.0827 19.1203C27.9485 19.1203 26.9059 18.8568 25.9549 18.3298C25.0155 17.8027 24.265 17.0695 23.7036 16.13C23.1537 15.1791 22.8787 14.1136 22.8787 12.9335C22.8787 11.7534 23.1537 10.6937 23.7036 9.7542C24.265 8.81472 25.0155 8.08147 25.9549 7.55445C26.9059 7.02743 27.9485 6.76392 29.0827 6.76392C30.217 6.76392 31.2538 7.02743 32.1933 7.55445C33.1442 8.08147 33.8889 8.81472 34.4274 9.7542C34.9773 10.6937 35.2523 11.7534 35.2523 12.9335C35.2523 14.1136 34.9773 15.1791 34.4274 16.13C33.8775 17.0695 33.1328 17.8027 32.1933 18.3298C31.2538 18.8568 30.217 19.1203 29.0827 19.1203ZM29.0827 16.4394C30.0451 16.4394 30.8127 16.1186 31.3856 15.477C31.9699 14.8354 32.262 13.9876 32.262 12.9335C32.262 11.868 31.9699 11.0202 31.3856 10.3901C30.8127 9.74847 30.0451 9.42767 29.0827 9.42767C28.1089 9.42767 27.3298 9.74274 26.7455 10.3729C26.1726 11.003 25.8862 11.8566 25.8862 12.9335C25.8862 13.999 26.1726 14.8526 26.7455 15.4942C27.3298 16.1243 28.1089 16.4394 29.0827 16.4394ZM40.2899 6.93577V14.1537C40.2899 14.8755 40.4675 15.4311 40.8227 15.8207C41.1779 16.2102 41.6992 16.405 42.3866 16.405C43.074 16.405 43.601 16.2102 43.9676 15.8207C44.3343 15.4311 44.5176 14.8755 44.5176 14.1537V6.93577H47.4563V14.1365C47.4563 15.2135 47.2272 16.1243 46.7689 16.869C46.3106 17.6137 45.6919 18.1751 44.9128 18.5532C44.1452 18.9313 43.2859 19.1203 42.335 19.1203C41.3841 19.1203 40.5305 18.937 39.7744 18.5704C39.0297 18.1923 38.4396 17.6309 38.0043 16.8862C37.5689 16.13 37.3512 15.2135 37.3512 14.1365V6.93577H40.2899ZM54.5553 6.93577C55.827 6.93577 56.9383 7.18783 57.8892 7.69194C58.8402 8.19604 59.5734 8.90638 60.089 9.82294C60.616 10.728 60.8795 11.7764 60.8795 12.9679C60.8795 14.148 60.616 15.1963 60.089 16.1128C59.5734 17.0294 58.8344 17.7397 57.8721 18.2438C56.9211 18.7479 55.8155 19 54.5553 19H50.0355V6.93577H54.5553ZM54.3662 16.4565C55.4775 16.4565 56.3425 16.1529 56.9612 15.5457C57.5799 14.9385 57.8892 14.0792 57.8892 12.9679C57.8892 11.8566 57.5799 10.9916 56.9612 10.3729C56.3425 9.7542 55.4775 9.44486 54.3662 9.44486H52.9742V16.4565H54.3662ZM71.6129 10.6135C71.6129 11.2207 71.4697 11.7935 71.1833 12.332C70.8969 12.8705 70.4386 13.3116 69.8085 13.6553C69.1783 13.9876 68.3706 14.1537 67.3853 14.1537H65.2199V19H63.2608V7.05607H67.3853C68.3019 7.05607 69.0752 7.21647 69.7054 7.53727C70.3469 7.84661 70.8224 8.27051 71.1318 8.80899C71.4526 9.34747 71.6129 9.94897 71.6129 10.6135ZM67.3853 12.5554C68.13 12.5554 68.6857 12.3893 69.0523 12.0571C69.4189 11.7133 69.6022 11.2322 69.6022 10.6135C69.6022 9.30737 68.8633 8.65432 67.3853 8.65432H65.2199V12.5554H67.3853ZM80.201 19L77.4513 14.2224H75.9562V19H73.997V7.05607H78.1216C79.0381 7.05607 79.8115 7.21647 80.4416 7.53727C81.0832 7.85806 81.5587 8.2877 81.868 8.82618C82.1888 9.36466 82.3492 9.96615 82.3492 10.6307C82.3492 11.4097 82.1201 12.1201 81.6618 12.7617C81.2149 13.3918 80.5218 13.8214 79.5823 14.0506L82.5382 19H80.201ZM75.9562 12.6585H78.1216C78.8548 12.6585 79.4047 12.4752 79.7714 12.1086C80.1494 11.742 80.3385 11.2493 80.3385 10.6307C80.3385 10.012 80.1552 9.53079 79.7886 9.18707C79.4219 8.83191 78.8663 8.65432 78.1216 8.65432H75.9562V12.6585ZM90.8188 19.1203C89.7075 19.1203 88.6821 18.8625 87.7426 18.347C86.8146 17.8199 86.0756 17.0924 85.5257 16.1644C84.9872 15.2249 84.718 14.1709 84.718 13.0023C84.718 11.8336 84.9872 10.7853 85.5257 9.85731C86.0756 8.92929 86.8146 8.2075 87.7426 7.69194C88.6821 7.16491 89.7075 6.9014 90.8188 6.9014C91.9416 6.9014 92.967 7.16491 93.895 7.69194C94.8345 8.2075 95.5735 8.92929 96.112 9.85731C96.6504 10.7853 96.9197 11.8336 96.9197 13.0023C96.9197 14.1709 96.6504 15.2249 96.112 16.1644C95.5735 17.0924 94.8345 17.8199 93.895 18.347C92.967 18.8625 91.9416 19.1203 90.8188 19.1203ZM90.8188 17.4189C91.6094 17.4189 92.314 17.2413 92.9326 16.8862C93.5513 16.5196 94.0325 16.004 94.3762 15.3395C94.7314 14.6635 94.909 13.8844 94.909 13.0023C94.909 12.1201 94.7314 11.3467 94.3762 10.6822C94.0325 10.0177 93.5513 9.50787 92.9326 9.1527C92.314 8.79754 91.6094 8.61995 90.8188 8.61995C90.0283 8.61995 89.3237 8.79754 88.705 9.1527C88.0863 9.50787 87.5994 10.0177 87.2442 10.6822C86.9005 11.3467 86.7287 12.1201 86.7287 13.0023C86.7287 13.8844 86.9005 14.6635 87.2442 15.3395C87.5994 16.004 88.0863 16.5196 88.705 16.8862C89.3237 17.2413 90.0283 17.4189 90.8188 17.4189ZM100.154 19.1203C99.7985 19.1203 99.5006 19 99.26 18.7594C99.0194 18.5188 98.8991 18.2209 98.8991 17.8658C98.8991 17.5106 99.0194 17.2127 99.26 16.9721C99.5006 16.7315 99.7985 16.6112 100.154 16.6112C100.497 16.6112 100.79 16.7315 101.03 16.9721C101.271 17.2127 101.391 17.5106 101.391 17.8658C101.391 18.2209 101.271 18.5188 101.03 18.7594C100.79 19 100.497 19.1203 100.154 19.1203ZM111.225 16.5597H106.224L105.364 19H103.319L107.599 7.03889H109.867L114.146 19H112.084L111.225 16.5597ZM110.675 14.9614L108.733 9.41049L106.774 14.9614H110.675ZM118.482 7.05607V19H116.522V7.05607H118.482Z" fill="white"/>
</svg>
