<svg width="950" height="42" viewBox="0 0 950 42" fill="none" xmlns="http://www.w3.org/2000/svg">
<g clip-path="url(#clip0_119_377)">
<path fill-rule="evenodd" clip-rule="evenodd" d="M40.9647 25.105C43.2072 25.105 45.1062 23.2543 45.1062 20.9416C45.1062 18.6287 43.2072 16.8015 40.9647 16.8015C38.6534 16.8015 36.8013 18.6287 36.8013 20.9415C36.8013 23.2543 38.6534 25.1049 40.9647 25.1049M35.6909 20.9415C35.6909 18.0275 38.0506 15.6694 40.9647 15.6694C43.8803 15.6694 46.2369 18.0275 46.2369 20.9415C46.2369 23.8775 43.8803 26.2387 40.9647 26.2387C38.0506 26.2387 35.6909 23.8775 35.6909 20.9415ZM28.2934 20.9415C28.9618 20.8941 30.0502 20.1326 30.4656 19.6703C30.3032 20.2247 30.3032 21.9816 30.4656 22.5376C30.0034 21.8676 28.9617 21.0572 28.2934 20.9415ZM24.5001 15.3695C25.3324 15.3695 26.0024 16.1785 26.0024 17.1045C26.0024 18.0275 25.3324 18.8396 24.5001 18.8396H21.6297V15.3695L24.5001 15.3695ZM24.5001 23.1606C25.3324 23.1606 26.0024 23.9712 26.0024 24.8957C26.0024 25.8685 25.3324 26.676 24.5001 26.676H21.6297V23.1606H24.5001ZM40.9647 31.603C46.746 31.603 51.4637 26.793 51.4637 20.9415C51.4637 14.9979 46.746 10.3972 40.9647 10.3972C35.1147 10.3972 32.1538 14.6511 31.4385 16.3861C31.4385 13.8187 28.8696 10.7439 25.8868 10.7439H16.2436V31.511H25.2153C28.8696 31.511 31.4385 28.3876 31.4385 25.6593C32.2475 27.3476 35.1147 31.603 40.9647 31.603M15.0895 31.5105H9.44562V23.4617H5.78977V31.5105H0.00695801V10.7435H5.78977V18.4894H9.44562V10.7436H15.0895V31.5105Z" fill="#858585"/>
</g>
<g clip-path="url(#clip1_119_377)">
<path d="M106.143 16.8733C106.143 17.494 106.21 17.9973 106.327 18.3663C106.462 18.7354 106.629 19.138 106.864 19.5741C106.948 19.7083 106.982 19.8425 106.982 19.96C106.982 20.1277 106.881 20.2955 106.663 20.4632L105.606 21.1678C105.455 21.2684 105.304 21.3187 105.17 21.3187C105.002 21.3187 104.834 21.2349 104.667 21.0839C104.432 20.8323 104.23 20.5639 104.063 20.2955C103.895 20.0103 103.727 19.6916 103.543 19.3057C102.234 20.849 100.59 21.6207 98.6108 21.6207C97.2017 21.6207 96.0777 21.2181 95.2558 20.4129C94.4338 19.6077 94.0144 18.5341 94.0144 17.1921C94.0144 15.7662 94.5177 14.6087 95.5409 13.7364C96.5642 12.8641 97.923 12.4279 99.6508 12.4279C100.221 12.4279 100.808 12.4783 101.429 12.5621C102.05 12.646 102.687 12.7802 103.358 12.9312V11.7066C103.358 10.4317 103.09 9.54261 102.57 9.02258C102.033 8.50256 101.127 8.25093 99.8354 8.25093C99.2482 8.25093 98.6443 8.31803 98.0237 8.46901C97.403 8.61998 96.7991 8.80451 96.2119 9.03936C95.9435 9.15679 95.7422 9.22389 95.6248 9.25744C95.5074 9.29099 95.4235 9.30776 95.3564 9.30776C95.1216 9.30776 95.0041 9.14001 95.0041 8.78773V7.96575C95.0041 7.69735 95.0377 7.49605 95.1216 7.37862C95.2054 7.2612 95.3564 7.14377 95.5913 7.02635C96.1784 6.72439 96.8829 6.47277 97.7049 6.27147C98.5269 6.05339 99.3992 5.95274 100.322 5.95274C102.318 5.95274 103.778 6.40567 104.717 7.31152C105.64 8.21738 106.109 9.59294 106.109 11.4382V16.8733H106.143ZM99.3321 19.4232C99.8857 19.4232 100.456 19.3225 101.06 19.1212C101.664 18.9199 102.201 18.5508 102.654 18.0476C102.922 17.7289 103.123 17.3766 103.224 16.974C103.325 16.5714 103.392 16.0849 103.392 15.5146V14.81C102.905 14.6926 102.385 14.5919 101.848 14.5248C101.312 14.4577 100.792 14.4242 100.272 14.4242C99.1476 14.4242 98.3256 14.6422 97.772 15.0952C97.2185 15.5481 96.95 16.1856 96.95 17.0243C96.95 17.8127 97.1513 18.3999 97.5707 18.8025C97.9733 19.2219 98.5605 19.4232 99.3321 19.4232ZM112.803 21.2349C112.501 21.2349 112.299 21.1845 112.165 21.0671C112.031 20.9665 111.913 20.7316 111.813 20.4129L107.871 7.44572C107.77 7.11022 107.72 6.89215 107.72 6.77472C107.72 6.50632 107.854 6.35534 108.122 6.35534H109.766C110.085 6.35534 110.303 6.40567 110.42 6.52309C110.555 6.62374 110.655 6.8586 110.756 7.17732L113.574 18.2824L116.191 7.17732C116.275 6.84182 116.376 6.62374 116.51 6.52309C116.644 6.42244 116.879 6.35534 117.181 6.35534H118.523C118.842 6.35534 119.06 6.40567 119.194 6.52309C119.328 6.62374 119.445 6.8586 119.513 7.17732L122.163 18.4166L125.065 7.17732C125.166 6.84182 125.283 6.62374 125.401 6.52309C125.535 6.42244 125.753 6.35534 126.055 6.35534H127.615C127.883 6.35534 128.034 6.48954 128.034 6.77472C128.034 6.8586 128.018 6.94247 128.001 7.04312C127.984 7.14377 127.95 7.27797 127.883 7.4625L123.841 20.4297C123.74 20.7652 123.622 20.9832 123.488 21.0839C123.354 21.1845 123.136 21.2516 122.851 21.2516H121.408C121.089 21.2516 120.871 21.2013 120.737 21.0839C120.603 20.9665 120.486 20.7484 120.418 20.4129L117.818 9.59294L115.235 20.3961C115.151 20.7316 115.05 20.9497 114.916 21.0671C114.782 21.1845 114.547 21.2349 114.245 21.2349H112.803ZM134.359 21.6878C133.486 21.6878 132.614 21.5871 131.775 21.3858C130.936 21.1845 130.282 20.9665 129.846 20.7148C129.578 20.5639 129.393 20.3961 129.326 20.2451C129.259 20.0942 129.225 19.9264 129.225 19.7754V18.9199C129.225 18.5676 129.36 18.3999 129.611 18.3999C129.712 18.3999 129.812 18.4166 129.913 18.4502C130.014 18.4837 130.165 18.5508 130.333 18.6179C130.903 18.8696 131.524 19.0709 132.178 19.2051C132.849 19.3393 133.503 19.4064 134.174 19.4064C135.231 19.4064 136.053 19.2218 136.623 18.8528C137.194 18.4837 137.495 17.9469 137.495 17.2592C137.495 16.7895 137.345 16.4036 137.043 16.0849C136.741 15.7662 136.17 15.481 135.348 15.2126L132.916 14.4577C131.691 14.0719 130.785 13.5015 130.232 12.7467C129.678 12.0086 129.393 11.1866 129.393 10.3143C129.393 9.60971 129.544 8.98903 129.846 8.45223C130.148 7.91543 130.551 7.44572 131.054 7.07667C131.557 6.69084 132.127 6.40567 132.798 6.20437C133.469 6.00306 134.174 5.91919 134.912 5.91919C135.281 5.91919 135.667 5.93596 136.036 5.98629C136.422 6.03662 136.774 6.10372 137.126 6.17082C137.462 6.25469 137.781 6.33857 138.083 6.43922C138.385 6.53987 138.619 6.64052 138.787 6.74117C139.022 6.87537 139.19 7.00957 139.29 7.16055C139.391 7.29475 139.441 7.47927 139.441 7.71413V8.50256C139.441 8.85483 139.307 9.03936 139.056 9.03936C138.921 9.03936 138.703 8.97226 138.418 8.83806C137.462 8.40191 136.388 8.18383 135.197 8.18383C134.241 8.18383 133.486 8.3348 132.966 8.65353C132.446 8.97226 132.178 9.45874 132.178 10.1465C132.178 10.6162 132.346 11.0188 132.681 11.3375C133.017 11.6563 133.637 11.975 134.526 12.2602L136.908 13.0151C138.116 13.4009 138.988 13.9377 139.508 14.6255C140.029 15.3132 140.28 16.1017 140.28 16.974C140.28 17.6953 140.129 18.3495 139.844 18.9199C139.542 19.4903 139.139 19.9935 138.619 20.3961C138.099 20.8155 137.479 21.1174 136.757 21.3355C136.002 21.5704 135.214 21.6878 134.359 21.6878Z" fill="#858585"/>
<path fill-rule="evenodd" clip-rule="evenodd" d="M137.529 29.8407C132.01 33.917 123.991 36.081 117.097 36.081C107.434 36.081 98.7279 32.5079 92.152 26.5695C91.632 26.0998 92.1017 25.4624 92.7224 25.8314C99.835 29.9581 108.608 32.4576 117.684 32.4576C123.807 32.4576 130.533 31.1827 136.723 28.5658C137.646 28.1464 138.435 29.1697 137.529 29.8407Z" fill="#858585"/>
<path fill-rule="evenodd" clip-rule="evenodd" d="M139.827 27.2237C139.122 26.3178 135.163 26.7875 133.369 27.0056C132.832 27.0727 132.748 26.603 133.234 26.2507C136.388 24.0364 141.572 24.6739 142.175 25.412C142.779 26.1669 142.008 31.3504 139.055 33.8331C138.602 34.2189 138.166 34.0176 138.367 33.5144C139.038 31.8536 140.531 28.1128 139.827 27.2237Z" fill="#858585"/>
</g>
<g clip-path="url(#clip2_119_377)">
<path d="M196.871 34.0206V22.7524H208.809L210.089 24.4218L211.413 22.7524H254.716V33.2435C254.716 33.2435 253.586 34.0062 252.277 34.0206H228.294L226.848 32.2433V34.0206H222.12V30.9841C222.12 30.9841 221.473 31.4086 220.077 31.4086H218.465V34.0206H211.306L210.025 32.3153L208.73 34.0206H196.871Z" fill="white"/>
<path d="M182.941 14.2546L185.632 7.9801H190.287L191.813 11.4915V7.9801H197.598L198.505 10.5201L199.382 7.9801H225.351V9.25371C225.351 9.25371 226.718 7.9801 228.956 7.9801L237.382 8.00889L238.886 11.4771V7.9801H243.728L245.059 9.97326V7.9801H249.945V19.2554H245.059L243.786 17.2551V19.2554H236.677L235.964 17.4782H234.05L233.345 19.2554H228.524C226.596 19.2554 225.358 18.0034 225.358 18.0034V19.2554H218.076L216.63 17.4782V19.2554H189.597L188.884 17.4782H186.977L186.265 19.2554H182.941V14.2546Z" fill="white"/>
<path d="M186.582 9.3761L182.955 17.8164H185.316L185.985 16.1255H189.878L190.547 17.8164H192.964L189.338 9.3761H186.582ZM187.928 11.3333L189.115 14.2834H186.74L187.928 11.3333Z" fill="#858585"/>
<path d="M193.209 17.8092V9.3689L196.569 9.38329L198.519 14.8231L200.426 9.3689H203.757V17.8092H201.649V11.5923L199.411 17.8092H197.562L195.317 11.5923V17.8092H193.209Z" fill="#858585"/>
<path d="M205.204 17.8092V9.3689H212.09V11.2541H207.341V12.7004H211.975V14.4777H207.333V15.9744H212.083V17.8092H205.204Z" fill="#858585"/>
<path d="M213.306 9.3761V17.8164H215.414V14.8159H216.299L218.832 17.8164H221.408L218.631 14.708C219.767 14.6144 220.948 13.6358 220.948 12.1176C220.948 10.3403 219.552 9.38329 217.997 9.38329L213.306 9.3761ZM215.414 11.2613H217.825C218.4 11.2613 218.825 11.7146 218.825 12.1464C218.825 12.7076 218.278 13.0314 217.853 13.0314H215.414V11.2613Z" fill="#858585"/>
<path d="M223.963 17.8092H221.811V9.3689H223.963V17.8092Z" fill="#858585"/>
<path d="M229.071 17.8092H228.603C226.351 17.8092 224.991 16.0391 224.991 13.6286C224.991 11.1606 226.344 9.3761 229.179 9.3761H231.51V11.3764H229.1C227.948 11.3764 227.128 12.2759 227.128 13.6502C227.128 15.2836 228.064 15.9672 229.402 15.9672H229.956L229.071 17.8092Z" fill="#858585"/>
<path d="M233.662 9.37609L230.035 17.8092H232.395L233.065 16.1183H236.957L237.627 17.8092H240.037L236.41 9.3689L233.662 9.37609ZM235 11.3333L236.187 14.2834H233.813L235 11.3333Z" fill="#858585"/>
<path d="M240.282 17.8092V9.3689H242.966L246.391 14.672V9.3689H248.499V17.8092H245.901L242.39 12.3694V17.8092H240.282Z" fill="#858585"/>
<path d="M198.318 32.5745V24.1342H205.204V26.0194H200.455V27.4657H205.096V29.243H200.455V30.7396H205.204V32.5745H198.318Z" fill="#858585"/>
<path d="M232.043 32.5745V24.1342H238.929V26.0194H234.18V27.4657H238.8V29.243H234.18V30.7396H238.929V32.5745H232.043Z" fill="#858585"/>
<path d="M205.47 32.5745L208.823 28.4083L205.391 24.1342H208.046L210.089 26.7749L212.14 24.1342H214.695L211.305 28.3507L214.666 32.5673H212.011L210.025 29.9697L208.089 32.5673L205.47 32.5745Z" fill="#858585"/>
<path d="M214.918 24.1414V32.5817H217.083V29.9193H219.307C221.185 29.9193 222.61 28.9192 222.61 26.9836C222.61 25.379 221.494 24.1486 219.58 24.1486H214.918V24.1414ZM217.083 26.0482H219.422C220.026 26.0482 220.465 26.4223 220.465 27.0196C220.465 27.5808 220.034 27.9909 219.415 27.9909H217.083V26.0482Z" fill="#858585"/>
<path d="M223.516 24.1342V32.5745H225.625V29.5739H226.51L229.042 32.5745H231.618L228.841 29.466C229.978 29.3725 231.158 28.3939 231.158 26.8756C231.158 25.0983 229.762 24.1413 228.208 24.1413L223.516 24.1342ZM225.632 26.0266H228.042C228.618 26.0266 229.042 26.4799 229.042 26.9116C229.042 27.4729 228.496 27.7967 228.071 27.7967H225.632V26.0266Z" fill="#858585"/>
<path d="M239.908 32.5745V30.7396H244.132C244.758 30.7396 245.024 30.4014 245.024 30.0345C245.024 29.6819 244.758 29.3221 244.132 29.3221H242.225C240.57 29.3221 239.642 28.3147 239.642 26.7965C239.642 25.4437 240.491 24.1414 242.952 24.1414H247.06L246.175 26.041H242.621C241.944 26.041 241.735 26.4007 241.735 26.7389C241.735 27.0915 241.995 27.4729 242.513 27.4729H244.513C246.362 27.4729 247.161 28.5234 247.161 29.8978C247.161 31.3728 246.269 32.5817 244.412 32.5817H239.908V32.5745Z" fill="#858585"/>
<path d="M247.65 32.5745V30.7396H251.873C252.499 30.7396 252.766 30.4014 252.766 30.0345C252.766 29.6819 252.499 29.3221 251.873 29.3221H249.967C248.312 29.3221 247.383 28.3147 247.383 26.7965C247.383 25.4437 248.232 24.1414 250.693 24.1414H254.802L253.917 26.041H250.362C249.686 26.041 249.477 26.4007 249.477 26.7389C249.477 27.0915 249.736 27.4729 250.254 27.4729H252.255C254.104 27.4729 254.903 28.5234 254.903 29.8978C254.903 31.3728 254.01 32.5817 252.154 32.5817H247.65V32.5745Z" fill="#858585"/>
</g>
<path fill-rule="evenodd" clip-rule="evenodd" d="M317.711 29.2778H320.947V12.0618H317.711V29.2778ZM312.49 29.2778H315.726V12.0618H312.49V29.2778ZM294.896 29.2778H298.693L301.975 23.1511H305.499L307.01 20.5818V29.2778H310.246V12.0618H304.119L294.896 29.2778ZM307.01 20.2602H303.524L307.01 13.7533V20.2602ZM366.174 24.7688H362.792V26.2744C362.705 27.1412 362.247 27.3023 361.269 27.3145C360.291 27.3023 359.832 27.1412 359.745 26.2744V23.2456H366.174V18.1179C366.347 15.48 363.324 14.6997 361.269 14.7744C359.213 14.7001 356.191 15.4804 356.364 18.1179V26.5895C356.191 29.2275 359.213 30.0077 361.269 29.9334C363.325 30.0073 366.347 29.2271 366.174 26.5895V24.7688ZM359.745 18.4334C359.832 17.5663 360.291 17.4055 361.269 17.3929C362.247 17.4055 362.705 17.5663 362.792 18.4334V20.5703H359.745V18.4334ZM339.5 14.9096H337.602V12.0618H334.366V14.9096H333.632L332.417 17.0736C332.173 15.2582 329.977 14.6529 327.78 14.569C325.627 14.5397 322.902 15.3013 322.836 17.3156V20.2602C322.822 21.4173 323.137 22.2886 324.506 22.8086L328.03 23.7729C328.74 23.9485 329.253 24.5859 329.172 25.487C328.974 26.6219 328.535 27.0951 327.458 27.0875C326.821 27.044 326.074 26.8909 326.074 25.9685V24.4H322.789V26.9998C322.848 29.357 325.179 29.6949 327.48 29.7681C329.634 29.7974 332.358 29.0358 332.424 27.0216V23.7504C332.439 22.5934 332.124 21.722 330.754 21.202L327.231 20.2377C326.521 20.0621 326.008 19.4247 326.089 18.5237C326.286 17.3883 326.726 17.2417 327.803 17.2489C328.44 17.2923 329.121 17.4455 329.121 18.3678V19.5123H332.439V17.3681H334.366V29.277H337.602V17.3693H339.5V14.9096Z" fill="#858585"/>
<path fill-rule="evenodd" clip-rule="evenodd" d="M356.369 14.9095H354.47V12.0616H351.234V14.9095H350.501L349.219 17.192C348.811 15.1758 346.201 14.559 344.363 14.6253C342.307 14.551 339.397 15.3316 339.57 17.9692V19.5301H342.84V18.2847C342.927 17.4175 343.385 17.2568 344.363 17.2442C345.342 17.2568 345.8 17.4175 345.886 18.2847V20.4216H343.397C341.403 20.3721 339.186 20.9912 339.236 25.0658C339.347 26.7254 339.57 29.2395 341.651 29.3755H344.586L345.886 27.1872V29.4498H349.268V17.9696C349.282 17.7693 349.275 17.5682 349.249 17.3692H351.234V29.278H354.47V17.3692H356.369V14.9095ZM345.886 26.8127H344.103C342.951 26.7258 342.914 25.8964 342.877 24.9919C342.864 23.543 343.186 23.023 344.4 22.9857H345.886L345.886 26.8127Z" fill="#858585"/>
<g clip-path="url(#clip3_119_377)">
<path d="M417.215 24.9724C417.215 26.4045 417.529 27.5039 417.94 28.169C418.478 29.0403 419.282 29.4101 420.101 29.4101C421.157 29.4101 422.124 29.1479 423.986 26.572C425.478 24.5074 427.236 21.6094 428.419 19.7925L430.423 16.7145C431.814 14.5769 433.425 12.2006 435.272 10.5899C436.78 9.27515 438.406 8.5448 440.043 8.5448C442.791 8.5448 445.408 10.1373 447.412 13.1241C449.604 16.395 450.668 20.5152 450.668 24.7669C450.668 27.2946 450.17 29.1518 449.322 30.6191C448.503 32.038 446.907 33.4558 444.221 33.4558V29.4095C446.521 29.4095 447.095 27.2965 447.095 24.8784C447.095 21.4327 446.291 17.6087 444.521 14.8763C443.265 12.9382 441.638 11.754 439.847 11.754C437.91 11.754 436.352 13.215 434.6 15.8192C433.669 17.2031 432.713 18.8894 431.639 20.7923L430.458 22.8857C428.084 27.0951 427.483 28.0534 426.296 29.6351C424.216 32.405 422.439 33.4552 420.101 33.4552C417.327 33.4552 415.573 32.2539 414.486 30.4436C413.599 28.9686 413.164 27.033 413.164 24.8277L417.215 24.9724Z" fill="#858585"/>
<path d="M416.358 13.409C418.215 10.5462 420.895 8.54419 423.97 8.54419C425.75 8.54419 427.52 9.0711 429.368 10.5802C431.389 12.2297 433.544 14.9475 436.232 19.4248L437.196 21.0311C439.523 24.9074 440.846 26.9016 441.621 27.842C442.617 29.0496 443.315 29.4096 444.222 29.4096C446.521 29.4096 447.095 27.2967 447.095 24.8786L450.669 24.7664C450.669 27.2942 450.17 29.1514 449.323 30.6187C448.504 32.0376 446.907 33.4554 444.222 33.4554C442.552 33.4554 441.073 33.0928 439.438 31.5498C438.181 30.3656 436.711 28.2619 435.58 26.3707L432.216 20.7521C430.529 17.9324 428.98 15.8299 428.084 14.8778C427.121 13.8538 425.881 12.6174 423.904 12.6174C422.304 12.6174 420.945 13.7404 419.808 15.4581L416.358 13.409Z" fill="#858585"/>
<path d="M423.904 12.6174C422.304 12.6174 420.945 13.7404 419.807 15.4581C418.199 17.8852 417.215 21.5005 417.215 24.9724C417.215 26.4045 417.529 27.5039 417.94 28.169L414.486 30.4437C413.599 28.9687 413.164 27.0331 413.164 24.8277C413.164 20.8172 414.264 16.6371 416.358 13.409C418.215 10.5462 420.895 8.54419 423.969 8.54419L423.904 12.6174Z" fill="#858585"/>
</g>
<path d="M504.692 27.8344H499.747C497.872 27.8344 497.455 26.6418 497.766 25.6671L497.735 25.7644C497.504 26.6068 497.796 27.0328 498.056 27.5328C498.912 29.1748 501.599 34.1008 501.599 34.1008C501.936 34.6903 502.399 35.0152 503.165 35.0152C504.673 35.0152 507.095 33.4568 507.095 33.4568L516.136 27.8324H504.692V27.8344Z" fill="#858585"/>
<path d="M515.587 7.74542C515.517 7.58005 515.216 7.0003 514.379 6.98473C514.389 6.98473 514.342 6.98279 514.342 6.98279H506.504C505.683 6.98279 505.371 7.5178 505.307 7.64814C505.307 7.64814 505.583 7.05088 506.502 7.05088H506.521C507.383 7.05088 507.694 7.78044 507.778 7.96137C507.788 7.98082 508.902 10.6247 510.434 14.2511C513.807 22.2451 519.2 35.0172 519.2 35.0172H527.104C527.102 35.0172 515.659 7.91273 515.587 7.74542Z" fill="#858585"/>
<path d="M505.103 8.14048L498.037 24.9903C497.651 26.035 497.898 27.3268 499.789 27.3268H504.904L510.155 14.9049C508.624 11.2785 507.513 8.64242 507.503 8.61907C507.34 8.23192 507.077 7.42065 506.198 7.42065C505.441 7.42065 505.182 7.95372 505.103 8.14048ZM549.409 27.784H546.395L544.75 23.8678H537.077L535.405 27.784H532.487L539.627 11.44H542.269L549.409 27.784ZM540.901 14.8485L538.119 21.3425H543.707L540.901 14.8485ZM575.72 27.784H572.844V14.1987H567.697V11.5548H581.097L579.992 14.1968H575.72V27.784ZM630.312 14.1987H621.623V18.327H627.189V20.8775H621.623V25.1907H630.316V27.784H618.75V11.5548H630.312V14.1987ZM650.691 27.784H647.969V11.5548H650.691V27.784ZM639.127 13.8972C637.469 13.8972 636.061 14.3972 636.053 15.5002C636.045 16.7881 636.853 17.2356 639.905 18.2278C643.278 19.3387 645.07 20.4651 645.053 23.2102C645.033 26.3016 642.644 28.0661 639.152 28.0661C636.681 28.0661 634.467 27.2646 632.779 25.7802L633.829 23.2355C635.36 24.5195 637.22 25.43 639.228 25.4397C640.981 25.4475 642.232 24.5934 642.232 23.3269C642.232 22.2686 641.621 21.5643 638.66 20.6266C635.263 19.5138 633.213 18.3523 633.228 15.5858C633.249 12.8349 635.829 11.2708 639.074 11.2883C642.319 11.3038 644.146 12.4886 644.422 12.6501L643.405 14.9652C642.74 14.6034 641.286 13.8972 639.127 13.8972ZM654.195 19.4107L661.461 11.5548H657.98L650.691 19.4107L658.7 27.786H662.227L654.195 19.4107ZM589.887 11.2766C585.253 11.2766 581.494 15.0353 581.494 19.6694C581.494 24.3055 585.251 28.0642 589.887 28.0642C594.523 28.0642 598.281 24.3074 598.281 19.6694C598.281 15.0353 594.521 11.2766 589.887 11.2766ZM589.887 25.4455C586.698 25.4455 584.369 22.86 584.369 19.6714C584.369 16.4827 586.696 13.8972 589.887 13.8972C593.075 13.8972 595.406 16.4827 595.406 19.6714C595.406 22.86 593.075 25.4455 589.887 25.4455ZM607.441 11.5548H601.285V27.784L607.441 27.7821C612.075 27.7821 615.832 24.2821 615.832 19.648C615.832 15.0119 612.075 11.5548 607.441 11.5548ZM607.441 25.1868L604.163 25.1907V14.2007H607.454C610.643 14.2007 612.958 16.4594 612.958 19.648C612.958 22.8366 610.627 25.1868 607.441 25.1868ZM564.562 20.5935C564.562 25.4319 561.724 28.0408 557.605 28.0408C553.489 28.0408 550.65 25.4319 550.65 20.5935V11.5548H553.526V20.9359C553.526 23.7744 555.191 25.4397 557.607 25.4397C560.022 25.4397 561.689 23.7724 561.689 20.9359V11.5548H564.562V20.5935ZM665.741 26.6984C665.741 26.1012 665.255 25.6148 664.657 25.6148C664.064 25.6148 663.578 26.1012 663.578 26.6984C663.578 27.2957 664.064 27.7801 664.657 27.7801C665.255 27.7801 665.741 27.2957 665.741 26.6984ZM665.579 26.6984C665.579 27.2412 665.188 27.6303 664.657 27.6303C664.132 27.6303 663.737 27.2412 663.737 26.6984C663.737 26.1576 664.132 25.7665 664.657 25.7665C665.188 25.7665 665.579 26.1576 665.579 26.6984Z" fill="#858585"/>
<path d="M665.126 27.2507L664.865 26.883C664.819 26.8169 664.786 26.7741 664.735 26.7352C664.922 26.7118 665.033 26.6087 665.033 26.4453C665.033 26.278 664.916 26.1301 664.69 26.1301H664.323V27.2507H664.486V26.7488C664.572 26.7488 664.607 26.776 664.663 26.8577L664.933 27.2507H665.126ZM664.858 26.4453C664.858 26.6048 664.725 26.6223 664.597 26.6223H664.484V26.2683H664.649C664.803 26.2683 664.858 26.3422 664.858 26.4453Z" fill="#858585"/>
<path d="M731.77 33.6404C730.274 35.0907 728.64 34.8617 727.068 34.1747C725.404 33.4725 723.877 33.4419 722.122 34.1747C719.923 35.1212 718.763 34.8464 717.45 33.6404C710 25.9615 711.099 14.2675 719.557 13.84C721.618 13.9469 723.053 14.9697 724.259 15.0613C726.06 14.6949 727.786 13.6416 729.709 13.779C732.014 13.9622 733.755 14.8781 734.9 16.5269C730.137 19.3817 731.266 25.6561 735.632 27.4118C734.762 29.7017 733.633 31.9764 731.755 33.6557L731.77 33.6404ZM724.106 13.7484C723.877 10.344 726.641 7.53505 729.816 7.26025C730.259 11.199 726.244 14.1301 724.106 13.7484Z" fill="#858585"/>
<g clip-path="url(#clip4_119_377)">
<path d="M819.163 22.2583C819.163 26.3174 815.987 29.3086 812.09 29.3086C808.193 29.3086 805.018 26.3174 805.018 22.2583C805.018 18.1705 808.193 15.208 812.09 15.208C815.987 15.208 819.163 18.1705 819.163 22.2583ZM816.067 22.2583C816.067 19.7217 814.227 17.9862 812.09 17.9862C809.954 17.9862 808.114 19.7217 808.114 22.2583C808.114 24.7694 809.954 26.5304 812.09 26.5304C814.227 26.5304 816.067 24.7663 816.067 22.2583Z" fill="#858585"/>
<path d="M834.421 22.2583C834.421 26.3174 831.245 29.3086 827.348 29.3086C823.451 29.3086 820.276 26.3174 820.276 22.2583C820.276 18.1737 823.451 15.208 827.348 15.208C831.245 15.208 834.421 18.1705 834.421 22.2583ZM831.325 22.2583C831.325 19.7217 829.484 17.9862 827.348 17.9862C825.212 17.9862 823.372 19.7217 823.372 22.2583C823.372 24.7694 825.212 26.5304 827.348 26.5304C829.484 26.5304 831.325 24.7663 831.325 22.2583Z" fill="#858585"/>
<path d="M849.043 15.6339V28.2914C849.043 33.4981 845.972 35.6246 842.342 35.6246C838.925 35.6246 836.868 33.3391 836.093 31.4701L838.788 30.348C839.268 31.4955 840.444 32.8496 842.339 32.8496C844.663 32.8496 846.103 31.416 846.103 28.7173V27.7033H845.994C845.302 28.5584 843.966 29.3054 842.282 29.3054C838.757 29.3054 835.527 26.2348 835.527 22.2837C835.527 18.304 838.757 15.208 842.282 15.208C843.963 15.208 845.298 15.955 845.994 16.7846H846.103V15.6371H849.043V15.6339ZM846.322 22.2837C846.322 19.8012 844.666 17.9862 842.558 17.9862C840.422 17.9862 838.633 19.8012 838.633 22.2837C838.633 24.7408 840.422 26.5304 842.558 26.5304C844.666 26.5304 846.322 24.7408 846.322 22.2837Z" fill="#858585"/>
<path d="M853.89 8.21497V28.8763H850.87V8.21497H853.89Z" fill="#858585"/>
<path d="M865.658 24.5787L868.061 26.1808C867.285 27.3283 865.416 29.3054 862.187 29.3054C858.181 29.3054 855.19 26.2094 855.19 22.2551C855.19 18.0625 858.207 15.2048 861.84 15.2048C865.499 15.2048 867.288 18.1165 867.873 19.6899L868.194 20.491L858.769 24.3944C859.491 25.8089 860.613 26.5304 862.187 26.5304C863.763 26.5304 864.857 25.7548 865.658 24.5787ZM858.261 22.0421L864.561 19.4261C864.215 18.5456 863.172 17.9321 861.945 17.9321C860.372 17.9321 858.181 19.3212 858.261 22.0421Z" fill="#858585"/>
<path d="M793.587 20.4241V17.433H803.667C803.765 17.9543 803.816 18.5709 803.816 19.2385C803.816 21.4826 803.203 24.2576 801.226 26.2347C799.303 28.2373 796.846 29.3053 793.591 29.3053C787.557 29.3053 782.484 24.3911 782.484 18.358C782.484 12.3249 787.557 7.41064 793.591 7.41064C796.928 7.41064 799.306 8.72025 801.092 10.4272L798.982 12.5378C797.701 11.3363 795.965 10.4018 793.587 10.4018C789.182 10.4018 785.736 13.9523 785.736 18.358C785.736 22.7636 789.182 26.3142 793.587 26.3142C796.445 26.3142 798.072 25.1667 799.115 24.1241C799.961 23.2785 800.517 22.0707 800.736 20.4209L793.587 20.4241Z" fill="#858585"/>
</g>
<g clip-path="url(#clip5_119_377)">
<path fill-rule="evenodd" clip-rule="evenodd" d="M908.546 0.381226H949.784V41.6187H908.546V0.381226Z" fill="#858585"/>
<path fill-rule="evenodd" clip-rule="evenodd" d="M933.379 18.4865C933.198 18.8245 932.8 18.9092 932.125 18.9092H930.738V15.062C930.738 14.5926 930.835 14.5447 931.389 14.5447L931.8 14.5325V13.8935H928.363V14.5325H928.665C929.148 14.5325 929.437 14.5806 929.437 15.0622L929.449 18.415C929.449 18.897 929.231 18.9454 928.738 18.9454H928.412V19.5842H934.283V17.2897C934.283 17.2891 933.725 17.2897 933.62 17.2897C933.62 17.8438 933.548 18.1852 933.379 18.4865ZM925.884 18.9092H924.051V16.9307H924.473C925.185 16.9307 925.282 17.0638 925.33 18.0406H925.993V15.1595H925.342C925.282 16.0151 925.186 16.2568 924.462 16.2568H924.052V14.5687H925.644C926.801 14.5687 927.114 14.7734 927.151 16.0996H927.801V13.8933H919.343V14.5323H919.74C920.065 14.5323 920.222 14.6046 920.222 14.7854C920.222 14.8816 920.222 15.0265 920.149 15.2197L919.053 18.1005C919.053 18.1005 919.051 18.0971 918.984 18.0971C918.484 16.6562 917.799 15.0021 917.799 15.0021C917.767 14.9259 917.75 14.8438 917.751 14.761C917.751 14.5922 917.859 14.5321 918.148 14.5321H918.631V13.893H915.58V14.5321H915.966C916.46 14.5321 916.617 14.773 916.665 15.2432L915.532 18.0888C915.533 18.0888 915.508 18.0896 915.452 18.0804C914.927 16.5399 914.267 14.9783 914.267 14.9783C914.23 14.8938 914.242 14.8333 914.242 14.7971C914.23 14.6164 914.375 14.5319 914.701 14.5319H914.977V13.8928H912.084V14.5319H912.217C912.639 14.5319 912.928 14.8093 913.121 15.3037L914.821 19.5833H915.882L917.124 16.4246L918.426 19.5833H919.45L921.079 15.231C921.271 14.7124 921.428 14.5316 921.898 14.5316H921.99C922.484 14.5316 922.763 14.5798 922.763 15.05V18.4139C922.763 18.8842 922.484 18.9319 921.99 18.9319L921.653 18.9445V19.5833H927.911V17.2925H927.26C927.171 18.4223 926.921 18.9092 925.884 18.9092ZM939.753 17.2897C939.753 17.844 939.681 18.1855 939.512 18.4867C939.331 18.8247 938.934 18.9094 938.259 18.9094H936.871V15.062C936.871 14.5926 936.969 14.5447 937.523 14.5447L937.933 14.5325V13.8935H934.497V14.5325H934.858C935.341 14.5325 935.57 14.5806 935.57 15.0622L935.582 18.415C935.582 18.897 935.364 18.9454 934.87 18.9454H934.784V19.5842H940.417V17.2897C940.417 17.2891 939.847 17.2897 939.753 17.2897ZM946.246 17.92C946.246 19.2222 945.221 19.6926 943.701 19.6926C942.786 19.6926 941.905 19.1736 941.713 18.9937L941.52 19.588H940.941V17.2959H941.605C941.785 18.3902 942.518 18.8628 943.565 18.9092C944.461 18.9501 945.102 18.7105 945.172 18.089C945.255 17.3702 944.463 17.4136 943.798 17.2938L942.822 17.1124C941.364 16.8588 940.894 16.4376 940.857 15.4852C940.82 14.448 941.761 13.773 943.026 13.7606C943.642 13.7606 944.438 13.8569 945.054 14.3517L945.342 13.8813H945.849V15.869H945.209C945.069 14.765 943.979 14.4287 943.051 14.4529C942.376 14.4769 941.93 14.8624 941.93 15.3211C941.93 15.7477 942.353 15.8046 942.89 15.8987L944.084 16.1039C945.301 16.3088 946.246 16.5574 946.246 17.9082V17.92H946.246ZM918.942 24.6262C918.942 24.1883 918.87 23.8026 918.714 23.4881C918.521 23.1514 918.123 23.1028 917.448 23.1028H916.025V24.8034H916.471C917.195 24.8034 917.303 24.6701 917.303 23.7902H917.832V26.6357L917.291 26.6231C917.279 25.6713 917.183 25.479 916.471 25.479H916.025V26.9607C916.025 27.4316 916.097 27.4797 916.592 27.4797H917.255V28.1181H913.746V27.4797L914.072 27.4675C914.565 27.4675 914.735 27.4198 914.735 26.9489V23.5856C914.735 23.1152 914.565 23.0666 914.072 23.0666H913.746V22.4282H919.593V24.626L918.942 24.6262ZM932.098 26.5029H931.556C931.58 27.1789 931.556 27.4318 931.206 27.4555C931.037 27.4677 930.905 27.3109 930.88 26.9738C930.88 26.8531 930.893 26.6958 930.88 26.6231C930.82 25.8514 930.688 25.4899 929.675 25.2488C930.76 25.1037 931.399 24.5982 931.399 23.7788C931.399 22.8617 930.724 22.4285 929.265 22.4285H925.346V23.0668H925.817C926.311 23.0668 926.384 23.1154 926.384 23.5859V26.9491C926.384 27.3633 926.116 27.481 925.791 27.4797H925.376C925.063 27.4754 924.882 27.3526 924.716 26.926L922.895 22.4285H921.5L919.594 26.926C919.426 27.3229 919.293 27.481 918.847 27.481H918.588V28.1185H921.555V27.481H920.964C920.661 27.481 920.505 27.4677 920.505 27.2876C920.505 27.2149 920.529 27.131 920.578 27.0223L920.867 26.3103H923.085L923.327 26.974C923.374 27.0822 923.41 27.1791 923.41 27.2519C923.41 27.444 923.254 27.4812 922.928 27.4812H922.313V28.1187H928.759V27.4799H928.24C927.746 27.4799 927.674 27.4318 927.674 26.9609V25.4304H928.252C929.241 25.4304 929.543 25.623 929.578 26.5758L929.603 27.239C929.639 28.0229 930.145 28.2403 930.929 28.2403C931.616 28.2403 932.098 27.8304 932.098 26.7923H932.111C932.11 26.6958 932.11 26.5998 932.098 26.5029ZM921.144 25.6354L922.001 23.4534L922.868 25.6354H921.144ZM928.916 24.7901L927.674 24.8034V23.0793H928.891C929.699 23.0793 930.085 23.2718 930.085 23.9354V23.9472C930.085 24.5381 929.711 24.7901 928.916 24.7901ZM937.169 24.2514C936.896 23.3978 936.323 23.0003 935.383 23.0003C934.454 23.0003 933.72 23.76 933.732 25.2073C933.732 26.6772 934.323 27.4737 935.383 27.4857C936.155 27.4857 936.842 27.1 936.842 26.4481V26.1347C936.842 25.7494 936.746 25.7494 936.203 25.7494H935.919V25.098H938.563V25.7494H938.346C937.936 25.7494 937.876 25.713 937.876 26.1952V28.0997H937.409L937.107 27.6301C936.589 28.04 935.841 28.233 935.179 28.233C934.395 28.233 933.732 27.9559 933.201 27.4254C932.646 26.8584 932.321 26.0992 932.332 25.2071C932.332 24.3263 932.622 23.6267 933.189 23.0602C933.683 22.578 934.431 22.3001 935.202 22.3136C935.841 22.3136 936.588 22.4819 937.012 22.9278L937.3 22.336H937.755V24.2465L937.169 24.2514ZM942.371 28.218C940.481 28.218 939.012 27.0375 939.012 25.2443C939.012 23.4618 940.481 22.2939 942.36 22.2939C944.25 22.2939 945.683 23.4618 945.683 25.2561C945.683 27.0377 944.25 28.218 942.371 28.218ZM944.278 25.2738C944.278 23.244 942.907 22.992 942.348 22.992C941.239 22.992 940.397 23.7745 940.397 25.2676C940.397 26.7607 941.239 27.5552 942.348 27.5552C942.901 27.5554 944.278 27.2842 944.278 25.2738Z" fill="white"/>
</g>
<defs>
<clipPath id="clip0_119_377">
<rect width="51.4704" height="21.2058" fill="white" transform="translate(0 10.3971)"/>
</clipPath>
<clipPath id="clip1_119_377">
<rect width="51.4704" height="30.1616" fill="white" transform="translate(91.4703 5.91919)"/>
</clipPath>
<clipPath id="clip2_119_377">
<rect width="71.9549" height="26.0333" fill="white" transform="translate(182.941 7.9834)"/>
</clipPath>
<clipPath id="clip3_119_377">
<rect width="51.4704" height="24.9117" fill="white" transform="translate(406.181 8.54419)"/>
</clipPath>
<clipPath id="clip4_119_377">
<rect width="86.1665" height="36.6017" fill="white" transform="translate(782.38 2.6991)"/>
</clipPath>
<clipPath id="clip5_119_377">
<rect width="41.2375" height="41.2375" fill="white" transform="translate(908.547 0.381226)"/>
</clipPath>
</defs>
</svg>
