<svg width="96" height="96" viewBox="0 0 96 96" fill="none" xmlns="http://www.w3.org/2000/svg">
<rect x="1" y="28" width="93" height="18" fill="#EDFF6C"/>
<path d="M21.6656 46.1829H14.5644V90.2784H21.6656M12.5162 46.1829H1.40625V28.7126H17.0297M59.5243 46.1829H63.9049M68.4184 28.7126H59.5738M60 28.7126L51.2888 28.7126M46.7753 46.1829H63" stroke="black" stroke-width="2" stroke-miterlimit="10" stroke-linecap="round" stroke-linejoin="round"/>
<path d="M68.4184 28.7126H85.5478H94.5938V46.1829H81.0343H63.9049M34.1591 28.7128H51.2887M29.6456 46.1829H46.7752M1.40625 90.2784H94.5938M81.4356 76.2949V46.1829H74.3344M74.3344 90.2784H81.4356V73.5" stroke="black" stroke-width="2" stroke-miterlimit="10" stroke-linecap="round" stroke-linejoin="round"/>
<path d="M28.5 28.7126H17.0296M12.5161 46.1829H29.6456M34.1591 28.7126H27.5688M53.1496 62.6627L45.6755 65.3692C45.1723 65.5515 44.7375 65.8843 44.4302 66.3224C44.1229 66.7605 43.958 67.2827 43.958 67.8178V77.1956C43.958 84.4209 49.8153 90.2784 57.0408 90.2784C64.1981 90.2784 70.0094 84.5301 70.1184 77.3987M60.8647 62.6383L68.4061 65.3692C68.9093 65.5515 69.3441 65.8843 69.6514 66.3224C69.9587 66.7605 70.1236 67.2827 70.1236 67.8178V71.961V77.3987M57 57.5196V16.5311H59.3367" stroke="black" stroke-width="2" stroke-miterlimit="10" stroke-linecap="round" stroke-linejoin="round"/>
<path d="M55.375 11.8573H58.7065M57.8239 66.3713H56.2575C55.6458 66.3712 55.0544 66.1512 54.5914 65.7514C54.1284 65.3515 53.8247 64.7985 53.7357 64.1933L53.0736 59.6918C52.9358 58.7546 53.662 57.9137 54.6092 57.9137H59.4724C60.4195 57.9137 61.1458 58.7546 61.008 59.6918L60.346 64.1933C60.2568 64.7985 59.953 65.3515 59.49 65.7513C59.027 66.1512 58.4357 66.3712 57.8239 66.3713ZM49.5405 7.98469V12.2933C49.5405 12.6621 49.6307 13.0253 49.803 13.3513L50.8476 15.3263C51.04 15.69 51.3279 15.9944 51.6804 16.2067C52.0329 16.4191 52.4365 16.5313 52.848 16.5313H61.2334C61.6449 16.5313 62.0486 16.4191 62.4011 16.2067C62.7535 15.9944 63.0415 15.69 63.2338 15.3263L64.2784 13.3513C64.4509 13.0253 64.5409 12.6621 64.5409 12.2933V7.98469C64.5409 6.73482 63.5276 5.72157 62.278 5.72157H51.8036C50.5538 5.72157 49.5405 6.73482 49.5405 7.98469Z" stroke="black" stroke-width="2" stroke-miterlimit="10" stroke-linecap="round" stroke-linejoin="round"/>
<path d="M2 34H7.62498" stroke="#0B0C05" stroke-width="2" stroke-miterlimit="10" stroke-linecap="round" stroke-linejoin="round"/>
<path d="M2 42H7.62498" stroke="#0B0C05" stroke-width="2" stroke-miterlimit="10" stroke-linecap="round" stroke-linejoin="round"/>
<path d="M89 38H94.625" stroke="#0B0C05" stroke-width="2" stroke-miterlimit="10" stroke-linecap="round" stroke-linejoin="round"/>
</svg>
