<svg width="273" height="41" viewBox="0 0 273 41" fill="none" xmlns="http://www.w3.org/2000/svg">
<rect x="0.5" y="0.5" width="272" height="40" rx="7.5" fill="white"/>
<rect x="0.5" y="0.5" width="272" height="40" rx="7.5" stroke="#ECECEC"/>
<path d="M16 33.2886H41.5509V7.73766H16V33.2886Z" fill="black"/>
<path d="M67.4261 18.5H66.1932C66.1203 18.1454 65.9927 17.8338 65.8104 17.5653C65.6314 17.2969 65.4126 17.0715 65.1541 16.8892C64.8989 16.7036 64.6155 16.5644 64.304 16.4716C63.9924 16.3788 63.6676 16.3324 63.3295 16.3324C62.7131 16.3324 62.1546 16.4882 61.6541 16.7997C61.157 17.1113 60.7609 17.5703 60.4659 18.1768C60.1742 18.7834 60.0284 19.5275 60.0284 20.4091C60.0284 21.2907 60.1742 22.0348 60.4659 22.6413C60.7609 23.2479 61.157 23.7069 61.6541 24.0185C62.1546 24.33 62.7131 24.4858 63.3295 24.4858C63.6676 24.4858 63.9924 24.4394 64.304 24.3466C64.6155 24.2538 64.8989 24.1162 65.1541 23.9339C65.4126 23.7483 65.6314 23.5213 65.8104 23.2528C65.9927 22.9811 66.1203 22.6695 66.1932 22.3182H67.4261C67.3333 22.8385 67.1643 23.3042 66.919 23.7152C66.6738 24.1262 66.3688 24.4759 66.0043 24.7642C65.6397 25.0492 65.2304 25.2663 64.7763 25.4155C64.3255 25.5646 63.8433 25.6392 63.3295 25.6392C62.4612 25.6392 61.6889 25.4271 61.0128 25.0028C60.3366 24.5786 59.8047 23.9754 59.4169 23.1932C59.0291 22.411 58.8352 21.483 58.8352 20.4091C58.8352 19.3352 59.0291 18.4072 59.4169 17.625C59.8047 16.8428 60.3366 16.2396 61.0128 15.8153C61.6889 15.3911 62.4612 15.179 63.3295 15.179C63.8433 15.179 64.3255 15.2536 64.7763 15.4027C65.2304 15.5518 65.6397 15.7706 66.0043 16.0589C66.3688 16.344 66.6738 16.692 66.919 17.103C67.1643 17.5107 67.3333 17.9763 67.4261 18.5ZM70.4327 15.3182V25.5H69.2594V15.3182H70.4327ZM75.6839 25.6591C74.9946 25.6591 74.3897 25.495 73.8693 25.1669C73.3523 24.8388 72.9479 24.3797 72.6562 23.7898C72.3679 23.1998 72.2237 22.5104 72.2237 21.7216C72.2237 20.9261 72.3679 20.2318 72.6562 19.6385C72.9479 19.0452 73.3523 18.5845 73.8693 18.2564C74.3897 17.9283 74.9946 17.7642 75.6839 17.7642C76.3733 17.7642 76.9766 17.9283 77.4936 18.2564C78.014 18.5845 78.4183 19.0452 78.7067 19.6385C78.9983 20.2318 79.1442 20.9261 79.1442 21.7216C79.1442 22.5104 78.9983 23.1998 78.7067 23.7898C78.4183 24.3797 78.014 24.8388 77.4936 25.1669C76.9766 25.495 76.3733 25.6591 75.6839 25.6591ZM75.6839 24.6051C76.2076 24.6051 76.6385 24.4709 76.9766 24.2024C77.3146 23.9339 77.5649 23.581 77.7273 23.1435C77.8897 22.706 77.9709 22.232 77.9709 21.7216C77.9709 21.2112 77.8897 20.7356 77.7273 20.2947C77.5649 19.8539 77.3146 19.4976 76.9766 19.2259C76.6385 18.9541 76.2076 18.8182 75.6839 18.8182C75.1603 18.8182 74.7294 18.9541 74.3913 19.2259C74.0533 19.4976 73.803 19.8539 73.6406 20.2947C73.4782 20.7356 73.397 21.2112 73.397 21.7216C73.397 22.232 73.4782 22.706 73.6406 23.1435C73.803 23.581 74.0533 23.9339 74.3913 24.2024C74.7294 24.4709 75.1603 24.6051 75.6839 24.6051ZM85.7477 22.3778V17.8636H86.921V25.5H85.7477V24.2074H85.6681C85.4892 24.5952 85.2108 24.925 84.8329 25.1967C84.4551 25.4652 83.9778 25.5994 83.4011 25.5994C82.9238 25.5994 82.4996 25.495 82.1284 25.2862C81.7572 25.0741 81.4655 24.7559 81.2534 24.3317C81.0413 23.9041 80.9352 23.3655 80.9352 22.7159V17.8636H82.1085V22.6364C82.1085 23.1932 82.2643 23.6373 82.5758 23.9688C82.8907 24.3002 83.2917 24.4659 83.7789 24.4659C84.0706 24.4659 84.3672 24.3913 84.6689 24.2422C84.9738 24.093 85.229 23.8643 85.4345 23.5561C85.6433 23.2479 85.7477 22.8551 85.7477 22.3778ZM91.9535 25.6591C91.3171 25.6591 90.7553 25.4983 90.2681 25.1768C89.7809 24.852 89.3997 24.3946 89.1246 23.8047C88.8496 23.2114 88.712 22.5104 88.712 21.7017C88.712 20.8996 88.8496 20.2036 89.1246 19.6136C89.3997 19.0237 89.7826 18.5679 90.2731 18.2464C90.7636 17.925 91.3304 17.7642 91.9734 17.7642C92.4705 17.7642 92.8633 17.8471 93.1516 18.0128C93.4433 18.1752 93.6654 18.3608 93.8178 18.5696C93.9736 18.7751 94.0946 18.9441 94.1808 19.0767H94.2802V15.3182H95.4535V25.5H94.32V24.3267H94.1808C94.0946 24.4659 93.9719 24.6416 93.8129 24.8537C93.6538 25.0625 93.4267 25.2498 93.1317 25.4155C92.8368 25.5779 92.444 25.6591 91.9535 25.6591ZM92.1126 24.6051C92.5832 24.6051 92.9809 24.4825 93.3058 24.2372C93.6306 23.9886 93.8775 23.6456 94.0465 23.2081C94.2156 22.7673 94.3001 22.2585 94.3001 21.6818C94.3001 21.1117 94.2172 20.6129 94.0515 20.1854C93.8858 19.7545 93.6405 19.4197 93.3157 19.1811C92.9909 18.9392 92.5898 18.8182 92.1126 18.8182C91.6154 18.8182 91.2011 18.9458 90.8697 19.201C90.5415 19.4529 90.2946 19.7959 90.1289 20.2301C89.9665 20.661 89.8853 21.1449 89.8853 21.6818C89.8853 22.2254 89.9682 22.7192 90.1339 23.1634C90.3029 23.6042 90.5515 23.9555 90.8796 24.2173C91.2111 24.4759 91.622 24.6051 92.1126 24.6051ZM102.279 25.5H100.987L104.725 15.3182H105.998L109.737 25.5H108.444L105.402 16.929H105.322L102.279 25.5ZM102.757 21.5227H107.967V22.6165H102.757V21.5227ZM111.164 25.5V17.8636H112.297V19.017H112.377C112.516 18.6392 112.768 18.3326 113.132 18.0973C113.497 17.862 113.908 17.7443 114.365 17.7443C114.452 17.7443 114.559 17.746 114.689 17.7493C114.818 17.7526 114.916 17.7576 114.982 17.7642V18.9574C114.942 18.9474 114.851 18.9325 114.708 18.9126C114.569 18.8894 114.422 18.8778 114.266 18.8778C113.895 18.8778 113.563 18.9557 113.272 19.1115C112.983 19.264 112.755 19.4761 112.586 19.7479C112.42 20.0163 112.337 20.3229 112.337 20.6676V25.5H111.164ZM119.243 25.6591C118.527 25.6591 117.91 25.4901 117.393 25.152C116.876 24.8139 116.478 24.3482 116.2 23.755C115.922 23.1617 115.782 22.4839 115.782 21.7216C115.782 20.946 115.925 20.2616 116.21 19.6683C116.498 19.0717 116.899 18.6061 117.413 18.2713C117.93 17.9332 118.533 17.7642 119.223 17.7642C119.76 17.7642 120.243 17.8636 120.674 18.0625C121.105 18.2614 121.458 18.5398 121.733 18.8977C122.008 19.2557 122.179 19.6733 122.245 20.1506H121.072C120.983 19.8026 120.784 19.4943 120.475 19.2259C120.171 18.9541 119.76 18.8182 119.243 18.8182C118.785 18.8182 118.384 18.9375 118.039 19.1761C117.698 19.4115 117.431 19.7446 117.239 20.1754C117.05 20.603 116.956 21.1051 116.956 21.6818C116.956 22.2718 117.048 22.7855 117.234 23.223C117.423 23.6605 117.688 24.0002 118.029 24.2422C118.374 24.4841 118.779 24.6051 119.243 24.6051C119.547 24.6051 119.824 24.5521 120.073 24.446C120.321 24.34 120.532 24.1875 120.704 23.9886C120.877 23.7898 120.999 23.5511 121.072 23.2727H122.245C122.179 23.7235 122.015 24.1295 121.753 24.4908C121.495 24.8487 121.152 25.1338 120.724 25.3459C120.3 25.5547 119.806 25.6591 119.243 25.6591ZM125.134 20.9062V25.5H123.961V15.3182H125.134V19.0568H125.233C125.412 18.6624 125.681 18.3492 126.039 18.1172C126.4 17.8819 126.881 17.7642 127.48 17.7642C128.001 17.7642 128.457 17.8686 128.848 18.0774C129.239 18.2829 129.542 18.5994 129.757 19.027C129.976 19.4512 130.086 19.9915 130.086 20.6477V25.5H128.912V20.7273C128.912 20.1207 128.755 19.6518 128.44 19.3203C128.128 18.9856 127.696 18.8182 127.142 18.8182C126.758 18.8182 126.413 18.8994 126.108 19.0618C125.807 19.2242 125.568 19.4612 125.392 19.7727C125.22 20.0843 125.134 20.4621 125.134 20.9062ZM132.232 25.5V17.8636H133.405V25.5H132.232ZM132.829 16.5909C132.6 16.5909 132.403 16.513 132.237 16.3572C132.075 16.2015 131.993 16.0142 131.993 15.7955C131.993 15.5767 132.075 15.3894 132.237 15.2337C132.403 15.0779 132.6 15 132.829 15C133.057 15 133.253 15.0779 133.415 15.2337C133.581 15.3894 133.664 15.5767 133.664 15.7955C133.664 16.0142 133.581 16.2015 133.415 16.3572C133.253 16.513 133.057 16.5909 132.829 16.5909ZM138.875 17.8636V18.858H134.918V17.8636H138.875ZM136.071 16.0341H137.245V23.3125C137.245 23.6439 137.293 23.8925 137.389 24.0582C137.488 24.2206 137.614 24.33 137.767 24.3864C137.922 24.4394 138.087 24.4659 138.259 24.4659C138.388 24.4659 138.494 24.4593 138.577 24.446C138.66 24.4295 138.726 24.4162 138.776 24.4062L139.015 25.4602C138.935 25.4901 138.824 25.5199 138.681 25.5497C138.539 25.5829 138.358 25.5994 138.14 25.5994C137.808 25.5994 137.483 25.5282 137.165 25.3857C136.85 25.2431 136.588 25.026 136.38 24.7344C136.174 24.4427 136.071 24.0748 136.071 23.6307V16.0341ZM143.76 25.6591C143.024 25.6591 142.389 25.4967 141.856 25.1719C141.326 24.8438 140.916 24.3864 140.628 23.7997C140.343 23.2098 140.2 22.5237 140.2 21.7415C140.2 20.9593 140.343 20.2699 140.628 19.6733C140.916 19.0734 141.317 18.6061 141.831 18.2713C142.348 17.9332 142.951 17.7642 143.641 17.7642C144.038 17.7642 144.431 17.8305 144.819 17.9631C145.207 18.0956 145.56 18.3111 145.878 18.6094C146.196 18.9044 146.45 19.2955 146.638 19.7827C146.827 20.2699 146.922 20.8698 146.922 21.5824V22.0795H141.036V21.0653H145.729C145.729 20.6345 145.643 20.25 145.47 19.9119C145.301 19.5739 145.059 19.3071 144.744 19.1115C144.433 18.916 144.065 18.8182 143.641 18.8182C143.173 18.8182 142.769 18.9342 142.428 19.1662C142.089 19.3949 141.829 19.6932 141.647 20.0611C141.465 20.429 141.374 20.8234 141.374 21.2443V21.9205C141.374 22.4972 141.473 22.986 141.672 23.3871C141.874 23.7848 142.154 24.0881 142.512 24.2969C142.87 24.5024 143.286 24.6051 143.76 24.6051C144.068 24.6051 144.347 24.562 144.595 24.4759C144.847 24.3864 145.064 24.2538 145.246 24.0781C145.429 23.8991 145.57 23.6771 145.669 23.4119L146.803 23.7301C146.683 24.1146 146.483 24.4527 146.201 24.7443C145.919 25.0327 145.571 25.258 145.157 25.4205C144.743 25.5795 144.277 25.6591 143.76 25.6591ZM151.809 25.6591C151.093 25.6591 150.477 25.4901 149.96 25.152C149.442 24.8139 149.045 24.3482 148.766 23.755C148.488 23.1617 148.349 22.4839 148.349 21.7216C148.349 20.946 148.491 20.2616 148.776 19.6683C149.065 19.0717 149.466 18.6061 149.979 18.2713C150.496 17.9332 151.1 17.7642 151.789 17.7642C152.326 17.7642 152.81 17.8636 153.241 18.0625C153.672 18.2614 154.025 18.5398 154.3 18.8977C154.575 19.2557 154.746 19.6733 154.812 20.1506H153.638C153.549 19.8026 153.35 19.4943 153.042 19.2259C152.737 18.9541 152.326 18.8182 151.809 18.8182C151.352 18.8182 150.951 18.9375 150.606 19.1761C150.264 19.4115 149.998 19.7446 149.805 20.1754C149.616 20.603 149.522 21.1051 149.522 21.6818C149.522 22.2718 149.615 22.7855 149.8 23.223C149.989 23.6605 150.254 24.0002 150.596 24.2422C150.941 24.4841 151.345 24.6051 151.809 24.6051C152.114 24.6051 152.391 24.5521 152.639 24.446C152.888 24.34 153.098 24.1875 153.271 23.9886C153.443 23.7898 153.566 23.5511 153.638 23.2727H154.812C154.746 23.7235 154.581 24.1295 154.32 24.4908C154.061 24.8487 153.718 25.1338 153.29 25.3459C152.866 25.5547 152.372 25.6591 151.809 25.6591ZM159.848 17.8636V18.858H155.891V17.8636H159.848ZM157.044 16.0341H158.217V23.3125C158.217 23.6439 158.265 23.8925 158.362 24.0582C158.461 24.2206 158.587 24.33 158.739 24.3864C158.895 24.4394 159.059 24.4659 159.232 24.4659C159.361 24.4659 159.467 24.4593 159.55 24.446C159.633 24.4295 159.699 24.4162 159.749 24.4062L159.987 25.4602C159.908 25.4901 159.797 25.5199 159.654 25.5497C159.512 25.5829 159.331 25.5994 159.112 25.5994C158.781 25.5994 158.456 25.5282 158.138 25.3857C157.823 25.2431 157.561 25.026 157.352 24.7344C157.147 24.4427 157.044 24.0748 157.044 23.6307V16.0341ZM166.425 22.3778V17.8636H167.599V25.5H166.425V24.2074H166.346C166.167 24.5952 165.888 24.925 165.511 25.1967C165.133 25.4652 164.656 25.5994 164.079 25.5994C163.602 25.5994 163.177 25.495 162.806 25.2862C162.435 25.0741 162.143 24.7559 161.931 24.3317C161.719 23.9041 161.613 23.3655 161.613 22.7159V17.8636H162.786V22.6364C162.786 23.1932 162.942 23.6373 163.254 23.9688C163.568 24.3002 163.969 24.4659 164.457 24.4659C164.748 24.4659 165.045 24.3913 165.347 24.2422C165.652 24.093 165.907 23.8643 166.112 23.5561C166.321 23.2479 166.425 22.8551 166.425 22.3778ZM169.748 25.5V17.8636H170.881V19.017H170.961C171.1 18.6392 171.352 18.3326 171.716 18.0973C172.081 17.862 172.492 17.7443 172.949 17.7443C173.036 17.7443 173.143 17.746 173.273 17.7493C173.402 17.7526 173.5 17.7576 173.566 17.7642V18.9574C173.526 18.9474 173.435 18.9325 173.292 18.9126C173.153 18.8894 173.006 18.8778 172.85 18.8778C172.479 18.8778 172.147 18.9557 171.856 19.1115C171.567 19.264 171.339 19.4761 171.17 19.7479C171.004 20.0163 170.921 20.3229 170.921 20.6676V25.5H169.748ZM177.926 25.6591C177.19 25.6591 176.555 25.4967 176.022 25.1719C175.492 24.8438 175.082 24.3864 174.794 23.7997C174.509 23.2098 174.366 22.5237 174.366 21.7415C174.366 20.9593 174.509 20.2699 174.794 19.6733C175.082 19.0734 175.483 18.6061 175.997 18.2713C176.514 17.9332 177.117 17.7642 177.807 17.7642C178.204 17.7642 178.597 17.8305 178.985 17.9631C179.373 18.0956 179.726 18.3111 180.044 18.6094C180.362 18.9044 180.616 19.2955 180.805 19.7827C180.993 20.2699 181.088 20.8698 181.088 21.5824V22.0795H175.202V21.0653H179.895C179.895 20.6345 179.809 20.25 179.636 19.9119C179.467 19.5739 179.225 19.3071 178.91 19.1115C178.599 18.916 178.231 18.8182 177.807 18.8182C177.339 18.8182 176.935 18.9342 176.594 19.1662C176.256 19.3949 175.995 19.6932 175.813 20.0611C175.631 20.429 175.54 20.8234 175.54 21.2443V21.9205C175.54 22.4972 175.639 22.986 175.838 23.3871C176.04 23.7848 176.32 24.0881 176.678 24.2969C177.036 24.5024 177.452 24.6051 177.926 24.6051C178.234 24.6051 178.513 24.562 178.761 24.4759C179.013 24.3864 179.23 24.2538 179.412 24.0781C179.595 23.8991 179.736 23.6771 179.835 23.4119L180.969 23.7301C180.849 24.1146 180.649 24.4527 180.367 24.7443C180.085 25.0327 179.737 25.258 179.323 25.4205C178.909 25.5795 178.443 25.6591 177.926 25.6591ZM195.162 18.5H193.93C193.857 18.1454 193.729 17.8338 193.547 17.5653C193.368 17.2969 193.149 17.0715 192.89 16.8892C192.635 16.7036 192.352 16.5644 192.04 16.4716C191.729 16.3788 191.404 16.3324 191.066 16.3324C190.449 16.3324 189.891 16.4882 189.39 16.7997C188.893 17.1113 188.497 17.5703 188.202 18.1768C187.911 18.7834 187.765 19.5275 187.765 20.4091C187.765 21.2907 187.911 22.0348 188.202 22.6413C188.497 23.2479 188.893 23.7069 189.39 24.0185C189.891 24.33 190.449 24.4858 191.066 24.4858C191.404 24.4858 191.729 24.4394 192.04 24.3466C192.352 24.2538 192.635 24.1162 192.89 23.9339C193.149 23.7483 193.368 23.5213 193.547 23.2528C193.729 22.9811 193.857 22.6695 193.93 22.3182H195.162C195.07 22.8385 194.901 23.3042 194.655 23.7152C194.41 24.1262 194.105 24.4759 193.741 24.7642C193.376 25.0492 192.967 25.2663 192.513 25.4155C192.062 25.5646 191.58 25.6392 191.066 25.6392C190.198 25.6392 189.425 25.4271 188.749 25.0028C188.073 24.5786 187.541 23.9754 187.153 23.1932C186.765 22.411 186.572 21.483 186.572 20.4091C186.572 19.3352 186.765 18.4072 187.153 17.625C187.541 16.8428 188.073 16.2396 188.749 15.8153C189.425 15.3911 190.198 15.179 191.066 15.179C191.58 15.179 192.062 15.2536 192.513 15.4027C192.967 15.5518 193.376 15.7706 193.741 16.0589C194.105 16.344 194.41 16.692 194.655 17.103C194.901 17.5107 195.07 17.9763 195.162 18.5ZM200.098 25.6591C199.409 25.6591 198.804 25.495 198.283 25.1669C197.766 24.8388 197.362 24.3797 197.07 23.7898C196.782 23.1998 196.638 22.5104 196.638 21.7216C196.638 20.9261 196.782 20.2318 197.07 19.6385C197.362 19.0452 197.766 18.5845 198.283 18.2564C198.804 17.9283 199.409 17.7642 200.098 17.7642C200.787 17.7642 201.391 17.9283 201.908 18.2564C202.428 18.5845 202.832 19.0452 203.121 19.6385C203.412 20.2318 203.558 20.9261 203.558 21.7216C203.558 22.5104 203.412 23.1998 203.121 23.7898C202.832 24.3797 202.428 24.8388 201.908 25.1669C201.391 25.495 200.787 25.6591 200.098 25.6591ZM200.098 24.6051C200.622 24.6051 201.053 24.4709 201.391 24.2024C201.729 23.9339 201.979 23.581 202.141 23.1435C202.304 22.706 202.385 22.232 202.385 21.7216C202.385 21.2112 202.304 20.7356 202.141 20.2947C201.979 19.8539 201.729 19.4976 201.391 19.2259C201.053 18.9541 200.622 18.8182 200.098 18.8182C199.574 18.8182 199.143 18.9541 198.805 19.2259C198.467 19.4976 198.217 19.8539 198.055 20.2947C197.892 20.7356 197.811 21.2112 197.811 21.7216C197.811 22.232 197.892 22.706 198.055 23.1435C198.217 23.581 198.467 23.9339 198.805 24.2024C199.143 24.4709 199.574 24.6051 200.098 24.6051ZM206.523 20.9062V25.5H205.349V17.8636H206.483V19.0568H206.582C206.761 18.669 207.033 18.3575 207.398 18.1222C207.762 17.8835 208.233 17.7642 208.809 17.7642C209.327 17.7642 209.779 17.8703 210.167 18.0824C210.555 18.2912 210.856 18.6094 211.072 19.0369C211.287 19.4612 211.395 19.9981 211.395 20.6477V25.5H210.221V20.7273C210.221 20.1274 210.066 19.66 209.754 19.3253C209.443 18.9872 209.015 18.8182 208.471 18.8182C208.097 18.8182 207.762 18.8994 207.467 19.0618C207.175 19.2242 206.945 19.4612 206.776 19.7727C206.607 20.0843 206.523 20.4621 206.523 20.9062ZM218.948 19.5739L217.894 19.8722C217.828 19.6965 217.73 19.5258 217.6 19.3601C217.475 19.1911 217.302 19.0518 217.083 18.9425C216.865 18.8331 216.585 18.7784 216.243 18.7784C215.776 18.7784 215.386 18.8861 215.075 19.1016C214.767 19.3137 214.613 19.5838 214.613 19.9119C214.613 20.2036 214.719 20.4339 214.931 20.603C215.143 20.772 215.474 20.9129 215.925 21.0256L217.059 21.304C217.741 21.4697 218.25 21.7232 218.585 22.0646C218.92 22.4027 219.087 22.8385 219.087 23.3722C219.087 23.8097 218.961 24.2008 218.709 24.5455C218.461 24.8902 218.113 25.1619 217.665 25.3608C217.218 25.5597 216.697 25.6591 216.104 25.6591C215.325 25.6591 214.681 25.4901 214.17 25.152C213.66 24.8139 213.337 24.3201 213.201 23.6705L214.314 23.392C214.42 23.803 214.621 24.1113 214.916 24.3168C215.214 24.5223 215.604 24.625 216.084 24.625C216.631 24.625 217.065 24.509 217.387 24.277C217.712 24.0417 217.874 23.7599 217.874 23.4318C217.874 23.1667 217.781 22.9446 217.596 22.7656C217.41 22.5833 217.125 22.4474 216.74 22.358L215.468 22.0597C214.768 21.8939 214.255 21.6371 213.926 21.2891C213.602 20.9377 213.439 20.4986 213.439 19.9716C213.439 19.5407 213.56 19.1596 213.802 18.8281C214.047 18.4967 214.381 18.2365 214.801 18.0476C215.226 17.8587 215.706 17.7642 216.243 17.7642C216.999 17.7642 217.592 17.9299 218.023 18.2614C218.457 18.5928 218.766 19.0303 218.948 19.5739ZM225.666 22.3778V17.8636H226.839V25.5H225.666V24.2074H225.586C225.407 24.5952 225.129 24.925 224.751 25.1967C224.373 25.4652 223.896 25.5994 223.319 25.5994C222.842 25.5994 222.418 25.495 222.046 25.2862C221.675 25.0741 221.383 24.7559 221.171 24.3317C220.959 23.9041 220.853 23.3655 220.853 22.7159V17.8636H222.026V22.6364C222.026 23.1932 222.182 23.6373 222.494 23.9688C222.809 24.3002 223.21 24.4659 223.697 24.4659C223.989 24.4659 224.285 24.3913 224.587 24.2422C224.892 24.093 225.147 23.8643 225.352 23.5561C225.561 23.2479 225.666 22.8551 225.666 22.3778ZM230.161 15.3182V25.5H228.988V15.3182H230.161ZM235.631 17.8636V18.858H231.674V17.8636H235.631ZM232.827 16.0341H234.001V23.3125C234.001 23.6439 234.049 23.8925 234.145 24.0582C234.244 24.2206 234.37 24.33 234.523 24.3864C234.678 24.4394 234.842 24.4659 235.015 24.4659C235.144 24.4659 235.25 24.4593 235.333 24.446C235.416 24.4295 235.482 24.4162 235.532 24.4062L235.77 25.4602C235.691 25.4901 235.58 25.5199 235.437 25.5497C235.295 25.5829 235.114 25.5994 234.895 25.5994C234.564 25.5994 234.239 25.5282 233.921 25.3857C233.606 25.2431 233.344 25.026 233.135 24.7344C232.93 24.4427 232.827 24.0748 232.827 23.6307V16.0341ZM237.396 25.5V17.8636H238.569V25.5H237.396ZM237.993 16.5909C237.764 16.5909 237.567 16.513 237.401 16.3572C237.239 16.2015 237.157 16.0142 237.157 15.7955C237.157 15.5767 237.239 15.3894 237.401 15.2337C237.567 15.0779 237.764 15 237.993 15C238.221 15 238.417 15.0779 238.579 15.2337C238.745 15.3894 238.828 15.5767 238.828 15.7955C238.828 16.0142 238.745 16.2015 238.579 16.3572C238.417 16.513 238.221 16.5909 237.993 16.5909ZM241.892 20.9062V25.5H240.718V17.8636H241.852V19.0568H241.951C242.13 18.669 242.402 18.3575 242.767 18.1222C243.131 17.8835 243.602 17.7642 244.179 17.7642C244.696 17.7642 245.148 17.8703 245.536 18.0824C245.924 18.2912 246.225 18.6094 246.441 19.0369C246.656 19.4612 246.764 19.9981 246.764 20.6477V25.5H245.591V20.7273C245.591 20.1274 245.435 19.66 245.123 19.3253C244.812 18.9872 244.384 18.8182 243.841 18.8182C243.466 18.8182 243.131 18.8994 242.836 19.0618C242.545 19.2242 242.314 19.4612 242.145 19.7727C241.976 20.0843 241.892 20.4621 241.892 20.9062ZM251.99 28.5227C251.423 28.5227 250.936 28.4498 250.529 28.304C250.121 28.1615 249.781 27.9725 249.509 27.7372C249.241 27.5052 249.027 27.2566 248.868 26.9915L249.803 26.3352C249.909 26.4744 250.043 26.6335 250.205 26.8125C250.368 26.9948 250.59 27.1522 250.872 27.2848C251.157 27.4207 251.53 27.4886 251.99 27.4886C252.607 27.4886 253.115 27.3395 253.517 27.0412C253.918 26.7429 254.118 26.2756 254.118 25.6392V24.0881H254.019C253.932 24.2273 253.81 24.3996 253.651 24.6051C253.495 24.8073 253.27 24.9879 252.975 25.147C252.683 25.3028 252.289 25.3807 251.791 25.3807C251.175 25.3807 250.621 25.2348 250.131 24.9432C249.644 24.6515 249.258 24.2273 248.972 23.6705C248.691 23.1136 248.55 22.4375 248.55 21.642C248.55 20.8598 248.687 20.1787 248.963 19.5987C249.238 19.0154 249.62 18.5646 250.111 18.2464C250.602 17.925 251.168 17.7642 251.811 17.7642C252.308 17.7642 252.703 17.8471 252.994 18.0128C253.289 18.1752 253.515 18.3608 253.671 18.5696C253.83 18.7751 253.952 18.9441 254.039 19.0767H254.158V17.8636H255.291V25.7188C255.291 26.375 255.142 26.9086 254.844 27.3196C254.549 27.7339 254.151 28.0372 253.651 28.2294C253.154 28.425 252.6 28.5227 251.99 28.5227ZM251.95 24.3267C252.421 24.3267 252.819 24.219 253.144 24.0036C253.468 23.7881 253.715 23.4782 253.884 23.0739C254.053 22.6695 254.138 22.1856 254.138 21.6222C254.138 21.072 254.055 20.5864 253.889 20.1655C253.724 19.7446 253.478 19.4148 253.154 19.1761C252.829 18.9375 252.428 18.8182 251.95 18.8182C251.453 18.8182 251.039 18.9441 250.708 19.196C250.379 19.4479 250.133 19.786 249.967 20.2102C249.804 20.6345 249.723 21.1051 249.723 21.6222C249.723 22.1525 249.806 22.6214 249.972 23.0291C250.141 23.4335 250.389 23.7517 250.718 23.9837C251.049 24.2124 251.46 24.3267 251.95 24.3267Z" fill="#071518"/>
</svg>
