<svg width="229" height="41" viewBox="0 0 229 41" fill="none" xmlns="http://www.w3.org/2000/svg">
<rect x="0.5" y="0.5" width="228" height="40" rx="7.5" fill="white"/>
<rect x="0.5" y="0.5" width="228" height="40" rx="7.5" stroke="#ECECEC"/>
<path d="M16 30.3758H35.6545V10.7213H16V30.3758Z" fill="black"/>
<path d="M53.6506 25.5H52.358L56.0966 15.3182H57.3693L61.108 25.5H59.8153L56.7727 16.929H56.6932L53.6506 25.5ZM54.1278 21.5227H59.3381V22.6165H54.1278V21.5227ZM63.9268 15.3182V25.5H62.6939V15.3182H63.9268ZM78.5297 18.5H77.2967C77.2238 18.1454 77.0962 17.8338 76.9139 17.5653C76.7349 17.2969 76.5162 17.0715 76.2576 16.8892C76.0024 16.7036 75.719 16.5644 75.4075 16.4716C75.0959 16.3788 74.7711 16.3324 74.4331 16.3324C73.8166 16.3324 73.2581 16.4882 72.7576 16.7997C72.2605 17.1113 71.8644 17.5703 71.5694 18.1768C71.2778 18.7834 71.1319 19.5275 71.1319 20.4091C71.1319 21.2907 71.2778 22.0348 71.5694 22.6413C71.8644 23.2479 72.2605 23.7069 72.7576 24.0185C73.2581 24.33 73.8166 24.4858 74.4331 24.4858C74.7711 24.4858 75.0959 24.4394 75.4075 24.3466C75.719 24.2538 76.0024 24.1162 76.2576 23.9339C76.5162 23.7483 76.7349 23.5213 76.9139 23.2528C77.0962 22.9811 77.2238 22.6695 77.2967 22.3182H78.5297C78.4368 22.8385 78.2678 23.3042 78.0225 23.7152C77.7773 24.1262 77.4724 24.4759 77.1078 24.7642C76.7432 25.0492 76.3339 25.2663 75.8798 25.4155C75.429 25.5646 74.9468 25.6392 74.4331 25.6392C73.5647 25.6392 72.7924 25.4271 72.1163 25.0028C71.4402 24.5786 70.9082 23.9754 70.5204 23.1932C70.1326 22.411 69.9387 21.483 69.9387 20.4091C69.9387 19.3352 70.1326 18.4072 70.5204 17.625C70.9082 16.8428 71.4402 16.2396 72.1163 15.8153C72.7924 15.3911 73.5647 15.179 74.4331 15.179C74.9468 15.179 75.429 15.2536 75.8798 15.4027C76.3339 15.5518 76.7432 15.7706 77.1078 16.0589C77.4724 16.344 77.7773 16.692 78.0225 17.103C78.2678 17.5107 78.4368 17.9763 78.5297 18.5ZM81.5362 20.9062V25.5H80.3629V15.3182H81.5362V19.0568H81.6357C81.8146 18.6624 82.0831 18.3492 82.4411 18.1172C82.8023 17.8819 83.2829 17.7642 83.8828 17.7642C84.4032 17.7642 84.8589 17.8686 85.25 18.0774C85.6411 18.2829 85.9444 18.5994 86.1598 19.027C86.3786 19.4512 86.4879 19.9915 86.4879 20.6477V25.5H85.3146V20.7273C85.3146 20.1207 85.1572 19.6518 84.8423 19.3203C84.5308 18.9856 84.0982 18.8182 83.5447 18.8182C83.1603 18.8182 82.8156 18.8994 82.5107 19.0618C82.209 19.2242 81.9704 19.4612 81.7947 19.7727C81.6224 20.0843 81.5362 20.4621 81.5362 20.9062ZM90.8816 25.679C90.3977 25.679 89.9585 25.5878 89.5641 25.4055C89.1697 25.2199 88.8565 24.9531 88.6245 24.6051C88.3925 24.2538 88.2765 23.8295 88.2765 23.3324C88.2765 22.8949 88.3626 22.5402 88.535 22.2685C88.7073 21.9934 88.9377 21.7779 89.226 21.6222C89.5144 21.4664 89.8326 21.3504 90.1806 21.2741C90.5319 21.1946 90.8849 21.1316 91.2395 21.0852C91.7035 21.0256 92.0797 20.9808 92.3681 20.951C92.6597 20.9179 92.8719 20.8632 93.0044 20.7869C93.1403 20.7107 93.2083 20.5781 93.2083 20.3892V20.3494C93.2083 19.8589 93.074 19.4777 92.8056 19.206C92.5404 18.9342 92.1377 18.7983 91.5975 18.7983C91.0373 18.7983 90.5982 18.9209 90.28 19.1662C89.9618 19.4115 89.7381 19.6733 89.6088 19.9517L88.4952 19.554C88.6941 19.09 88.9592 18.7287 89.2907 18.4702C89.6254 18.2083 89.99 18.026 90.3844 17.9233C90.7821 17.8172 91.1732 17.7642 91.5577 17.7642C91.803 17.7642 92.0847 17.794 92.4029 17.8537C92.7244 17.91 93.0343 18.0277 93.3326 18.2067C93.6342 18.3857 93.8844 18.6558 94.0833 19.017C94.2821 19.3783 94.3816 19.8622 94.3816 20.4688V25.5H93.2083V24.4659H93.1486C93.0691 24.6316 92.9365 24.8089 92.7509 24.9979C92.5653 25.1868 92.3184 25.3475 92.0101 25.4801C91.7019 25.6127 91.3257 25.679 90.8816 25.679ZM91.0605 24.625C91.5246 24.625 91.9157 24.5339 92.2338 24.3516C92.5553 24.1693 92.7973 23.9339 92.9597 23.6456C93.1254 23.3572 93.2083 23.054 93.2083 22.7358V21.6619C93.1586 21.7216 93.0492 21.7763 92.8801 21.826C92.7144 21.8724 92.5222 21.9138 92.3034 21.9503C92.088 21.9834 91.8775 22.0133 91.6721 22.0398C91.4699 22.063 91.3058 22.0829 91.1799 22.0994C90.8749 22.1392 90.5899 22.2038 90.3248 22.2933C90.0629 22.3795 89.8508 22.5104 89.6884 22.6861C89.5293 22.8584 89.4498 23.0937 89.4498 23.392C89.4498 23.7997 89.6006 24.108 89.9022 24.3168C90.2071 24.5223 90.5932 24.625 91.0605 24.625ZM99.8441 17.8636V18.858H95.8867V17.8636H99.8441ZM97.0401 16.0341H98.2134V23.3125C98.2134 23.6439 98.2615 23.8925 98.3576 24.0582C98.457 24.2206 98.583 24.33 98.7354 24.3864C98.8912 24.4394 99.0553 24.4659 99.2276 24.4659C99.3569 24.4659 99.463 24.4593 99.5458 24.446C99.6287 24.4295 99.695 24.4162 99.7447 24.4062L99.9833 25.4602C99.9038 25.4901 99.7927 25.5199 99.6502 25.5497C99.5077 25.5829 99.3271 25.5994 99.1083 25.5994C98.7769 25.5994 98.4521 25.5282 98.1339 25.3857C97.819 25.2431 97.5572 25.026 97.3484 24.7344C97.1429 24.4427 97.0401 24.0748 97.0401 23.6307V16.0341ZM101.932 25.5V15.3182H103.105V19.0767H103.205C103.291 18.9441 103.41 18.7751 103.563 18.5696C103.719 18.3608 103.941 18.1752 104.229 18.0128C104.521 17.8471 104.915 17.7642 105.412 17.7642C106.055 17.7642 106.622 17.925 107.113 18.2464C107.603 18.5679 107.986 19.0237 108.261 19.6136C108.536 20.2036 108.674 20.8996 108.674 21.7017C108.674 22.5104 108.536 23.2114 108.261 23.8047C107.986 24.3946 107.605 24.852 107.118 25.1768C106.63 25.4983 106.069 25.6591 105.432 25.6591C104.942 25.6591 104.549 25.5779 104.254 25.4155C103.959 25.2498 103.732 25.0625 103.573 24.8537C103.414 24.6416 103.291 24.4659 103.205 24.3267H103.066V25.5H101.932ZM103.086 21.6818C103.086 22.2585 103.17 22.7673 103.339 23.2081C103.508 23.6456 103.755 23.9886 104.08 24.2372C104.405 24.4825 104.802 24.6051 105.273 24.6051C105.764 24.6051 106.173 24.4759 106.501 24.2173C106.833 23.9555 107.081 23.6042 107.247 23.1634C107.416 22.7192 107.5 22.2254 107.5 21.6818C107.5 21.1449 107.417 20.661 107.252 20.2301C107.089 19.7959 106.842 19.4529 106.511 19.201C106.183 18.9458 105.77 18.8182 105.273 18.8182C104.796 18.8182 104.395 18.9392 104.07 19.1811C103.745 19.4197 103.5 19.7545 103.334 20.1854C103.168 20.6129 103.086 21.1117 103.086 21.6818ZM113.571 25.6591C112.881 25.6591 112.276 25.495 111.756 25.1669C111.239 24.8388 110.835 24.3797 110.543 23.7898C110.255 23.1998 110.11 22.5104 110.11 21.7216C110.11 20.9261 110.255 20.2318 110.543 19.6385C110.835 19.0452 111.239 18.5845 111.756 18.2564C112.276 17.9283 112.881 17.7642 113.571 17.7642C114.26 17.7642 114.863 17.9283 115.38 18.2564C115.901 18.5845 116.305 19.0452 116.593 19.6385C116.885 20.2318 117.031 20.9261 117.031 21.7216C117.031 22.5104 116.885 23.1998 116.593 23.7898C116.305 24.3797 115.901 24.8388 115.38 25.1669C114.863 25.495 114.26 25.6591 113.571 25.6591ZM113.571 24.6051C114.094 24.6051 114.525 24.4709 114.863 24.2024C115.201 23.9339 115.452 23.581 115.614 23.1435C115.776 22.706 115.858 22.232 115.858 21.7216C115.858 21.2112 115.776 20.7356 115.614 20.2947C115.452 19.8539 115.201 19.4976 114.863 19.2259C114.525 18.9541 114.094 18.8182 113.571 18.8182C113.047 18.8182 112.616 18.9541 112.278 19.2259C111.94 19.4976 111.69 19.8539 111.527 20.2947C111.365 20.7356 111.284 21.2112 111.284 21.7216C111.284 22.232 111.365 22.706 111.527 23.1435C111.69 23.581 111.94 23.9339 112.278 24.2024C112.616 24.4709 113.047 24.6051 113.571 24.6051ZM122.143 17.8636V18.858H118.186V17.8636H122.143ZM119.339 16.0341H120.512V23.3125C120.512 23.6439 120.56 23.8925 120.656 24.0582C120.756 24.2206 120.882 24.33 121.034 24.3864C121.19 24.4394 121.354 24.4659 121.526 24.4659C121.656 24.4659 121.762 24.4593 121.845 24.446C121.927 24.4295 121.994 24.4162 122.044 24.4062L122.282 25.4602C122.203 25.4901 122.092 25.5199 121.949 25.5497C121.807 25.5829 121.626 25.5994 121.407 25.5994C121.076 25.5994 120.751 25.5282 120.433 25.3857C120.118 25.2431 119.856 25.026 119.647 24.7344C119.442 24.4427 119.339 24.0748 119.339 23.6307V16.0341ZM133.573 17.8636C133.513 17.3598 133.271 16.9688 132.847 16.6903C132.423 16.4119 131.902 16.2727 131.286 16.2727C130.835 16.2727 130.441 16.3456 130.102 16.4915C129.768 16.6373 129.506 16.8378 129.317 17.093C129.131 17.3482 129.039 17.6383 129.039 17.9631C129.039 18.2348 129.103 18.4685 129.232 18.6641C129.365 18.8563 129.534 19.017 129.74 19.1463C129.945 19.2723 130.16 19.3767 130.386 19.4595C130.611 19.5391 130.818 19.6037 131.007 19.6534L132.041 19.9318C132.307 20.0014 132.602 20.0975 132.926 20.2202C133.254 20.3428 133.568 20.5102 133.866 20.7223C134.168 20.9311 134.416 21.1996 134.612 21.5277C134.807 21.8558 134.905 22.2585 134.905 22.7358C134.905 23.286 134.761 23.7831 134.472 24.2273C134.187 24.6714 133.77 25.0244 133.22 25.2862C132.673 25.5481 132.008 25.679 131.226 25.679C130.497 25.679 129.865 25.5613 129.332 25.326C128.802 25.0907 128.384 24.7625 128.079 24.3416C127.777 23.9207 127.607 23.4318 127.567 22.875H128.84C128.873 23.2595 129.002 23.5777 129.227 23.8295C129.456 24.0781 129.744 24.2637 130.093 24.3864C130.444 24.5057 130.822 24.5653 131.226 24.5653C131.697 24.5653 132.119 24.4891 132.494 24.3366C132.868 24.1809 133.165 23.9654 133.384 23.6903C133.602 23.4119 133.712 23.0871 133.712 22.7159C133.712 22.3778 133.617 22.1027 133.428 21.8906C133.24 21.6785 132.991 21.5062 132.683 21.3736C132.374 21.241 132.041 21.125 131.683 21.0256L130.431 20.6676C129.635 20.4389 129.005 20.1125 128.541 19.6882C128.077 19.264 127.845 18.7088 127.845 18.0227C127.845 17.4527 127.999 16.9555 128.308 16.5312C128.619 16.1037 129.037 15.7723 129.561 15.5369C130.088 15.2983 130.676 15.179 131.325 15.179C131.982 15.179 132.565 15.2966 133.075 15.532C133.586 15.764 133.99 16.0821 134.289 16.4865C134.59 16.8909 134.749 17.3499 134.766 17.8636H133.573ZM139.975 25.6591C139.239 25.6591 138.604 25.4967 138.071 25.1719C137.54 24.8438 137.131 24.3864 136.843 23.7997C136.558 23.2098 136.415 22.5237 136.415 21.7415C136.415 20.9593 136.558 20.2699 136.843 19.6733C137.131 19.0734 137.532 18.6061 138.046 18.2713C138.563 17.9332 139.166 17.7642 139.855 17.7642C140.253 17.7642 140.646 17.8305 141.034 17.9631C141.422 18.0956 141.775 18.3111 142.093 18.6094C142.411 18.9044 142.664 19.2955 142.853 19.7827C143.042 20.2699 143.137 20.8698 143.137 21.5824V22.0795H137.25V21.0653H141.944C141.944 20.6345 141.857 20.25 141.685 19.9119C141.516 19.5739 141.274 19.3071 140.959 19.1115C140.648 18.916 140.28 18.8182 139.855 18.8182C139.388 18.8182 138.984 18.9342 138.642 19.1662C138.304 19.3949 138.044 19.6932 137.862 20.0611C137.68 20.429 137.588 20.8234 137.588 21.2443V21.9205C137.588 22.4972 137.688 22.986 137.887 23.3871C138.089 23.7848 138.369 24.0881 138.727 24.2969C139.085 24.5024 139.501 24.6051 139.975 24.6051C140.283 24.6051 140.561 24.562 140.81 24.4759C141.062 24.3864 141.279 24.2538 141.461 24.0781C141.644 23.8991 141.784 23.6771 141.884 23.4119L143.017 23.7301C142.898 24.1146 142.698 24.4527 142.416 24.7443C142.134 25.0327 141.786 25.258 141.372 25.4205C140.958 25.5795 140.492 25.6591 139.975 25.6591ZM144.922 25.5V17.8636H146.055V19.017H146.135C146.274 18.6392 146.526 18.3326 146.89 18.0973C147.255 17.862 147.666 17.7443 148.123 17.7443C148.209 17.7443 148.317 17.746 148.446 17.7493C148.576 17.7526 148.673 17.7576 148.74 17.7642V18.9574C148.7 18.9474 148.609 18.9325 148.466 18.9126C148.327 18.8894 148.18 18.8778 148.024 18.8778C147.653 18.8778 147.321 18.9557 147.029 19.1115C146.741 19.264 146.512 19.4761 146.343 19.7479C146.178 20.0163 146.095 20.3229 146.095 20.6676V25.5H144.922ZM156.607 17.8636L153.783 25.5H152.59L149.766 17.8636H151.039L153.147 23.9489H153.227L155.335 17.8636H156.607ZM158.156 25.5V17.8636H159.329V25.5H158.156ZM158.752 16.5909C158.524 16.5909 158.327 16.513 158.161 16.3572C157.998 16.2015 157.917 16.0142 157.917 15.7955C157.917 15.5767 157.998 15.3894 158.161 15.2337C158.327 15.0779 158.524 15 158.752 15C158.981 15 159.177 15.0779 159.339 15.2337C159.505 15.3894 159.588 15.5767 159.588 15.7955C159.588 16.0142 159.505 16.2015 159.339 16.3572C159.177 16.513 158.981 16.5909 158.752 16.5909ZM164.58 25.6591C163.865 25.6591 163.248 25.4901 162.731 25.152C162.214 24.8139 161.816 24.3482 161.538 23.755C161.259 23.1617 161.12 22.4839 161.12 21.7216C161.12 20.946 161.263 20.2616 161.548 19.6683C161.836 19.0717 162.237 18.6061 162.751 18.2713C163.268 17.9332 163.871 17.7642 164.561 17.7642C165.097 17.7642 165.581 17.8636 166.012 18.0625C166.443 18.2614 166.796 18.5398 167.071 18.8977C167.346 19.2557 167.517 19.6733 167.583 20.1506H166.41C166.32 19.8026 166.122 19.4943 165.813 19.2259C165.508 18.9541 165.097 18.8182 164.58 18.8182C164.123 18.8182 163.722 18.9375 163.377 19.1761C163.036 19.4115 162.769 19.7446 162.577 20.1754C162.388 20.603 162.294 21.1051 162.294 21.6818C162.294 22.2718 162.386 22.7855 162.572 23.223C162.761 23.6605 163.026 24.0002 163.367 24.2422C163.712 24.4841 164.116 24.6051 164.58 24.6051C164.885 24.6051 165.162 24.5521 165.411 24.446C165.659 24.34 165.87 24.1875 166.042 23.9886C166.214 23.7898 166.337 23.5511 166.41 23.2727H167.583C167.517 23.7235 167.353 24.1295 167.091 24.4908C166.833 24.8487 166.49 25.1338 166.062 25.3459C165.638 25.5547 165.144 25.6591 164.58 25.6591ZM172.5 25.6591C171.764 25.6591 171.13 25.4967 170.596 25.1719C170.066 24.8438 169.656 24.3864 169.368 23.7997C169.083 23.2098 168.941 22.5237 168.941 21.7415C168.941 20.9593 169.083 20.2699 169.368 19.6733C169.656 19.0734 170.057 18.6061 170.571 18.2713C171.088 17.9332 171.691 17.7642 172.381 17.7642C172.779 17.7642 173.171 17.8305 173.559 17.9631C173.947 18.0956 174.3 18.3111 174.618 18.6094C174.936 18.9044 175.19 19.2955 175.379 19.7827C175.568 20.2699 175.662 20.8698 175.662 21.5824V22.0795H169.776V21.0653H174.469C174.469 20.6345 174.383 20.25 174.21 19.9119C174.041 19.5739 173.799 19.3071 173.485 19.1115C173.173 18.916 172.805 18.8182 172.381 18.8182C171.914 18.8182 171.509 18.9342 171.168 19.1662C170.83 19.3949 170.57 19.6932 170.387 20.0611C170.205 20.429 170.114 20.8234 170.114 21.2443V21.9205C170.114 22.4972 170.213 22.986 170.412 23.3871C170.614 23.7848 170.894 24.0881 171.252 24.2969C171.61 24.5024 172.026 24.6051 172.5 24.6051C172.808 24.6051 173.087 24.562 173.335 24.4759C173.587 24.3864 173.804 24.2538 173.987 24.0781C174.169 23.8991 174.31 23.6771 174.409 23.4119L175.543 23.7301C175.423 24.1146 175.223 24.4527 174.941 24.7443C174.66 25.0327 174.311 25.258 173.897 25.4205C173.483 25.5795 173.017 25.6591 172.5 25.6591ZM182.856 19.5739L181.802 19.8722C181.736 19.6965 181.638 19.5258 181.509 19.3601C181.383 19.1911 181.21 19.0518 180.992 18.9425C180.773 18.8331 180.493 18.7784 180.151 18.7784C179.684 18.7784 179.295 18.8861 178.983 19.1016C178.675 19.3137 178.521 19.5838 178.521 19.9119C178.521 20.2036 178.627 20.4339 178.839 20.603C179.051 20.772 179.383 20.9129 179.833 21.0256L180.967 21.304C181.65 21.4697 182.158 21.7232 182.493 22.0646C182.828 22.4027 182.995 22.8385 182.995 23.3722C182.995 23.8097 182.869 24.2008 182.617 24.5455C182.369 24.8902 182.021 25.1619 181.573 25.3608C181.126 25.5597 180.606 25.6591 180.012 25.6591C179.233 25.6591 178.589 25.4901 178.078 25.152C177.568 24.8139 177.245 24.3201 177.109 23.6705L178.222 23.392C178.329 23.803 178.529 24.1113 178.824 24.3168C179.122 24.5223 179.512 24.625 179.992 24.625C180.539 24.625 180.973 24.509 181.295 24.277C181.62 24.0417 181.782 23.7599 181.782 23.4318C181.782 23.1667 181.689 22.9446 181.504 22.7656C181.318 22.5833 181.033 22.4474 180.649 22.358L179.376 22.0597C178.677 21.8939 178.163 21.6371 177.835 21.2891C177.51 20.9377 177.347 20.4986 177.347 19.9716C177.347 19.5407 177.468 19.1596 177.71 18.8281C177.956 18.4967 178.289 18.2365 178.71 18.0476C179.134 17.8587 179.615 17.7642 180.151 17.7642C180.907 17.7642 181.5 17.9299 181.931 18.2614C182.365 18.5928 182.674 19.0303 182.856 19.5739Z" fill="#071518"/>
</svg>
