<svg width="299" height="41" viewBox="0 0 299 41" fill="none" xmlns="http://www.w3.org/2000/svg">
<rect x="0.5" y="0.5" width="298" height="40" rx="7.5" fill="white"/>
<rect x="0.5" y="0.5" width="298" height="40" rx="7.5" stroke="#ECECEC"/>
<g clip-path="url(#clip0_119_1800)">
<path d="M36.1603 15.5883V30.1709C36.1603 30.5696 35.8371 30.8928 35.438 30.8928H32.4652L26.5003 29.2555L20.5354 30.8928H17.5626C17.1635 30.8928 16.8403 30.5696 16.8403 30.1709V15.5883L26.5003 10.577L36.1603 15.5883Z" fill="url(#paint0_linear_119_1800)"/>
<path d="M28.8196 18.3599H24.1804C24.1054 18.3599 24.0336 18.3301 23.9805 18.2771C23.9275 18.2241 23.8978 18.1522 23.8978 18.0772C23.8978 18.0023 23.9275 17.9304 23.9805 17.8774C24.0336 17.8244 24.1054 17.7946 24.1804 17.7946H28.8196C28.8568 17.7946 28.8935 17.8019 28.9278 17.8161C28.9621 17.8303 28.9932 17.8511 29.0195 17.8774C29.0457 17.9036 29.0666 17.9348 29.0808 17.9691C29.095 18.0034 29.1023 18.0401 29.1023 18.0772C29.1023 18.1144 29.0949 18.1511 29.0807 18.1854C29.0665 18.2197 29.0457 18.2509 29.0195 18.2771C28.9932 18.3033 28.9621 18.3242 28.9278 18.3384C28.8935 18.3526 28.8567 18.3599 28.8196 18.3599Z" fill="url(#paint1_linear_119_1800)"/>
<path d="M28.8196 17.404H24.1804C24.1054 17.404 24.0336 17.3742 23.9805 17.3212C23.9275 17.2682 23.8978 17.1963 23.8978 17.1213C23.8978 17.0464 23.9275 16.9745 23.9805 16.9215C24.0336 16.8685 24.1054 16.8387 24.1804 16.8387H28.8196C28.8568 16.8387 28.8935 16.846 28.9278 16.8602C28.9621 16.8744 28.9932 16.8952 29.0195 16.9215C29.0457 16.9477 29.0666 16.9789 29.0808 17.0132C29.095 17.0475 29.1023 17.0842 29.1023 17.1213C29.1023 17.1585 29.0949 17.1952 29.0807 17.2295C29.0665 17.2638 29.0457 17.2949 29.0195 17.3212C28.9932 17.3474 28.9621 17.3683 28.9278 17.3825C28.8935 17.3967 28.8567 17.404 28.8196 17.404Z" fill="url(#paint2_linear_119_1800)"/>
<path d="M28.8196 16.4492H24.1804C24.1054 16.4492 24.0336 16.4194 23.9805 16.3664C23.9275 16.3134 23.8978 16.2415 23.8978 16.1666C23.8978 16.0916 23.9275 16.0197 23.9805 15.9667C24.0336 15.9137 24.1054 15.8839 24.1804 15.8839H28.8196C28.8568 15.8839 28.8935 15.8913 28.9278 15.9055C28.9621 15.9197 28.9932 15.9405 29.0195 15.9667C29.0457 15.993 29.0666 16.0241 29.0808 16.0584C29.095 16.0927 29.1023 16.1295 29.1023 16.1666C29.1023 16.2037 29.0949 16.2405 29.0807 16.2748C29.0665 16.3091 29.0457 16.3402 29.0195 16.3665C28.9932 16.3927 28.9621 16.4135 28.9278 16.4277C28.8935 16.4419 28.8567 16.4492 28.8196 16.4492Z" fill="url(#paint3_linear_119_1800)"/>
<path d="M28.8196 15.4945H24.1804C24.1054 15.4945 24.0336 15.4647 23.9805 15.4117C23.9275 15.3587 23.8978 15.2868 23.8978 15.2118C23.8978 15.1369 23.9275 15.065 23.9805 15.012C24.0336 14.959 24.1054 14.9292 24.1804 14.9292H28.8196C28.8568 14.9292 28.8935 14.9365 28.9278 14.9507C28.9621 14.9649 28.9932 14.9857 29.0195 15.012C29.0457 15.0382 29.0666 15.0694 29.0808 15.1037C29.095 15.138 29.1023 15.1747 29.1023 15.2119C29.1023 15.249 29.0949 15.2857 29.0807 15.32C29.0665 15.3543 29.0457 15.3855 29.0195 15.4117C28.9932 15.438 28.9621 15.4588 28.9278 15.473C28.8935 15.4872 28.8567 15.4945 28.8196 15.4945Z" fill="url(#paint4_linear_119_1800)"/>
<path d="M16.8403 15.5881V22.7193H36.1602V15.5881L26.5002 10.577L16.8403 15.5881Z" fill="url(#paint5_linear_119_1800)"/>
<path d="M36.1602 15.5881V22.7193H16.8403V15.5881L26.5002 10.577L36.1602 15.5881Z" fill="url(#paint6_linear_119_1800)"/>
<path d="M36.16 15.5883V30.1709C36.16 30.5696 35.8368 30.8928 35.4377 30.8928H32.4649L26.5 29.2555V10.577L36.16 15.5883Z" fill="url(#paint7_linear_119_1800)"/>
<path d="M36.1603 25.1182V30.1717C36.1603 30.5704 35.8371 30.8936 35.438 30.8936H32.4652L26.5003 29.2562L20.5354 30.8936H17.5626C17.1635 30.8936 16.8403 30.5704 16.8403 30.1717V25.1182H36.1603Z" fill="url(#paint8_linear_119_1800)"/>
<path d="M26.3152 10.3646L16.2165 15.6034C16.1512 15.6372 16.0965 15.6883 16.0584 15.7511C16.0202 15.8139 16 15.886 16 15.9595V17.3189C16 17.6198 16.3189 17.8137 16.586 17.6751L26.3152 12.628C26.3723 12.5984 26.4357 12.583 26.5 12.583C26.5643 12.583 26.6277 12.5984 26.6848 12.628L36.414 17.6751C36.6811 17.8137 37 17.6198 37 17.319V15.9596C37 15.8861 36.9798 15.814 36.9416 15.7512C36.9035 15.6884 36.8488 15.6372 36.7835 15.6034L26.6848 10.3646C26.6277 10.3349 26.5643 10.3195 26.5 10.3195C26.4357 10.3195 26.3723 10.3349 26.3152 10.3646Z" fill="url(#paint9_linear_119_1800)"/>
<path d="M26.3152 10.3646L16.2165 15.6034C16.1512 15.6372 16.0965 15.6883 16.0584 15.7511C16.0202 15.8139 16 15.886 16 15.9595V17.3189C16 17.6198 16.3189 17.8137 16.586 17.6751L26.3152 12.628C26.3723 12.5984 26.4357 12.583 26.5 12.583C26.5643 12.583 26.6277 12.5984 26.6848 12.628L36.414 17.6751C36.6811 17.8137 37 17.6198 37 17.319V15.9596C37 15.8861 36.9798 15.814 36.9416 15.7512C36.9035 15.6884 36.8488 15.6372 36.7835 15.6034L26.6848 10.3646C26.6277 10.3349 26.5643 10.3195 26.5 10.3195C26.4357 10.3195 26.3723 10.3349 26.3152 10.3646Z" fill="url(#paint10_linear_119_1800)"/>
<path d="M26.3152 11.374L16 16.7251V17.3186C16 17.6196 16.3189 17.8134 16.586 17.6748L26.3152 12.6277C26.3723 12.5981 26.4357 12.5826 26.5 12.5826C26.5643 12.5826 26.6277 12.5981 26.6848 12.6277L36.414 17.6748C36.6811 17.8134 37 17.6195 37 17.3186V16.7251L26.6848 11.374C26.6277 11.3444 26.5643 11.3289 26.5 11.3289C26.4357 11.3289 26.3723 11.3444 26.3152 11.374Z" fill="url(#paint11_linear_119_1800)"/>
<path d="M34.4387 14.3875L27.056 10.5576L29.2907 13.9804L34.2438 16.5498L34.4387 14.3875Z" fill="url(#paint12_linear_119_1800)"/>
<path d="M36.7834 15.6036L31.9232 13.0823V15.3458L36.4138 17.6754C36.6809 17.814 36.9999 17.6201 36.9999 17.3193V15.9599C36.9999 15.8864 36.9797 15.8142 36.9416 15.7514C36.9034 15.6886 36.8487 15.6375 36.7834 15.6036Z" fill="url(#paint13_linear_119_1800)"/>
<path d="M36.4137 17.6757C36.6808 17.8143 36.9998 17.6204 36.9998 17.3195V15.9601C36.9998 15.8866 36.9796 15.8146 36.9414 15.7517C36.9032 15.6889 36.8485 15.6378 36.7833 15.604L34.279 14.3048H29.9157L36.4137 17.6757Z" fill="url(#paint14_linear_119_1800)"/>
<path d="M16.586 17.6758L23.084 14.3048H18.7208L16.2165 15.604C16.1512 15.6378 16.0965 15.6889 16.0584 15.7518C16.0202 15.8146 16 15.8867 16 15.9602V17.3196C16 17.6205 16.3189 17.8143 16.586 17.6758Z" fill="url(#paint15_linear_119_1800)"/>
<path d="M32.4649 20.892V30.8932H31.2595L29.9392 30.5717L28.3736 30.8932H27.9429L26.6792 30.5499L25.0571 30.8932H24.6264L23.3385 30.6229L21.7401 30.8932H20.5351V20.892C20.5351 20.4728 20.8747 20.1336 21.2935 20.1336H31.7065C32.1253 20.1336 32.4649 20.4728 32.4649 20.892Z" fill="url(#paint16_linear_119_1800)"/>
<path d="M26.7961 20.1336V30.5815L26.6792 30.5499L25.0571 30.8932H24.6264L23.3385 30.6229L21.7401 30.8932H20.5351V20.892C20.5351 20.4728 20.8747 20.1336 21.2935 20.1336H26.7961Z" fill="url(#paint17_linear_119_1800)"/>
<path d="M31.7062 20.1336H21.2935C20.8746 20.1336 20.5351 20.4731 20.5351 20.892V24.9873H32.4645V20.892C32.4646 20.4732 32.125 20.1336 31.7062 20.1336Z" fill="url(#paint18_linear_119_1800)"/>
<path d="M27.9427 30.8934H28.3733L29.9389 30.5718L31.2592 30.8934H32.4646V23.5754L30.488 21.5988H28.3207L27.9395 24.9872V30.8925L27.9427 30.8934Z" fill="url(#paint19_linear_119_1800)"/>
<path d="M31.3911 30.8927H32.4646V28.6891L31.3911 27.6235V30.8927Z" fill="url(#paint20_linear_119_1800)"/>
<path d="M31.4748 27.792V30.6782C31.4748 30.7064 31.4692 30.7344 31.4584 30.7605C31.4476 30.7866 31.4317 30.8104 31.4118 30.8303C31.3918 30.8503 31.3681 30.8662 31.3419 30.877C31.3158 30.8878 31.2879 30.8934 31.2596 30.8934H28.3734C28.3452 30.8934 28.3172 30.8878 28.2911 30.877C28.265 30.8662 28.2413 30.8503 28.2213 30.8303C28.2013 30.8104 28.1854 30.7866 28.1746 30.7605C28.1638 30.7344 28.1582 30.7064 28.1582 30.6782L27.6929 29.2546L28.1582 27.792C28.1582 27.7349 28.1809 27.6802 28.2213 27.6398C28.2616 27.5995 28.3164 27.5768 28.3734 27.5768H29.2876L29.8165 27.7129L30.3455 27.5768H31.2596C31.3167 27.5768 31.3714 27.5995 31.4118 27.6399C31.4521 27.6802 31.4748 27.735 31.4748 27.792Z" fill="url(#paint21_linear_119_1800)"/>
<path d="M28.1583 29.2983V30.6781C28.1583 30.7064 28.1638 30.7344 28.1746 30.7605C28.1855 30.7866 28.2013 30.8103 28.2213 30.8303C28.2413 30.8503 28.265 30.8662 28.2911 30.877C28.3172 30.8878 28.3452 30.8934 28.3735 30.8934H31.2596C31.2879 30.8934 31.3159 30.8878 31.342 30.877C31.3681 30.8662 31.3918 30.8503 31.4118 30.8303C31.4318 30.8103 31.4476 30.7866 31.4584 30.7605C31.4693 30.7344 31.4748 30.7064 31.4748 30.6781V29.2983H28.1583Z" fill="url(#paint22_linear_119_1800)"/>
<path d="M31.4752 27.792V30.6782C31.4752 30.7064 31.4696 30.7344 31.4588 30.7605C31.448 30.7866 31.4321 30.8104 31.4121 30.8303C31.3921 30.8503 31.3684 30.8662 31.3423 30.877C31.3162 30.8878 31.2882 30.8934 31.2599 30.8934H29.779V27.7032L29.8169 27.7129L30.3458 27.5768H31.26C31.3171 27.5768 31.3718 27.5995 31.4121 27.6399C31.4525 27.6802 31.4752 27.735 31.4752 27.792Z" fill="url(#paint23_linear_119_1800)"/>
<path d="M29.313 28.4078L31.4746 30.5694V27.792C31.4746 27.7349 31.4519 27.6802 31.4116 27.6398C31.3712 27.5995 31.3165 27.5768 31.2594 27.5768H30.3452L30.3451 27.5769L29.313 28.4078Z" fill="url(#paint24_linear_119_1800)"/>
<path d="M30.2683 28.4334H29.3653C29.3551 28.4334 29.345 28.4314 29.3356 28.4275C29.3263 28.4236 29.3177 28.4179 29.3105 28.4107C29.3034 28.4036 29.2977 28.395 29.2938 28.3856C29.2899 28.3762 29.2879 28.3662 29.2879 28.356V27.5768H30.3456V28.356C30.3456 28.3662 30.3436 28.3762 30.3397 28.3856C30.3358 28.395 30.3301 28.4035 30.323 28.4107C30.3158 28.4179 30.3072 28.4236 30.2979 28.4275C30.2885 28.4314 30.2784 28.4334 30.2683 28.4334Z" fill="url(#paint25_linear_119_1800)"/>
<path d="M30.2683 28.4333H29.3653C29.3551 28.4334 29.345 28.4314 29.3356 28.4275C29.3263 28.4236 29.3177 28.4179 29.3105 28.4107C29.3034 28.4035 29.2977 28.395 29.2938 28.3856C29.2899 28.3762 29.2879 28.3662 29.2879 28.356V27.9619H30.3456V28.356C30.3456 28.3662 30.3436 28.3762 30.3397 28.3856C30.3358 28.395 30.3301 28.4035 30.323 28.4107C30.3158 28.4179 30.3072 28.4236 30.2979 28.4275C30.2885 28.4313 30.2784 28.4333 30.2683 28.4333Z" fill="url(#paint26_linear_119_1800)"/>
<path d="M29.8098 28.4334H30.2681C30.2782 28.4334 30.2883 28.4314 30.2977 28.4275C30.3071 28.4236 30.3156 28.4179 30.3228 28.4107C30.33 28.4036 30.3357 28.395 30.3395 28.3856C30.3434 28.3762 30.3454 28.3662 30.3454 28.356V27.5768H29.8098V28.4334Z" fill="url(#paint27_linear_119_1800)"/>
<path d="M29.6858 30.481H28.5838C28.571 30.481 28.5587 30.4759 28.5496 30.4668C28.5405 30.4578 28.5354 30.4455 28.5354 30.4326V29.7614C28.5354 29.7347 28.5571 29.713 28.5838 29.713H29.6858C29.7125 29.713 29.7342 29.7347 29.7342 29.7614V30.4326C29.7342 30.4455 29.7291 30.4578 29.72 30.4668C29.711 30.4759 29.6986 30.481 29.6858 30.481Z" fill="url(#paint28_linear_119_1800)"/>
<path d="M29.6854 29.713H28.8499V30.481H29.6854C29.6982 30.481 29.7105 30.4759 29.7196 30.4668C29.7287 30.4577 29.7338 30.4454 29.7338 30.4326V29.7614C29.7338 29.7486 29.7287 29.7363 29.7196 29.7272C29.7105 29.7181 29.6982 29.713 29.6854 29.713Z" fill="url(#paint29_linear_119_1800)"/>
<path d="M28.5354 29.999V30.4329C28.5354 30.4596 28.5571 30.4813 28.5838 30.4813H29.6858C29.6986 30.4813 29.711 30.4762 29.72 30.4671C29.7291 30.458 29.7342 30.4457 29.7342 30.4329V29.999H28.5354Z" fill="url(#paint30_linear_119_1800)"/>
<path d="M28.1581 24.4755V27.3616C28.1581 27.4187 28.1355 27.4734 28.0951 27.5138C28.0547 27.5541 28 27.5768 27.9429 27.5768L26.462 28.151L25.0568 27.5768C24.9997 27.5768 24.945 27.5541 24.9046 27.5138C24.8642 27.4734 24.8416 27.4187 24.8416 27.3616L24.4634 25.9127L24.8416 24.4755C24.8416 24.4184 24.8642 24.3636 24.9046 24.3233C24.945 24.2829 24.9997 24.2603 25.0568 24.2603H25.9709L26.4998 24.3964L27.0288 24.2603H27.9429C28 24.2603 28.0547 24.2829 28.0951 24.3233C28.1354 24.3637 28.1581 24.4184 28.1581 24.4755Z" fill="url(#paint31_linear_119_1800)"/>
<path d="M24.8417 25.9818V27.3616C24.8417 27.4186 24.8644 27.4734 24.9048 27.5137C24.9451 27.5541 24.9999 27.5768 25.0569 27.5768H27.9431C27.9714 27.5768 27.9993 27.5712 28.0254 27.5604C28.0516 27.5496 28.0753 27.5337 28.0953 27.5137C28.1153 27.4937 28.1311 27.47 28.1419 27.4439C28.1527 27.4178 28.1583 27.3898 28.1583 27.3616V25.9818H24.8417Z" fill="url(#paint32_linear_119_1800)"/>
<path d="M28.1586 24.4755V27.3616C28.1586 27.4187 28.1359 27.4734 28.0955 27.5138C28.0552 27.5541 28.0004 27.5768 27.9434 27.5768H26.4624V24.3867L26.5003 24.3964L27.0292 24.2603H27.9434C28.0005 24.2603 28.0552 24.283 28.0955 24.3233C28.1359 24.3637 28.1586 24.4184 28.1586 24.4755Z" fill="url(#paint33_linear_119_1800)"/>
<path d="M25.9964 25.0913L28.158 27.2529V24.4755C28.158 24.4472 28.1524 24.4192 28.1416 24.3931C28.1308 24.367 28.115 24.3433 28.095 24.3233C28.075 24.3033 28.0513 24.2875 28.0252 24.2766C27.999 24.2658 27.9711 24.2603 27.9428 24.2603H27.0286L27.0286 24.2603L25.9964 25.0913Z" fill="url(#paint34_linear_119_1800)"/>
<path d="M26.9517 25.1168H26.0487C26.0386 25.1168 26.0285 25.1148 26.0191 25.1109C26.0097 25.1071 26.0012 25.1014 25.994 25.0942C25.9868 25.087 25.9811 25.0785 25.9773 25.0691C25.9734 25.0597 25.9714 25.0496 25.9714 25.0395V24.2603H27.0291V25.0395C27.0291 25.0496 27.0271 25.0597 27.0232 25.0691C27.0193 25.0785 27.0136 25.087 27.0064 25.0942C26.9992 25.1014 26.9907 25.107 26.9813 25.1109C26.9719 25.1148 26.9619 25.1168 26.9517 25.1168Z" fill="url(#paint35_linear_119_1800)"/>
<path d="M26.9517 25.1168H26.0487C26.0386 25.1168 26.0285 25.1148 26.0191 25.1109C26.0097 25.107 26.0012 25.1013 25.994 25.0941C25.9868 25.0869 25.9811 25.0784 25.9773 25.069C25.9734 25.0596 25.9714 25.0496 25.9714 25.0394V24.6453H27.0291V25.0394C27.0291 25.0496 27.0271 25.0596 27.0232 25.069C27.0193 25.0784 27.0136 25.0869 27.0064 25.0941C26.9992 25.1013 26.9907 25.107 26.9813 25.1109C26.9719 25.1148 26.9619 25.1168 26.9517 25.1168Z" fill="url(#paint36_linear_119_1800)"/>
<path d="M26.4932 25.1168H26.9515C26.9616 25.1168 26.9717 25.1148 26.9811 25.1109C26.9905 25.1071 26.999 25.1014 27.0062 25.0942C27.0134 25.087 27.0191 25.0785 27.023 25.0691C27.0268 25.0597 27.0288 25.0496 27.0288 25.0395V24.2603H26.4932V25.1168Z" fill="url(#paint37_linear_119_1800)"/>
<path d="M26.3692 27.1645H25.2672C25.2609 27.1645 25.2546 27.1632 25.2487 27.1608C25.2428 27.1583 25.2375 27.1548 25.233 27.1503C25.2285 27.1458 25.2249 27.1405 25.2225 27.1346C25.2201 27.1287 25.2188 27.1224 25.2188 27.1161V26.4449C25.2188 26.4181 25.2405 26.3965 25.2672 26.3965H26.3692C26.396 26.3965 26.4176 26.4181 26.4176 26.4449V27.1161C26.4176 27.1289 26.4125 27.1412 26.4034 27.1503C26.3944 27.1594 26.3821 27.1645 26.3692 27.1645Z" fill="url(#paint38_linear_119_1800)"/>
<path d="M26.3688 26.3965H25.5333V27.1645H26.3688C26.3816 27.1645 26.3939 27.1594 26.403 27.1503C26.4121 27.1412 26.4172 27.1289 26.4172 27.1161V26.4449C26.4172 26.432 26.4121 26.4197 26.403 26.4107C26.3939 26.4016 26.3816 26.3965 26.3688 26.3965Z" fill="url(#paint39_linear_119_1800)"/>
<path d="M25.2188 26.6824V27.1163C25.2188 27.143 25.2405 27.1647 25.2672 27.1647H26.3692C26.3821 27.1647 26.3944 27.1596 26.4034 27.1505C26.4125 27.1414 26.4176 27.1291 26.4176 27.1163V26.6824H25.2188Z" fill="url(#paint40_linear_119_1800)"/>
<path d="M24.8417 24.4755V27.3616C24.8417 27.4187 24.819 27.4734 24.7787 27.5138C24.7383 27.5541 24.6836 27.5768 24.6265 27.5768L23.1021 27.8593L21.7404 27.5768C21.6833 27.5768 21.6285 27.5541 21.5882 27.5138C21.5478 27.4734 21.5251 27.4187 21.5251 27.3616V24.4755C21.5251 24.4184 21.5478 24.3636 21.5882 24.3233C21.6285 24.2829 21.6833 24.2603 21.7404 24.2603H22.6545L23.1834 24.3964L23.7124 24.2603H24.6265C24.6836 24.2603 24.7383 24.2829 24.7787 24.3233C24.819 24.3637 24.8417 24.4184 24.8417 24.4755Z" fill="url(#paint41_linear_119_1800)"/>
<path d="M21.5251 25.9818V27.3616C21.5251 27.4186 21.5478 27.4734 21.5882 27.5137C21.6285 27.5541 21.6833 27.5768 21.7404 27.5768L23.1021 27.8592L24.6265 27.5768C24.6836 27.5768 24.7383 27.5541 24.7787 27.5137C24.819 27.4734 24.8417 27.4186 24.8417 27.3616V25.9818H21.5251Z" fill="url(#paint42_linear_119_1800)"/>
<path d="M24.8414 24.4755V27.3616C24.8414 27.4187 24.8188 27.4734 24.7784 27.5138C24.738 27.5541 24.6833 27.5768 24.6262 27.5768H23.1453V24.3867L23.1832 24.3964L23.7121 24.2603H24.6263C24.6833 24.2603 24.7381 24.2829 24.7784 24.3233C24.8188 24.3637 24.8414 24.4184 24.8414 24.4755Z" fill="url(#paint43_linear_119_1800)"/>
<path d="M22.6804 25.0913L24.842 27.2529V24.4755C24.842 24.4184 24.8194 24.3636 24.779 24.3233C24.7386 24.2829 24.6839 24.2603 24.6268 24.2603H23.7127L23.7126 24.2603L22.6804 25.0913Z" fill="url(#paint44_linear_119_1800)"/>
<path d="M23.6351 25.1168H22.7321C22.722 25.1168 22.7119 25.1148 22.7025 25.1109C22.6931 25.1071 22.6846 25.1014 22.6774 25.0942C22.6702 25.087 22.6645 25.0785 22.6607 25.0691C22.6568 25.0597 22.6548 25.0496 22.6548 25.0395V24.2603H23.7125V25.0395C23.7125 25.0496 23.7105 25.0597 23.7066 25.0691C23.7027 25.0785 23.697 25.087 23.6899 25.0942C23.6827 25.1014 23.6741 25.1071 23.6647 25.1109C23.6554 25.1148 23.6453 25.1168 23.6351 25.1168Z" fill="url(#paint45_linear_119_1800)"/>
<path d="M23.6351 25.1168H22.7321C22.722 25.1168 22.7119 25.1148 22.7025 25.1109C22.6931 25.107 22.6846 25.1013 22.6774 25.0941C22.6702 25.0869 22.6645 25.0784 22.6607 25.069C22.6568 25.0596 22.6548 25.0496 22.6548 25.0394V24.6453H23.7125V25.0394C23.7125 25.0496 23.7105 25.0596 23.7066 25.069C23.7027 25.0784 23.697 25.0869 23.6899 25.0941C23.6827 25.1013 23.6741 25.107 23.6647 25.1109C23.6554 25.1148 23.6453 25.1168 23.6351 25.1168Z" fill="url(#paint46_linear_119_1800)"/>
<path d="M23.1766 25.1168H23.6349C23.645 25.1168 23.6551 25.1148 23.6645 25.1109C23.6739 25.1071 23.6824 25.1014 23.6896 25.0942C23.6968 25.087 23.7025 25.0785 23.7064 25.0691C23.7102 25.0597 23.7122 25.0496 23.7122 25.0395V24.2603H23.1766V25.1168Z" fill="url(#paint47_linear_119_1800)"/>
<path d="M23.0527 27.1645H21.9507C21.9378 27.1645 21.9255 27.1594 21.9165 27.1503C21.9074 27.1412 21.9023 27.1289 21.9023 27.1161V26.4449C21.9023 26.4181 21.9239 26.3965 21.9507 26.3965H23.0527C23.0794 26.3965 23.1011 26.4181 23.1011 26.4449V27.1161C23.1011 27.1289 23.096 27.1412 23.0869 27.1503C23.0778 27.1594 23.0655 27.1645 23.0527 27.1645Z" fill="url(#paint48_linear_119_1800)"/>
<path d="M23.0523 26.3965H22.2167V27.1645H23.0523C23.0651 27.1645 23.0774 27.1594 23.0865 27.1503C23.0956 27.1412 23.1007 27.1289 23.1007 27.1161V26.4449C23.1007 26.432 23.0956 26.4197 23.0865 26.4107C23.0774 26.4016 23.0651 26.3965 23.0523 26.3965Z" fill="url(#paint49_linear_119_1800)"/>
<path d="M21.9023 26.6824V27.1163C21.9023 27.143 21.9239 27.1647 21.9507 27.1647H23.0527C23.0655 27.1647 23.0778 27.1596 23.0869 27.1505C23.096 27.1414 23.1011 27.1291 23.1011 27.1163V26.6824H21.9023Z" fill="url(#paint50_linear_119_1800)"/>
<path d="M28.1586 27.792V30.6782C28.1586 30.7064 28.153 30.7344 28.1422 30.7605C28.1314 30.7866 28.1156 30.8104 28.0956 30.8303C28.0756 30.8503 28.0519 30.8662 28.0257 30.877C27.9996 30.8878 27.9717 30.8934 27.9434 30.8934H25.0572C25.029 30.8934 25.001 30.8878 24.9749 30.877C24.9488 30.8662 24.9251 30.8503 24.9051 30.8303C24.8851 30.8104 24.8692 30.7866 24.8584 30.7605C24.8476 30.7344 24.842 30.7064 24.842 30.6782L24.5427 29.2883L24.842 27.792C24.842 27.7349 24.8647 27.6802 24.9051 27.6398C24.9454 27.5995 25.0002 27.5768 25.0572 27.5768H25.9714L26.5003 27.7129L27.0292 27.5768H27.9434C27.9717 27.5768 27.9996 27.5824 28.0257 27.5932C28.0519 27.604 28.0756 27.6199 28.0956 27.6398C28.1156 27.6598 28.1314 27.6836 28.1422 27.7097C28.153 27.7358 28.1586 27.7638 28.1586 27.792Z" fill="url(#paint51_linear_119_1800)"/>
<path d="M24.8417 29.2983V30.6781C24.8417 30.7064 24.8473 30.7344 24.8581 30.7605C24.8689 30.7866 24.8848 30.8103 24.9048 30.8303C24.9248 30.8503 24.9485 30.8662 24.9746 30.877C25.0007 30.8878 25.0287 30.8934 25.0569 30.8934H27.9431C27.9714 30.8934 27.9993 30.8878 28.0254 30.877C28.0516 30.8662 28.0753 30.8503 28.0953 30.8303C28.1153 30.8103 28.1311 30.7866 28.1419 30.7605C28.1527 30.7344 28.1583 30.7064 28.1583 30.6781V29.2983H24.8417Z" fill="url(#paint52_linear_119_1800)"/>
<path d="M28.1586 27.792V30.6782C28.1586 30.7064 28.153 30.7344 28.1422 30.7605C28.1314 30.7866 28.1155 30.8104 28.0955 30.8303C28.0755 30.8503 28.0518 30.8662 28.0257 30.877C27.9996 30.8878 27.9716 30.8934 27.9434 30.8934H26.4624V27.7032L26.5003 27.7129L27.0292 27.5768H27.9434C28.0005 27.5768 28.0552 27.5995 28.0955 27.6399C28.1359 27.6802 28.1586 27.735 28.1586 27.792Z" fill="url(#paint53_linear_119_1800)"/>
<path d="M25.9964 28.4078L28.158 30.5694V27.792C28.158 27.7638 28.1524 27.7358 28.1416 27.7097C28.1308 27.6836 28.115 27.6598 28.095 27.6398C28.075 27.6199 28.0513 27.604 28.0252 27.5932C27.999 27.5824 27.9711 27.5768 27.9428 27.5768H27.0286L27.0286 27.5769L25.9964 28.4078Z" fill="url(#paint54_linear_119_1800)"/>
<path d="M26.9517 28.4334H26.0487C26.0386 28.4334 26.0285 28.4314 26.0191 28.4275C26.0097 28.4236 26.0012 28.4179 25.994 28.4107C25.9868 28.4036 25.9811 28.395 25.9773 28.3856C25.9734 28.3762 25.9714 28.3662 25.9714 28.356V27.5768H27.0291V28.356C27.0291 28.3765 27.0209 28.3962 27.0064 28.4107C26.9919 28.4252 26.9722 28.4334 26.9517 28.4334Z" fill="url(#paint55_linear_119_1800)"/>
<path d="M26.9517 28.4333H26.0487C26.0386 28.4334 26.0285 28.4314 26.0191 28.4275C26.0097 28.4236 26.0012 28.4179 25.994 28.4107C25.9868 28.4035 25.9811 28.395 25.9773 28.3856C25.9734 28.3762 25.9714 28.3662 25.9714 28.356V27.9619H27.0291V28.356C27.0291 28.3765 27.0209 28.3962 27.0064 28.4107C26.9919 28.4252 26.9722 28.4333 26.9517 28.4333Z" fill="url(#paint56_linear_119_1800)"/>
<path d="M26.4932 28.4334H26.9515C26.9616 28.4334 26.9717 28.4314 26.9811 28.4275C26.9905 28.4236 26.999 28.4179 27.0062 28.4107C27.0134 28.4036 27.0191 28.395 27.023 28.3856C27.0268 28.3762 27.0288 28.3662 27.0288 28.356V27.5768H26.4932V28.4334Z" fill="url(#paint57_linear_119_1800)"/>
<path d="M26.3692 30.481H25.2672C25.2609 30.481 25.2546 30.4798 25.2487 30.4773C25.2428 30.4749 25.2375 30.4713 25.233 30.4668C25.2285 30.4624 25.2249 30.457 25.2225 30.4511C25.2201 30.4453 25.2188 30.439 25.2188 30.4326V29.7614C25.2188 29.7347 25.2405 29.713 25.2672 29.713H26.3692C26.396 29.713 26.4176 29.7347 26.4176 29.7614V30.4326C26.4176 30.4455 26.4125 30.4578 26.4034 30.4668C26.3944 30.4759 26.3821 30.481 26.3692 30.481Z" fill="url(#paint58_linear_119_1800)"/>
<path d="M26.3688 29.713H25.5333V30.481H26.3688C26.3816 30.481 26.3939 30.4759 26.403 30.4668C26.4121 30.4577 26.4172 30.4454 26.4172 30.4326V29.7614C26.4172 29.7486 26.4121 29.7363 26.403 29.7272C26.3939 29.7181 26.3816 29.713 26.3688 29.713Z" fill="url(#paint59_linear_119_1800)"/>
<path d="M25.2188 29.999V30.4329C25.2188 30.4596 25.2405 30.4813 25.2672 30.4813H26.3692C26.3821 30.4813 26.3944 30.4762 26.4034 30.4671C26.4125 30.458 26.4176 30.4457 26.4176 30.4329V29.999H25.2188Z" fill="url(#paint60_linear_119_1800)"/>
<path d="M24.8417 27.792V30.6782C24.8417 30.7064 24.8361 30.7344 24.8253 30.7605C24.8145 30.7866 24.7987 30.8104 24.7787 30.8303C24.7587 30.8503 24.735 30.8662 24.7089 30.877C24.6827 30.8878 24.6548 30.8934 24.6265 30.8934H21.7404C21.7121 30.8934 21.6841 30.8878 21.658 30.877C21.6319 30.8662 21.6082 30.8503 21.5882 30.8303C21.5682 30.8104 21.5523 30.7866 21.5415 30.7605C21.5307 30.7344 21.5251 30.7064 21.5251 30.6782V27.792C21.5251 27.7349 21.5478 27.6802 21.5882 27.6398C21.6285 27.5995 21.6833 27.5768 21.7404 27.5768H22.6545L23.1834 27.7129L23.7124 27.5768H24.6265C24.6836 27.5768 24.7383 27.5995 24.7787 27.6399C24.819 27.6802 24.8417 27.735 24.8417 27.792Z" fill="url(#paint61_linear_119_1800)"/>
<path d="M21.5251 29.2983V30.6781C21.5251 30.7064 21.5307 30.7344 21.5415 30.7605C21.5523 30.7866 21.5682 30.8103 21.5882 30.8303C21.6082 30.8503 21.6319 30.8662 21.658 30.877C21.6841 30.8878 21.7121 30.8934 21.7404 30.8934H24.6265C24.6548 30.8934 24.6827 30.8878 24.7089 30.877C24.735 30.8662 24.7587 30.8503 24.7787 30.8303C24.7987 30.8103 24.8145 30.7866 24.8253 30.7605C24.8361 30.7344 24.8417 30.7064 24.8417 30.6781V29.2983H21.5251Z" fill="url(#paint62_linear_119_1800)"/>
<path d="M24.8414 27.792V30.6782C24.8414 30.7064 24.8359 30.7344 24.825 30.7605C24.8142 30.7866 24.7984 30.8104 24.7784 30.8303C24.7584 30.8503 24.7347 30.8662 24.7086 30.877C24.6825 30.8878 24.6545 30.8934 24.6262 30.8934H23.1453V27.7032L23.1832 27.7129L23.7121 27.5768H24.6263C24.6833 27.5768 24.7381 27.5995 24.7784 27.6399C24.8188 27.6802 24.8414 27.735 24.8414 27.792Z" fill="url(#paint63_linear_119_1800)"/>
<path d="M22.6804 28.4078L24.842 30.5694V27.792C24.842 27.7349 24.8194 27.6802 24.779 27.6398C24.7386 27.5995 24.6839 27.5768 24.6268 27.5768H23.7127L23.7126 27.5769L22.6804 28.4078Z" fill="url(#paint64_linear_119_1800)"/>
<path d="M23.6351 28.4334H22.7321C22.722 28.4334 22.7119 28.4314 22.7025 28.4275C22.6931 28.4236 22.6846 28.4179 22.6774 28.4107C22.6702 28.4036 22.6645 28.395 22.6607 28.3856C22.6568 28.3762 22.6548 28.3662 22.6548 28.356V27.5768H23.7125V28.356C23.7125 28.3662 23.7105 28.3762 23.7066 28.3856C23.7027 28.395 23.697 28.4036 23.6899 28.4107C23.6827 28.4179 23.6741 28.4236 23.6647 28.4275C23.6554 28.4314 23.6453 28.4334 23.6351 28.4334Z" fill="url(#paint65_linear_119_1800)"/>
<path d="M23.6351 28.4333H22.7321C22.722 28.4334 22.7119 28.4314 22.7025 28.4275C22.6931 28.4236 22.6846 28.4179 22.6774 28.4107C22.6702 28.4035 22.6645 28.395 22.6607 28.3856C22.6568 28.3762 22.6548 28.3662 22.6548 28.356V27.9619H23.7125V28.356C23.7125 28.3662 23.7105 28.3762 23.7066 28.3856C23.7027 28.395 23.697 28.4035 23.6899 28.4107C23.6827 28.4179 23.6741 28.4236 23.6647 28.4275C23.6554 28.4314 23.6453 28.4334 23.6351 28.4333Z" fill="url(#paint66_linear_119_1800)"/>
<path d="M23.1766 28.4334H23.6349C23.645 28.4334 23.6551 28.4314 23.6645 28.4275C23.6739 28.4236 23.6824 28.4179 23.6896 28.4107C23.6968 28.4036 23.7025 28.395 23.7064 28.3856C23.7102 28.3762 23.7122 28.3662 23.7122 28.356V27.5768H23.1766V28.4334Z" fill="url(#paint67_linear_119_1800)"/>
<path d="M23.0527 30.481H21.9507C21.9378 30.481 21.9255 30.4759 21.9165 30.4668C21.9074 30.4578 21.9023 30.4455 21.9023 30.4326V29.7614C21.9023 29.7347 21.9239 29.713 21.9507 29.713H23.0527C23.0794 29.713 23.1011 29.7347 23.1011 29.7614V30.4326C23.1011 30.4455 23.096 30.4578 23.0869 30.4668C23.0778 30.4759 23.0655 30.481 23.0527 30.481Z" fill="url(#paint68_linear_119_1800)"/>
<path d="M23.0523 29.713H22.2167V30.481H23.0523C23.0651 30.481 23.0774 30.4759 23.0865 30.4668C23.0956 30.4577 23.1007 30.4454 23.1007 30.4326V29.7614C23.1007 29.7486 23.0955 29.7363 23.0865 29.7272C23.0774 29.7181 23.0651 29.713 23.0523 29.713Z" fill="url(#paint69_linear_119_1800)"/>
<path d="M21.9023 29.999V30.4329C21.9023 30.4596 21.9239 30.4813 21.9507 30.4813H23.0527C23.0655 30.4813 23.0778 30.4762 23.0869 30.4671C23.096 30.458 23.1011 30.4457 23.1011 30.4329V29.999H21.9023Z" fill="url(#paint70_linear_119_1800)"/>
<path d="M30.5103 21.7633L29.7633 24.5511C29.756 24.5784 29.7434 24.604 29.7262 24.6264C29.709 24.6489 29.6875 24.6677 29.6631 24.6818C29.6386 24.6959 29.6116 24.7051 29.5835 24.7088C29.5555 24.7125 29.527 24.7106 29.4997 24.7033L26.7119 23.9563C26.6846 23.949 26.659 23.9364 26.6366 23.9192C26.6142 23.902 26.5954 23.8805 26.5813 23.856C26.5671 23.8316 26.558 23.8045 26.5543 23.7765C26.5506 23.7485 26.5525 23.72 26.5598 23.6927L27.3067 20.9049C27.3215 20.8498 27.3576 20.8028 27.407 20.7743C27.4564 20.7457 27.5152 20.738 27.5703 20.7528L28.4533 20.9893L28.929 21.2577L29.4751 21.2632L30.3581 21.4997C30.3854 21.507 30.411 21.5197 30.4334 21.5369C30.4558 21.5541 30.4747 21.5755 30.4888 21.6C30.5029 21.6245 30.5121 21.6515 30.5158 21.6795C30.5195 21.7076 30.5176 21.736 30.5103 21.7633Z" fill="url(#paint71_linear_119_1800)"/>
<path d="M26.9169 22.3599L26.5598 23.6926C26.545 23.7478 26.5527 23.8065 26.5813 23.8559C26.6098 23.9053 26.6568 23.9414 26.7119 23.9562L29.4998 24.7032C29.5549 24.7179 29.6136 24.7102 29.6631 24.6817C29.7125 24.6531 29.7486 24.6061 29.7633 24.551L30.1205 23.2182L26.9169 22.3599Z" fill="url(#paint72_linear_119_1800)"/>
<path d="M30.5105 21.7636L29.7635 24.5514C29.7562 24.5787 29.7436 24.6042 29.7264 24.6267C29.7092 24.6491 29.6877 24.6679 29.6632 24.682C29.6387 24.6962 29.6117 24.7053 29.5837 24.709C29.5557 24.7127 29.5272 24.7108 29.4999 24.7035L28.0694 24.3202L28.8951 21.2388L28.9292 21.258L29.4753 21.2634L30.3583 21.5C30.3856 21.5073 30.4112 21.5199 30.4336 21.5371C30.456 21.5543 30.4749 21.5758 30.489 21.6002C30.5031 21.6247 30.5123 21.6517 30.516 21.6798C30.5197 21.7078 30.5178 21.7363 30.5105 21.7636Z" fill="url(#paint73_linear_119_1800)"/>
<path d="M28.2631 21.7982L29.7916 24.4456L30.5105 21.7629C30.5252 21.7077 30.5175 21.649 30.489 21.5996C30.4604 21.5501 30.4134 21.5141 30.3583 21.4993L29.4753 21.2627H29.4752L28.2631 21.7982Z" fill="url(#paint74_linear_119_1800)"/>
<path d="M29.179 22.0704L28.3068 21.8367C28.287 21.8314 28.2701 21.8184 28.2598 21.8006C28.2496 21.7829 28.2468 21.7618 28.2521 21.7419L28.4538 20.9893L29.4754 21.263L29.2737 22.0157C29.2684 22.0355 29.2555 22.0524 29.2377 22.0626C29.2199 22.0729 29.1988 22.0757 29.179 22.0704Z" fill="url(#paint75_linear_119_1800)"/>
<path d="M29.179 22.0697L28.3068 21.836C28.287 21.8307 28.2701 21.8177 28.2598 21.8C28.2496 21.7822 28.2468 21.7611 28.2521 21.7413L28.3541 21.3607L29.3757 21.6344L29.2737 22.015C29.2684 22.0348 29.2555 22.0517 29.2377 22.062C29.2199 22.0722 29.1988 22.075 29.179 22.0697Z" fill="url(#paint76_linear_119_1800)"/>
<path d="M28.7359 21.9511L29.1786 22.0697C29.1884 22.0723 29.1986 22.073 29.2087 22.0717C29.2188 22.0704 29.2285 22.0671 29.2373 22.062C29.2461 22.0569 29.2538 22.0501 29.26 22.0421C29.2662 22.034 29.2707 22.0248 29.2733 22.015L29.475 21.2623L28.9576 21.1237L28.7359 21.9511Z" fill="url(#paint77_linear_119_1800)"/>
<path d="M28.0862 23.8978L27.0218 23.6126C27.0094 23.6092 26.9988 23.6011 26.9924 23.59C26.986 23.5789 26.9842 23.5657 26.9875 23.5533L27.1612 22.905C27.1646 22.8926 27.1727 22.882 27.1838 22.8756C27.1949 22.8692 27.2081 22.8675 27.2205 22.8708L28.285 23.156C28.2974 23.1593 28.308 23.1674 28.3144 23.1786C28.3208 23.1897 28.3225 23.2029 28.3192 23.2153L28.1455 23.8636C28.1422 23.876 28.1341 23.8865 28.123 23.8929C28.1118 23.8994 28.0986 23.9011 28.0862 23.8978Z" fill="url(#paint78_linear_119_1800)"/>
<path d="M28.2851 23.156L27.4781 22.9398L27.2793 23.6816L28.0864 23.8978C28.0988 23.9011 28.112 23.8994 28.1231 23.893C28.1342 23.8866 28.1423 23.876 28.1456 23.8636L28.3193 23.2153C28.321 23.2092 28.3214 23.2028 28.3206 23.1965C28.3198 23.1901 28.3177 23.1841 28.3145 23.1786C28.3113 23.1731 28.3071 23.1682 28.3021 23.1644C28.297 23.1605 28.2913 23.1576 28.2851 23.156Z" fill="url(#paint79_linear_119_1800)"/>
<path d="M27.0999 23.1335L26.9875 23.5526C26.9842 23.5649 26.986 23.5782 26.9924 23.5893C26.9988 23.6004 27.0094 23.6085 27.0218 23.6118L28.0862 23.897C28.0986 23.9004 28.1118 23.8986 28.123 23.8922C28.1341 23.8858 28.1422 23.8752 28.1455 23.8628L28.2578 23.4437L27.0999 23.1335Z" fill="url(#paint80_linear_119_1800)"/>
</g>
<path d="M62.4261 18.5H61.1932C61.1203 18.1454 60.9927 17.8338 60.8104 17.5653C60.6314 17.2969 60.4126 17.0715 60.1541 16.8892C59.8989 16.7036 59.6155 16.5644 59.304 16.4716C58.9924 16.3788 58.6676 16.3324 58.3295 16.3324C57.7131 16.3324 57.1546 16.4882 56.6541 16.7997C56.157 17.1113 55.7609 17.5703 55.4659 18.1768C55.1742 18.7834 55.0284 19.5275 55.0284 20.4091C55.0284 21.2907 55.1742 22.0348 55.4659 22.6413C55.7609 23.2479 56.157 23.7069 56.6541 24.0185C57.1546 24.33 57.7131 24.4858 58.3295 24.4858C58.6676 24.4858 58.9924 24.4394 59.304 24.3466C59.6155 24.2538 59.8989 24.1162 60.1541 23.9339C60.4126 23.7483 60.6314 23.5213 60.8104 23.2528C60.9927 22.9811 61.1203 22.6695 61.1932 22.3182H62.4261C62.3333 22.8385 62.1643 23.3042 61.919 23.7152C61.6738 24.1262 61.3688 24.4759 61.0043 24.7642C60.6397 25.0492 60.2304 25.2663 59.7763 25.4155C59.3255 25.5646 58.8433 25.6392 58.3295 25.6392C57.4612 25.6392 56.6889 25.4271 56.0128 25.0028C55.3366 24.5786 54.8047 23.9754 54.4169 23.1932C54.0291 22.411 53.8352 21.483 53.8352 20.4091C53.8352 19.3352 54.0291 18.4072 54.4169 17.625C54.8047 16.8428 55.3366 16.2396 56.0128 15.8153C56.6889 15.3911 57.4612 15.179 58.3295 15.179C58.8433 15.179 59.3255 15.2536 59.7763 15.4027C60.2304 15.5518 60.6397 15.7706 61.0043 16.0589C61.3688 16.344 61.6738 16.692 61.919 17.103C62.1643 17.5107 62.3333 17.9763 62.4261 18.5ZM65.4327 15.3182V25.5H64.2594V15.3182H65.4327ZM70.6839 25.6591C69.9946 25.6591 69.3897 25.495 68.8693 25.1669C68.3523 24.8388 67.9479 24.3797 67.6562 23.7898C67.3679 23.1998 67.2237 22.5104 67.2237 21.7216C67.2237 20.9261 67.3679 20.2318 67.6562 19.6385C67.9479 19.0452 68.3523 18.5845 68.8693 18.2564C69.3897 17.9283 69.9946 17.7642 70.6839 17.7642C71.3733 17.7642 71.9766 17.9283 72.4936 18.2564C73.014 18.5845 73.4183 19.0452 73.7067 19.6385C73.9983 20.2318 74.1442 20.9261 74.1442 21.7216C74.1442 22.5104 73.9983 23.1998 73.7067 23.7898C73.4183 24.3797 73.014 24.8388 72.4936 25.1669C71.9766 25.495 71.3733 25.6591 70.6839 25.6591ZM70.6839 24.6051C71.2076 24.6051 71.6385 24.4709 71.9766 24.2024C72.3146 23.9339 72.5649 23.581 72.7273 23.1435C72.8897 22.706 72.9709 22.232 72.9709 21.7216C72.9709 21.2112 72.8897 20.7356 72.7273 20.2947C72.5649 19.8539 72.3146 19.4976 71.9766 19.2259C71.6385 18.9541 71.2076 18.8182 70.6839 18.8182C70.1603 18.8182 69.7294 18.9541 69.3913 19.2259C69.0533 19.4976 68.803 19.8539 68.6406 20.2947C68.4782 20.7356 68.397 21.2112 68.397 21.7216C68.397 22.232 68.4782 22.706 68.6406 23.1435C68.803 23.581 69.0533 23.9339 69.3913 24.2024C69.7294 24.4709 70.1603 24.6051 70.6839 24.6051ZM80.7477 22.3778V17.8636H81.921V25.5H80.7477V24.2074H80.6681C80.4892 24.5952 80.2108 24.925 79.8329 25.1967C79.4551 25.4652 78.9778 25.5994 78.4011 25.5994C77.9238 25.5994 77.4996 25.495 77.1284 25.2862C76.7572 25.0741 76.4655 24.7559 76.2534 24.3317C76.0413 23.9041 75.9352 23.3655 75.9352 22.7159V17.8636H77.1085V22.6364C77.1085 23.1932 77.2643 23.6373 77.5758 23.9688C77.8907 24.3002 78.2917 24.4659 78.7789 24.4659C79.0706 24.4659 79.3672 24.3913 79.6689 24.2422C79.9738 24.093 80.229 23.8643 80.4345 23.5561C80.6433 23.2479 80.7477 22.8551 80.7477 22.3778ZM86.9535 25.6591C86.3171 25.6591 85.7553 25.4983 85.2681 25.1768C84.7809 24.852 84.3997 24.3946 84.1246 23.8047C83.8496 23.2114 83.712 22.5104 83.712 21.7017C83.712 20.8996 83.8496 20.2036 84.1246 19.6136C84.3997 19.0237 84.7826 18.5679 85.2731 18.2464C85.7636 17.925 86.3304 17.7642 86.9734 17.7642C87.4705 17.7642 87.8633 17.8471 88.1516 18.0128C88.4433 18.1752 88.6654 18.3608 88.8178 18.5696C88.9736 18.7751 89.0946 18.9441 89.1808 19.0767H89.2802V15.3182H90.4535V25.5H89.32V24.3267H89.1808C89.0946 24.4659 88.9719 24.6416 88.8129 24.8537C88.6538 25.0625 88.4267 25.2498 88.1317 25.4155C87.8368 25.5779 87.444 25.6591 86.9535 25.6591ZM87.1126 24.6051C87.5832 24.6051 87.9809 24.4825 88.3058 24.2372C88.6306 23.9886 88.8775 23.6456 89.0465 23.2081C89.2156 22.7673 89.3001 22.2585 89.3001 21.6818C89.3001 21.1117 89.2172 20.6129 89.0515 20.1854C88.8858 19.7545 88.6405 19.4197 88.3157 19.1811C87.9909 18.9392 87.5898 18.8182 87.1126 18.8182C86.6154 18.8182 86.2011 18.9458 85.8697 19.201C85.5415 19.4529 85.2946 19.7959 85.1289 20.2301C84.9665 20.661 84.8853 21.1449 84.8853 21.6818C84.8853 22.2254 84.9682 22.7192 85.1339 23.1634C85.3029 23.6042 85.5515 23.9555 85.8796 24.2173C86.2111 24.4759 86.622 24.6051 87.1126 24.6051ZM100.004 25.5H96.8619V15.3182H100.143C101.131 15.3182 101.976 15.522 102.679 15.9297C103.381 16.334 103.92 16.9157 104.294 17.6747C104.669 18.4304 104.856 19.3352 104.856 20.3892C104.856 21.4498 104.667 22.3629 104.289 23.1286C103.912 23.8909 103.361 24.4775 102.639 24.8885C101.916 25.2962 101.038 25.5 100.004 25.5ZM98.0948 24.4062H99.9244C100.766 24.4062 101.464 24.2438 102.017 23.919C102.571 23.5942 102.984 23.1319 103.255 22.532C103.527 21.9321 103.663 21.2178 103.663 20.3892C103.663 19.5672 103.529 18.8596 103.26 18.2663C102.992 17.6697 102.591 17.2124 102.057 16.8942C101.524 16.5727 100.859 16.4119 100.064 16.4119H98.0948V24.4062ZM109.012 25.679C108.529 25.679 108.089 25.5878 107.695 25.4055C107.301 25.2199 106.987 24.9531 106.755 24.6051C106.523 24.2538 106.407 23.8295 106.407 23.3324C106.407 22.8949 106.493 22.5402 106.666 22.2685C106.838 21.9934 107.069 21.7779 107.357 21.6222C107.645 21.4664 107.963 21.3504 108.311 21.2741C108.663 21.1946 109.016 21.1316 109.37 21.0852C109.834 21.0256 110.211 20.9808 110.499 20.951C110.791 20.9179 111.003 20.8632 111.135 20.7869C111.271 20.7107 111.339 20.5781 111.339 20.3892V20.3494C111.339 19.8589 111.205 19.4777 110.936 19.206C110.671 18.9342 110.269 18.7983 109.728 18.7983C109.168 18.7983 108.729 18.9209 108.411 19.1662C108.093 19.4115 107.869 19.6733 107.74 19.9517L106.626 19.554C106.825 19.09 107.09 18.7287 107.422 18.4702C107.756 18.2083 108.121 18.026 108.515 17.9233C108.913 17.8172 109.304 17.7642 109.689 17.7642C109.934 17.7642 110.216 17.794 110.534 17.8537C110.855 17.91 111.165 18.0277 111.463 18.2067C111.765 18.3857 112.015 18.6558 112.214 19.017C112.413 19.3783 112.512 19.8622 112.512 20.4688V25.5H111.339V24.4659H111.279C111.2 24.6316 111.067 24.8089 110.882 24.9979C110.696 25.1868 110.449 25.3475 110.141 25.4801C109.833 25.6127 109.457 25.679 109.012 25.679ZM109.191 24.625C109.655 24.625 110.047 24.5339 110.365 24.3516C110.686 24.1693 110.928 23.9339 111.091 23.6456C111.256 23.3572 111.339 23.054 111.339 22.7358V21.6619C111.289 21.7216 111.18 21.7763 111.011 21.826C110.845 21.8724 110.653 21.9138 110.434 21.9503C110.219 21.9834 110.008 22.0133 109.803 22.0398C109.601 22.063 109.437 22.0829 109.311 22.0994C109.006 22.1392 108.721 22.2038 108.456 22.2933C108.194 22.3795 107.982 22.5104 107.819 22.6861C107.66 22.8584 107.581 23.0937 107.581 23.392C107.581 23.7997 107.731 24.108 108.033 24.3168C108.338 24.5223 108.724 24.625 109.191 24.625ZM117.975 17.8636V18.858H114.018V17.8636H117.975ZM115.171 16.0341H116.344V23.3125C116.344 23.6439 116.392 23.8925 116.488 24.0582C116.588 24.2206 116.714 24.33 116.866 24.3864C117.022 24.4394 117.186 24.4659 117.358 24.4659C117.488 24.4659 117.594 24.4593 117.677 24.446C117.76 24.4295 117.826 24.4162 117.876 24.4062L118.114 25.4602C118.035 25.4901 117.924 25.5199 117.781 25.5497C117.639 25.5829 117.458 25.5994 117.239 25.5994C116.908 25.5994 116.583 25.5282 116.265 25.3857C115.95 25.2431 115.688 25.026 115.479 24.7344C115.274 24.4427 115.171 24.0748 115.171 23.6307V16.0341ZM121.987 25.679C121.503 25.679 121.064 25.5878 120.67 25.4055C120.275 25.2199 119.962 24.9531 119.73 24.6051C119.498 24.2538 119.382 23.8295 119.382 23.3324C119.382 22.8949 119.468 22.5402 119.64 22.2685C119.813 21.9934 120.043 21.7779 120.331 21.6222C120.62 21.4664 120.938 21.3504 121.286 21.2741C121.637 21.1946 121.99 21.1316 122.345 21.0852C122.809 21.0256 123.185 20.9808 123.474 20.951C123.765 20.9179 123.977 20.8632 124.11 20.7869C124.246 20.7107 124.314 20.5781 124.314 20.3892V20.3494C124.314 19.8589 124.18 19.4777 123.911 19.206C123.646 18.9342 123.243 18.7983 122.703 18.7983C122.143 18.7983 121.704 18.9209 121.385 19.1662C121.067 19.4115 120.844 19.6733 120.714 19.9517L119.601 19.554C119.8 19.09 120.065 18.7287 120.396 18.4702C120.731 18.2083 121.095 18.026 121.49 17.9233C121.888 17.8172 122.279 17.7642 122.663 17.7642C122.908 17.7642 123.19 17.794 123.508 17.8537C123.83 17.91 124.14 18.0277 124.438 18.2067C124.74 18.3857 124.99 18.6558 125.189 19.017C125.388 19.3783 125.487 19.8622 125.487 20.4688V25.5H124.314V24.4659H124.254C124.175 24.6316 124.042 24.8089 123.856 24.9979C123.671 25.1868 123.424 25.3475 123.116 25.4801C122.807 25.6127 122.431 25.679 121.987 25.679ZM122.166 24.625C122.63 24.625 123.021 24.5339 123.339 24.3516C123.661 24.1693 123.903 23.9339 124.065 23.6456C124.231 23.3572 124.314 23.054 124.314 22.7358V21.6619C124.264 21.7216 124.155 21.7763 123.986 21.826C123.82 21.8724 123.628 21.9138 123.409 21.9503C123.193 21.9834 122.983 22.0133 122.778 22.0398C122.575 22.063 122.411 22.0829 122.285 22.0994C121.98 22.1392 121.695 22.2038 121.43 22.2933C121.168 22.3795 120.956 22.5104 120.794 22.6861C120.635 22.8584 120.555 23.0937 120.555 23.392C120.555 23.7997 120.706 24.108 121.008 24.3168C121.313 24.5223 121.699 24.625 122.166 24.625ZM131.725 25.5V15.3182H132.958V24.4062H137.691V25.5H131.725ZM141.688 25.679C141.204 25.679 140.765 25.5878 140.371 25.4055C139.976 25.2199 139.663 24.9531 139.431 24.6051C139.199 24.2538 139.083 23.8295 139.083 23.3324C139.083 22.8949 139.169 22.5402 139.342 22.2685C139.514 21.9934 139.744 21.7779 140.033 21.6222C140.321 21.4664 140.639 21.3504 140.987 21.2741C141.339 21.1946 141.692 21.1316 142.046 21.0852C142.51 21.0256 142.886 20.9808 143.175 20.951C143.466 20.9179 143.679 20.8632 143.811 20.7869C143.947 20.7107 144.015 20.5781 144.015 20.3892V20.3494C144.015 19.8589 143.881 19.4777 143.612 19.206C143.347 18.9342 142.944 18.7983 142.404 18.7983C141.844 18.7983 141.405 18.9209 141.087 19.1662C140.768 19.4115 140.545 19.6733 140.415 19.9517L139.302 19.554C139.501 19.09 139.766 18.7287 140.097 18.4702C140.432 18.2083 140.797 18.026 141.191 17.9233C141.589 17.8172 141.98 17.7642 142.364 17.7642C142.61 17.7642 142.891 17.794 143.21 17.8537C143.531 17.91 143.841 18.0277 144.139 18.2067C144.441 18.3857 144.691 18.6558 144.89 19.017C145.089 19.3783 145.188 19.8622 145.188 20.4688V25.5H144.015V24.4659H143.955C143.876 24.6316 143.743 24.8089 143.558 24.9979C143.372 25.1868 143.125 25.3475 142.817 25.4801C142.509 25.6127 142.132 25.679 141.688 25.679ZM141.867 24.625C142.331 24.625 142.722 24.5339 143.04 24.3516C143.362 24.1693 143.604 23.9339 143.766 23.6456C143.932 23.3572 144.015 23.054 144.015 22.7358V21.6619C143.965 21.7216 143.856 21.7763 143.687 21.826C143.521 21.8724 143.329 21.9138 143.11 21.9503C142.895 21.9834 142.684 22.0133 142.479 22.0398C142.277 22.063 142.112 22.0829 141.987 22.0994C141.682 22.1392 141.397 22.2038 141.131 22.2933C140.87 22.3795 140.657 22.5104 140.495 22.6861C140.336 22.8584 140.256 23.0937 140.256 23.392C140.256 23.7997 140.407 24.108 140.709 24.3168C141.014 24.5223 141.4 24.625 141.867 24.625ZM148.423 22.7159L148.404 21.2642H148.642L151.983 17.8636H153.435L149.875 21.4631H149.776L148.423 22.7159ZM147.33 25.5V15.3182H148.503V25.5H147.33ZM152.182 25.5L149.199 21.7216L150.034 20.9062L153.673 25.5H152.182ZM157.832 25.6591C157.096 25.6591 156.462 25.4967 155.928 25.1719C155.398 24.8438 154.988 24.3864 154.7 23.7997C154.415 23.2098 154.273 22.5237 154.273 21.7415C154.273 20.9593 154.415 20.2699 154.7 19.6733C154.988 19.0734 155.39 18.6061 155.903 18.2713C156.42 17.9332 157.023 17.7642 157.713 17.7642C158.111 17.7642 158.503 17.8305 158.891 17.9631C159.279 18.0956 159.632 18.3111 159.95 18.6094C160.268 18.9044 160.522 19.2955 160.711 19.7827C160.9 20.2699 160.994 20.8698 160.994 21.5824V22.0795H155.108V21.0653H159.801C159.801 20.6345 159.715 20.25 159.542 19.9119C159.373 19.5739 159.131 19.3071 158.817 19.1115C158.505 18.916 158.137 18.8182 157.713 18.8182C157.246 18.8182 156.841 18.9342 156.5 19.1662C156.162 19.3949 155.902 19.6932 155.719 20.0611C155.537 20.429 155.446 20.8234 155.446 21.2443V21.9205C155.446 22.4972 155.545 22.986 155.744 23.3871C155.946 23.7848 156.226 24.0881 156.584 24.2969C156.942 24.5024 157.358 24.6051 157.832 24.6051C158.14 24.6051 158.419 24.562 158.667 24.4759C158.919 24.3864 159.136 24.2538 159.319 24.0781C159.501 23.8991 159.642 23.6771 159.741 23.4119L160.875 23.7301C160.756 24.1146 160.555 24.4527 160.273 24.7443C159.992 25.0327 159.644 25.258 159.229 25.4205C158.815 25.5795 158.349 25.6591 157.832 25.6591ZM168.188 19.5739L167.134 19.8722C167.068 19.6965 166.97 19.5258 166.841 19.3601C166.715 19.1911 166.542 19.0518 166.324 18.9425C166.105 18.8331 165.825 18.7784 165.483 18.7784C165.016 18.7784 164.627 18.8861 164.315 19.1016C164.007 19.3137 163.853 19.5838 163.853 19.9119C163.853 20.2036 163.959 20.4339 164.171 20.603C164.383 20.772 164.715 20.9129 165.165 21.0256L166.299 21.304C166.982 21.4697 167.49 21.7232 167.825 22.0646C168.16 22.4027 168.327 22.8385 168.327 23.3722C168.327 23.8097 168.201 24.2008 167.949 24.5455C167.701 24.8902 167.353 25.1619 166.905 25.3608C166.458 25.5597 165.938 25.6591 165.344 25.6591C164.565 25.6591 163.921 25.4901 163.41 25.152C162.9 24.8139 162.577 24.3201 162.441 23.6705L163.555 23.392C163.661 23.803 163.861 24.1113 164.156 24.3168C164.454 24.5223 164.844 24.625 165.324 24.625C165.871 24.625 166.305 24.509 166.627 24.277C166.952 24.0417 167.114 23.7599 167.114 23.4318C167.114 23.1667 167.021 22.9446 166.836 22.7656C166.65 22.5833 166.365 22.4474 165.981 22.358L164.708 22.0597C164.009 21.8939 163.495 21.6371 163.167 21.2891C162.842 20.9377 162.68 20.4986 162.68 19.9716C162.68 19.5407 162.8 19.1596 163.042 18.8281C163.288 18.4967 163.621 18.2365 164.042 18.0476C164.466 17.8587 164.947 17.7642 165.483 17.7642C166.239 17.7642 166.832 17.9299 167.263 18.2614C167.698 18.5928 168.006 19.0303 168.188 19.5739ZM176.278 25.679C175.794 25.679 175.355 25.5878 174.961 25.4055C174.566 25.2199 174.253 24.9531 174.021 24.6051C173.789 24.2538 173.673 23.8295 173.673 23.3324C173.673 22.8949 173.759 22.5402 173.931 22.2685C174.104 21.9934 174.334 21.7779 174.623 21.6222C174.911 21.4664 175.229 21.3504 175.577 21.2741C175.928 21.1946 176.281 21.1316 176.636 21.0852C177.1 21.0256 177.476 20.9808 177.765 20.951C178.056 20.9179 178.268 20.8632 178.401 20.7869C178.537 20.7107 178.605 20.5781 178.605 20.3892V20.3494C178.605 19.8589 178.471 19.4777 178.202 19.206C177.937 18.9342 177.534 18.7983 176.994 18.7983C176.434 18.7983 175.995 18.9209 175.676 19.1662C175.358 19.4115 175.135 19.6733 175.005 19.9517L173.892 19.554C174.091 19.09 174.356 18.7287 174.687 18.4702C175.022 18.2083 175.386 18.026 175.781 17.9233C176.179 17.8172 176.57 17.7642 176.954 17.7642C177.199 17.7642 177.481 17.794 177.799 17.8537C178.121 17.91 178.431 18.0277 178.729 18.2067C179.031 18.3857 179.281 18.6558 179.48 19.017C179.679 19.3783 179.778 19.8622 179.778 20.4688V25.5H178.605V24.4659H178.545C178.466 24.6316 178.333 24.8089 178.147 24.9979C177.962 25.1868 177.715 25.3475 177.407 25.4801C177.098 25.6127 176.722 25.679 176.278 25.679ZM176.457 24.625C176.921 24.625 177.312 24.5339 177.63 24.3516C177.952 24.1693 178.194 23.9339 178.356 23.6456C178.522 23.3572 178.605 23.054 178.605 22.7358V21.6619C178.555 21.7216 178.446 21.7763 178.277 21.826C178.111 21.8724 177.919 21.9138 177.7 21.9503C177.484 21.9834 177.274 22.0133 177.069 22.0398C176.866 22.063 176.702 22.0829 176.576 22.0994C176.271 22.1392 175.986 22.2038 175.721 22.2933C175.459 22.3795 175.247 22.5104 175.085 22.6861C174.926 22.8584 174.846 23.0937 174.846 23.392C174.846 23.7997 174.997 24.108 175.299 24.3168C175.604 24.5223 175.99 24.625 176.457 24.625ZM183.093 20.9062V25.5H181.92V17.8636H183.053V19.0568H183.153C183.331 18.669 183.603 18.3575 183.968 18.1222C184.332 17.8835 184.803 17.7642 185.38 17.7642C185.897 17.7642 186.349 17.8703 186.737 18.0824C187.125 18.2912 187.426 18.6094 187.642 19.0369C187.857 19.4612 187.965 19.9981 187.965 20.6477V25.5H186.792V20.7273C186.792 20.1274 186.636 19.66 186.324 19.3253C186.013 18.9872 185.585 18.8182 185.042 18.8182C184.667 18.8182 184.332 18.8994 184.037 19.0618C183.746 19.2242 183.515 19.4612 183.346 19.7727C183.177 20.0843 183.093 20.4621 183.093 20.9062ZM192.993 25.6591C192.356 25.6591 191.794 25.4983 191.307 25.1768C190.82 24.852 190.439 24.3946 190.164 23.8047C189.889 23.2114 189.751 22.5104 189.751 21.7017C189.751 20.8996 189.889 20.2036 190.164 19.6136C190.439 19.0237 190.822 18.5679 191.312 18.2464C191.803 17.925 192.369 17.7642 193.012 17.7642C193.51 17.7642 193.902 17.8471 194.191 18.0128C194.482 18.1752 194.704 18.3608 194.857 18.5696C195.013 18.7751 195.134 18.9441 195.22 19.0767H195.319V15.3182H196.493V25.5H195.359V24.3267H195.22C195.134 24.4659 195.011 24.6416 194.852 24.8537C194.693 25.0625 194.466 25.2498 194.171 25.4155C193.876 25.5779 193.483 25.6591 192.993 25.6591ZM193.152 24.6051C193.622 24.6051 194.02 24.4825 194.345 24.2372C194.67 23.9886 194.917 23.6456 195.086 23.2081C195.255 22.7673 195.339 22.2585 195.339 21.6818C195.339 21.1117 195.256 20.6129 195.091 20.1854C194.925 19.7545 194.68 19.4197 194.355 19.1811C194.03 18.9392 193.629 18.8182 193.152 18.8182C192.654 18.8182 192.24 18.9458 191.909 19.201C191.581 19.4529 191.334 19.7959 191.168 20.2301C191.006 20.661 190.924 21.1449 190.924 21.6818C190.924 22.2254 191.007 22.7192 191.173 23.1634C191.342 23.6042 191.591 23.9555 191.919 24.2173C192.25 24.4759 192.661 24.6051 193.152 24.6051ZM204.75 25.5L201.966 15.3182H203.219L205.347 23.6108H205.446L207.614 15.3182H209.006L211.174 23.6108H211.273L213.401 15.3182H214.654L211.87 25.5H210.597L208.35 17.3864H208.27L206.023 25.5H204.75ZM217.567 25.679C217.083 25.679 216.644 25.5878 216.25 25.4055C215.855 25.2199 215.542 24.9531 215.31 24.6051C215.078 24.2538 214.962 23.8295 214.962 23.3324C214.962 22.8949 215.048 22.5402 215.221 22.2685C215.393 21.9934 215.623 21.7779 215.912 21.6222C216.2 21.4664 216.518 21.3504 216.866 21.2741C217.217 21.1946 217.57 21.1316 217.925 21.0852C218.389 21.0256 218.765 20.9808 219.054 20.951C219.345 20.9179 219.557 20.8632 219.69 20.7869C219.826 20.7107 219.894 20.5781 219.894 20.3892V20.3494C219.894 19.8589 219.76 19.4777 219.491 19.206C219.226 18.9342 218.823 18.7983 218.283 18.7983C217.723 18.7983 217.284 18.9209 216.966 19.1662C216.647 19.4115 216.424 19.6733 216.294 19.9517L215.181 19.554C215.38 19.09 215.645 18.7287 215.976 18.4702C216.311 18.2083 216.676 18.026 217.07 17.9233C217.468 17.8172 217.859 17.7642 218.243 17.7642C218.489 17.7642 218.77 17.794 219.088 17.8537C219.41 17.91 219.72 18.0277 220.018 18.2067C220.32 18.3857 220.57 18.6558 220.769 19.017C220.968 19.3783 221.067 19.8622 221.067 20.4688V25.5H219.894V24.4659H219.834C219.755 24.6316 219.622 24.8089 219.436 24.9979C219.251 25.1868 219.004 25.3475 218.696 25.4801C218.387 25.6127 218.011 25.679 217.567 25.679ZM217.746 24.625C218.21 24.625 218.601 24.5339 218.919 24.3516C219.241 24.1693 219.483 23.9339 219.645 23.6456C219.811 23.3572 219.894 23.054 219.894 22.7358V21.6619C219.844 21.7216 219.735 21.7763 219.566 21.826C219.4 21.8724 219.208 21.9138 218.989 21.9503C218.774 21.9834 218.563 22.0133 218.358 22.0398C218.155 22.063 217.991 22.0829 217.865 22.0994C217.56 22.1392 217.275 22.2038 217.01 22.2933C216.748 22.3795 216.536 22.5104 216.374 22.6861C216.215 22.8584 216.135 23.0937 216.135 23.392C216.135 23.7997 216.286 24.108 216.588 24.3168C216.893 24.5223 217.279 24.625 217.746 24.625ZM223.209 25.5V17.8636H224.342V19.017H224.422C224.561 18.6392 224.813 18.3326 225.177 18.0973C225.542 17.862 225.953 17.7443 226.41 17.7443C226.497 17.7443 226.604 17.746 226.733 17.7493C226.863 17.7526 226.961 17.7576 227.027 17.7642V18.9574C226.987 18.9474 226.896 18.9325 226.753 18.9126C226.614 18.8894 226.467 18.8778 226.311 18.8778C225.94 18.8778 225.608 18.9557 225.317 19.1115C225.028 19.264 224.8 19.4761 224.631 19.7479C224.465 20.0163 224.382 20.3229 224.382 20.6676V25.5H223.209ZM231.387 25.6591C230.651 25.6591 230.016 25.4967 229.483 25.1719C228.952 24.8438 228.543 24.3864 228.255 23.7997C227.97 23.2098 227.827 22.5237 227.827 21.7415C227.827 20.9593 227.97 20.2699 228.255 19.6733C228.543 19.0734 228.944 18.6061 229.458 18.2713C229.975 17.9332 230.578 17.7642 231.268 17.7642C231.665 17.7642 232.058 17.8305 232.446 17.9631C232.834 18.0956 233.187 18.3111 233.505 18.6094C233.823 18.9044 234.077 19.2955 234.265 19.7827C234.454 20.2699 234.549 20.8698 234.549 21.5824V22.0795H228.662V21.0653H233.356C233.356 20.6345 233.269 20.25 233.097 19.9119C232.928 19.5739 232.686 19.3071 232.371 19.1115C232.06 18.916 231.692 18.8182 231.268 18.8182C230.8 18.8182 230.396 18.9342 230.055 19.1662C229.716 19.3949 229.456 19.6932 229.274 20.0611C229.092 20.429 229.001 20.8234 229.001 21.2443V21.9205C229.001 22.4972 229.1 22.986 229.299 23.3871C229.501 23.7848 229.781 24.0881 230.139 24.2969C230.497 24.5024 230.913 24.6051 231.387 24.6051C231.695 24.6051 231.974 24.562 232.222 24.4759C232.474 24.3864 232.691 24.2538 232.873 24.0781C233.056 23.8991 233.197 23.6771 233.296 23.4119L234.43 23.7301C234.31 24.1146 234.11 24.4527 233.828 24.7443C233.546 25.0327 233.198 25.258 232.784 25.4205C232.37 25.5795 231.904 25.6591 231.387 25.6591ZM237.507 20.9062V25.5H236.334V15.3182H237.507V19.0568H237.606C237.785 18.6624 238.054 18.3492 238.412 18.1172C238.773 17.8819 239.254 17.7642 239.854 17.7642C240.374 17.7642 240.83 17.8686 241.221 18.0774C241.612 18.2829 241.915 18.5994 242.131 19.027C242.349 19.4512 242.459 19.9915 242.459 20.6477V25.5H241.285V20.7273C241.285 20.1207 241.128 19.6518 240.813 19.3203C240.501 18.9856 240.069 18.8182 239.515 18.8182C239.131 18.8182 238.786 18.8994 238.481 19.0618C238.18 19.2242 237.941 19.4612 237.765 19.7727C237.593 20.0843 237.507 20.4621 237.507 20.9062ZM247.707 25.6591C247.018 25.6591 246.413 25.495 245.893 25.1669C245.376 24.8388 244.971 24.3797 244.68 23.7898C244.391 23.1998 244.247 22.5104 244.247 21.7216C244.247 20.9261 244.391 20.2318 244.68 19.6385C244.971 19.0452 245.376 18.5845 245.893 18.2564C246.413 17.9283 247.018 17.7642 247.707 17.7642C248.397 17.7642 249 17.9283 249.517 18.2564C250.037 18.5845 250.442 19.0452 250.73 19.6385C251.022 20.2318 251.168 20.9261 251.168 21.7216C251.168 22.5104 251.022 23.1998 250.73 23.7898C250.442 24.3797 250.037 24.8388 249.517 25.1669C249 25.495 248.397 25.6591 247.707 25.6591ZM247.707 24.6051C248.231 24.6051 248.662 24.4709 249 24.2024C249.338 23.9339 249.588 23.581 249.751 23.1435C249.913 22.706 249.994 22.232 249.994 21.7216C249.994 21.2112 249.913 20.7356 249.751 20.2947C249.588 19.8539 249.338 19.4976 249 19.2259C248.662 18.9541 248.231 18.8182 247.707 18.8182C247.184 18.8182 246.753 18.9541 246.415 19.2259C246.077 19.4976 245.826 19.8539 245.664 20.2947C245.502 20.7356 245.42 21.2112 245.42 21.7216C245.42 22.232 245.502 22.706 245.664 23.1435C245.826 23.581 246.077 23.9339 246.415 24.2024C246.753 24.4709 247.184 24.6051 247.707 24.6051ZM257.771 22.3778V17.8636H258.944V25.5H257.771V24.2074H257.692C257.513 24.5952 257.234 24.925 256.856 25.1967C256.479 25.4652 256.001 25.5994 255.425 25.5994C254.947 25.5994 254.523 25.495 254.152 25.2862C253.781 25.0741 253.489 24.7559 253.277 24.3317C253.065 23.9041 252.959 23.3655 252.959 22.7159V17.8636H254.132V22.6364C254.132 23.1932 254.288 23.6373 254.599 23.9688C254.914 24.3002 255.315 24.4659 255.802 24.4659C256.094 24.4659 256.391 24.3913 256.692 24.2422C256.997 24.093 257.252 23.8643 257.458 23.5561C257.667 23.2479 257.771 22.8551 257.771 22.3778ZM266.502 19.5739L265.449 19.8722C265.382 19.6965 265.284 19.5258 265.155 19.3601C265.029 19.1911 264.857 19.0518 264.638 18.9425C264.419 18.8331 264.139 18.7784 263.798 18.7784C263.331 18.7784 262.941 18.8861 262.63 19.1016C262.321 19.3137 262.167 19.5838 262.167 19.9119C262.167 20.2036 262.273 20.4339 262.485 20.603C262.698 20.772 263.029 20.9129 263.48 21.0256L264.613 21.304C265.296 21.4697 265.805 21.7232 266.14 22.0646C266.474 22.4027 266.642 22.8385 266.642 23.3722C266.642 23.8097 266.516 24.2008 266.264 24.5455C266.015 24.8902 265.667 25.1619 265.22 25.3608C264.772 25.5597 264.252 25.6591 263.659 25.6591C262.88 25.6591 262.235 25.4901 261.725 25.152C261.214 24.8139 260.891 24.3201 260.755 23.6705L261.869 23.392C261.975 23.803 262.176 24.1113 262.471 24.3168C262.769 24.5223 263.158 24.625 263.639 24.625C264.186 24.625 264.62 24.509 264.941 24.277C265.266 24.0417 265.429 23.7599 265.429 23.4318C265.429 23.1667 265.336 22.9446 265.15 22.7656C264.965 22.5833 264.68 22.4474 264.295 22.358L263.022 22.0597C262.323 21.8939 261.809 21.6371 261.481 21.2891C261.156 20.9377 260.994 20.4986 260.994 19.9716C260.994 19.5407 261.115 19.1596 261.357 18.8281C261.602 18.4967 261.935 18.2365 262.356 18.0476C262.78 17.8587 263.261 17.7642 263.798 17.7642C264.554 17.7642 265.147 17.9299 265.578 18.2614C266.012 18.5928 266.32 19.0303 266.502 19.5739ZM271.61 25.6591C270.874 25.6591 270.239 25.4967 269.705 25.1719C269.175 24.8438 268.766 24.3864 268.477 23.7997C268.192 23.2098 268.05 22.5237 268.05 21.7415C268.05 20.9593 268.192 20.2699 268.477 19.6733C268.766 19.0734 269.167 18.6061 269.681 18.2713C270.198 17.9332 270.801 17.7642 271.49 17.7642C271.888 17.7642 272.281 17.8305 272.669 17.9631C273.056 18.0956 273.409 18.3111 273.727 18.6094C274.046 18.9044 274.299 19.2955 274.488 19.7827C274.677 20.2699 274.771 20.8698 274.771 21.5824V22.0795H268.885V21.0653H273.578C273.578 20.6345 273.492 20.25 273.32 19.9119C273.151 19.5739 272.909 19.3071 272.594 19.1115C272.282 18.916 271.914 18.8182 271.49 18.8182C271.023 18.8182 270.619 18.9342 270.277 19.1662C269.939 19.3949 269.679 19.6932 269.497 20.0611C269.314 20.429 269.223 20.8234 269.223 21.2443V21.9205C269.223 22.4972 269.323 22.986 269.521 23.3871C269.724 23.7848 270.004 24.0881 270.362 24.2969C270.72 24.5024 271.136 24.6051 271.61 24.6051C271.918 24.6051 272.196 24.562 272.445 24.4759C272.697 24.3864 272.914 24.2538 273.096 24.0781C273.278 23.8991 273.419 23.6771 273.519 23.4119L274.652 23.7301C274.533 24.1146 274.332 24.4527 274.051 24.7443C273.769 25.0327 273.421 25.258 273.007 25.4205C272.592 25.5795 272.127 25.6591 271.61 25.6591ZM281.965 19.5739L280.911 19.8722C280.845 19.6965 280.747 19.5258 280.618 19.3601C280.492 19.1911 280.32 19.0518 280.101 18.9425C279.882 18.8331 279.602 18.7784 279.261 18.7784C278.794 18.7784 278.404 18.8861 278.093 19.1016C277.784 19.3137 277.63 19.5838 277.63 19.9119C277.63 20.2036 277.736 20.4339 277.948 20.603C278.16 20.772 278.492 20.9129 278.943 21.0256L280.076 21.304C280.759 21.4697 281.268 21.7232 281.602 22.0646C281.937 22.4027 282.105 22.8385 282.105 23.3722C282.105 23.8097 281.979 24.2008 281.727 24.5455C281.478 24.8902 281.13 25.1619 280.683 25.3608C280.235 25.5597 279.715 25.6591 279.122 25.6591C278.343 25.6591 277.698 25.4901 277.188 25.152C276.677 24.8139 276.354 24.3201 276.218 23.6705L277.332 23.392C277.438 23.803 277.638 24.1113 277.933 24.3168C278.232 24.5223 278.621 24.625 279.102 24.625C279.649 24.625 280.083 24.509 280.404 24.277C280.729 24.0417 280.892 23.7599 280.892 23.4318C280.892 23.1667 280.799 22.9446 280.613 22.7656C280.427 22.5833 280.142 22.4474 279.758 22.358L278.485 22.0597C277.786 21.8939 277.272 21.6371 276.944 21.2891C276.619 20.9377 276.457 20.4986 276.457 19.9716C276.457 19.5407 276.578 19.1596 276.82 18.8281C277.065 18.4967 277.398 18.2365 277.819 18.0476C278.243 17.8587 278.724 17.7642 279.261 17.7642C280.017 17.7642 280.61 17.9299 281.041 18.2614C281.475 18.5928 281.783 19.0303 281.965 19.5739Z" fill="#071518"/>
<defs>
<linearGradient id="paint0_linear_119_1800" x1="21.3351" y1="18.3845" x2="33.8039" y2="29.6233" gradientUnits="userSpaceOnUse">
<stop stop-color="#60B7FF"/>
<stop offset="1" stop-color="#0268B4"/>
</linearGradient>
<linearGradient id="paint1_linear_119_1800" x1="26.5" y1="18.4184" x2="26.5" y2="17.7142" gradientUnits="userSpaceOnUse">
<stop stop-color="#60B7FF"/>
<stop offset="1" stop-color="#0268B4"/>
</linearGradient>
<linearGradient id="paint2_linear_119_1800" x1="26.5" y1="17.4624" x2="26.5" y2="16.7583" gradientUnits="userSpaceOnUse">
<stop stop-color="#60B7FF"/>
<stop offset="1" stop-color="#0268B4"/>
</linearGradient>
<linearGradient id="paint3_linear_119_1800" x1="26.5" y1="16.5077" x2="26.5" y2="15.8035" gradientUnits="userSpaceOnUse">
<stop stop-color="#60B7FF"/>
<stop offset="1" stop-color="#0268B4"/>
</linearGradient>
<linearGradient id="paint4_linear_119_1800" x1="26.5" y1="15.5529" x2="26.5" y2="14.8488" gradientUnits="userSpaceOnUse">
<stop stop-color="#60B7FF"/>
<stop offset="1" stop-color="#0268B4"/>
</linearGradient>
<linearGradient id="paint5_linear_119_1800" x1="24.9104" y1="15.8469" x2="23.8586" y2="13.6592" gradientUnits="userSpaceOnUse">
<stop stop-color="#024C67" stop-opacity="0"/>
<stop offset="0.266" stop-color="#034664" stop-opacity="0.266"/>
<stop offset="0.609" stop-color="#06365B" stop-opacity="0.609"/>
<stop offset="0.994" stop-color="#0B1B4C" stop-opacity="0.994"/>
<stop offset="1" stop-color="#0B1B4C"/>
</linearGradient>
<linearGradient id="paint6_linear_119_1800" x1="28.09" y1="15.8469" x2="29.1418" y2="13.6592" gradientUnits="userSpaceOnUse">
<stop stop-color="#024C67" stop-opacity="0"/>
<stop offset="0.266" stop-color="#034664" stop-opacity="0.266"/>
<stop offset="0.609" stop-color="#06365B" stop-opacity="0.609"/>
<stop offset="0.994" stop-color="#0B1B4C" stop-opacity="0.994"/>
<stop offset="1" stop-color="#0B1B4C"/>
</linearGradient>
<linearGradient id="paint7_linear_119_1800" x1="33.9888" y1="20.7349" x2="36.6724" y2="20.7349" gradientUnits="userSpaceOnUse">
<stop stop-color="#024C67" stop-opacity="0"/>
<stop offset="0.266" stop-color="#034664" stop-opacity="0.266"/>
<stop offset="0.609" stop-color="#06365B" stop-opacity="0.609"/>
<stop offset="0.994" stop-color="#0B1B4C" stop-opacity="0.994"/>
<stop offset="1" stop-color="#0B1B4C"/>
</linearGradient>
<linearGradient id="paint8_linear_119_1800" x1="26.5003" y1="28.5545" x2="26.5003" y2="31.4002" gradientUnits="userSpaceOnUse">
<stop stop-color="#024C67" stop-opacity="0"/>
<stop offset="0.266" stop-color="#034664" stop-opacity="0.266"/>
<stop offset="0.609" stop-color="#06365B" stop-opacity="0.609"/>
<stop offset="0.994" stop-color="#0B1B4C" stop-opacity="0.994"/>
<stop offset="1" stop-color="#0B1B4C"/>
</linearGradient>
<linearGradient id="paint9_linear_119_1800" x1="26.5" y1="10.7702" x2="26.5" y2="17.7542" gradientUnits="userSpaceOnUse">
<stop stop-color="#F5FBFF"/>
<stop offset="1" stop-color="#DBD5EF"/>
</linearGradient>
<linearGradient id="paint10_linear_119_1800" x1="26.2921" y1="10.7928" x2="26.5165" y2="17.1036" gradientUnits="userSpaceOnUse">
<stop stop-color="#F5FBFF"/>
<stop offset="1" stop-color="#DBD5EF"/>
</linearGradient>
<linearGradient id="paint11_linear_119_1800" x1="26.5" y1="15.2856" x2="26.5" y2="10.1865" gradientUnits="userSpaceOnUse">
<stop stop-color="#DBD5EF" stop-opacity="0"/>
<stop offset="0.285" stop-color="#D9D2EE" stop-opacity="0.285"/>
<stop offset="0.474" stop-color="#D4C9E9" stop-opacity="0.474"/>
<stop offset="0.635" stop-color="#CBBAE2" stop-opacity="0.635"/>
<stop offset="0.779" stop-color="#BFA5D7" stop-opacity="0.78"/>
<stop offset="0.913" stop-color="#AF8ACA" stop-opacity="0.913"/>
<stop offset="1" stop-color="#A274BF"/>
</linearGradient>
<linearGradient id="paint12_linear_119_1800" x1="31.0442" y1="13.2658" x2="29.8162" y2="14.1625" gradientUnits="userSpaceOnUse">
<stop stop-color="#DBD5EF" stop-opacity="0"/>
<stop offset="0.285" stop-color="#D9D2EE" stop-opacity="0.285"/>
<stop offset="0.474" stop-color="#D4C9E9" stop-opacity="0.474"/>
<stop offset="0.635" stop-color="#CBBAE2" stop-opacity="0.635"/>
<stop offset="0.779" stop-color="#BFA5D7" stop-opacity="0.78"/>
<stop offset="0.913" stop-color="#AF8ACA" stop-opacity="0.913"/>
<stop offset="1" stop-color="#A274BF"/>
</linearGradient>
<linearGradient id="paint13_linear_119_1800" x1="35.9341" y1="15.4016" x2="37.1061" y2="15.4016" gradientUnits="userSpaceOnUse">
<stop stop-color="#DBD5EF" stop-opacity="0"/>
<stop offset="0.285" stop-color="#D9D2EE" stop-opacity="0.285"/>
<stop offset="0.474" stop-color="#D4C9E9" stop-opacity="0.474"/>
<stop offset="0.635" stop-color="#CBBAE2" stop-opacity="0.635"/>
<stop offset="0.779" stop-color="#BFA5D7" stop-opacity="0.78"/>
<stop offset="0.913" stop-color="#AF8ACA" stop-opacity="0.913"/>
<stop offset="1" stop-color="#A274BF"/>
</linearGradient>
<linearGradient id="paint14_linear_119_1800" x1="33.4577" y1="15.567" x2="33.4577" y2="17.9538" gradientUnits="userSpaceOnUse">
<stop stop-color="#DBD5EF" stop-opacity="0"/>
<stop offset="0.285" stop-color="#D9D2EE" stop-opacity="0.285"/>
<stop offset="0.474" stop-color="#D4C9E9" stop-opacity="0.474"/>
<stop offset="0.635" stop-color="#CBBAE2" stop-opacity="0.635"/>
<stop offset="0.779" stop-color="#BFA5D7" stop-opacity="0.78"/>
<stop offset="0.913" stop-color="#AF8ACA" stop-opacity="0.913"/>
<stop offset="1" stop-color="#A274BF"/>
</linearGradient>
<linearGradient id="paint15_linear_119_1800" x1="19.542" y1="15.5671" x2="19.542" y2="17.9538" gradientUnits="userSpaceOnUse">
<stop stop-color="#DBD5EF" stop-opacity="0"/>
<stop offset="0.285" stop-color="#D9D2EE" stop-opacity="0.285"/>
<stop offset="0.474" stop-color="#D4C9E9" stop-opacity="0.474"/>
<stop offset="0.635" stop-color="#CBBAE2" stop-opacity="0.635"/>
<stop offset="0.779" stop-color="#BFA5D7" stop-opacity="0.78"/>
<stop offset="0.913" stop-color="#AF8ACA" stop-opacity="0.913"/>
<stop offset="1" stop-color="#A274BF"/>
</linearGradient>
<linearGradient id="paint16_linear_119_1800" x1="24.502" y1="21.8068" x2="28.0691" y2="28.9411" gradientUnits="userSpaceOnUse">
<stop stop-color="#5A5A5A"/>
<stop offset="1" stop-color="#444444"/>
</linearGradient>
<linearGradient id="paint17_linear_119_1800" x1="23.7552" y1="25.5134" x2="20.5967" y2="25.5134" gradientUnits="userSpaceOnUse">
<stop stop-color="#433F43" stop-opacity="0"/>
<stop offset="0.344" stop-color="#403C40" stop-opacity="0.344"/>
<stop offset="0.622" stop-color="#363336" stop-opacity="0.622"/>
<stop offset="0.876" stop-color="#252425" stop-opacity="0.876"/>
<stop offset="1" stop-color="#1A1A1A"/>
</linearGradient>
<linearGradient id="paint18_linear_119_1800" x1="26.4998" y1="22.999" x2="26.4998" y2="20.3084" gradientUnits="userSpaceOnUse">
<stop stop-color="#433F43" stop-opacity="0"/>
<stop offset="0.344" stop-color="#403C40" stop-opacity="0.344"/>
<stop offset="0.622" stop-color="#363336" stop-opacity="0.622"/>
<stop offset="0.876" stop-color="#252425" stop-opacity="0.876"/>
<stop offset="1" stop-color="#1A1A1A"/>
</linearGradient>
<linearGradient id="paint19_linear_119_1800" x1="32.2964" y1="27.5543" x2="27.6474" y2="25.5807" gradientUnits="userSpaceOnUse">
<stop stop-color="#433F43" stop-opacity="0"/>
<stop offset="0.344" stop-color="#403C40" stop-opacity="0.344"/>
<stop offset="0.622" stop-color="#363336" stop-opacity="0.622"/>
<stop offset="0.876" stop-color="#252425" stop-opacity="0.876"/>
<stop offset="1" stop-color="#1A1A1A"/>
</linearGradient>
<linearGradient id="paint20_linear_119_1800" x1="32.1392" y1="29.3401" x2="31.4436" y2="29.2639" gradientUnits="userSpaceOnUse">
<stop stop-color="#433F43" stop-opacity="0"/>
<stop offset="0.344" stop-color="#403C40" stop-opacity="0.344"/>
<stop offset="0.622" stop-color="#363336" stop-opacity="0.622"/>
<stop offset="0.876" stop-color="#252425" stop-opacity="0.876"/>
<stop offset="1" stop-color="#1A1A1A"/>
</linearGradient>
<linearGradient id="paint21_linear_119_1800" x1="28.5633" y1="27.9819" x2="31.4933" y2="30.9119" gradientUnits="userSpaceOnUse">
<stop stop-color="#FEA613"/>
<stop offset="1" stop-color="#C4573A"/>
</linearGradient>
<linearGradient id="paint22_linear_119_1800" x1="29.8165" y1="30.2098" x2="29.8165" y2="30.9444" gradientUnits="userSpaceOnUse">
<stop stop-color="#C4573A" stop-opacity="0"/>
<stop offset="0.235" stop-color="#BE5539" stop-opacity="0.235"/>
<stop offset="0.539" stop-color="#AE4E35" stop-opacity="0.539"/>
<stop offset="0.879" stop-color="#934330" stop-opacity="0.879"/>
<stop offset="1" stop-color="#883F2E"/>
</linearGradient>
<linearGradient id="paint23_linear_119_1800" x1="30.8929" y1="29.2351" x2="31.5806" y2="29.2351" gradientUnits="userSpaceOnUse">
<stop stop-color="#C4573A" stop-opacity="0"/>
<stop offset="0.235" stop-color="#BE5539" stop-opacity="0.235"/>
<stop offset="0.539" stop-color="#AE4E35" stop-opacity="0.539"/>
<stop offset="0.879" stop-color="#934330" stop-opacity="0.879"/>
<stop offset="1" stop-color="#883F2E"/>
</linearGradient>
<linearGradient id="paint24_linear_119_1800" x1="30.9057" y1="28.7631" x2="29.9099" y2="27.4045" gradientUnits="userSpaceOnUse">
<stop stop-color="#C4573A" stop-opacity="0"/>
<stop offset="0.235" stop-color="#BE5539" stop-opacity="0.235"/>
<stop offset="0.539" stop-color="#AE4E35" stop-opacity="0.539"/>
<stop offset="0.879" stop-color="#934330" stop-opacity="0.879"/>
<stop offset="1" stop-color="#883F2E"/>
</linearGradient>
<linearGradient id="paint25_linear_119_1800" x1="29.4448" y1="27.7627" x2="30.3984" y2="28.3408" gradientUnits="userSpaceOnUse">
<stop stop-color="#FEF0AE"/>
<stop offset="1" stop-color="#FAC600"/>
</linearGradient>
<linearGradient id="paint26_linear_119_1800" x1="29.8168" y1="28.2151" x2="29.8168" y2="28.4514" gradientUnits="userSpaceOnUse">
<stop stop-color="#FE9738" stop-opacity="0"/>
<stop offset="1" stop-color="#FE9738"/>
</linearGradient>
<linearGradient id="paint27_linear_119_1800" x1="30.1515" y1="28.0051" x2="30.3337" y2="28.0051" gradientUnits="userSpaceOnUse">
<stop stop-color="#FE9738" stop-opacity="0"/>
<stop offset="1" stop-color="#FE9738"/>
</linearGradient>
<linearGradient id="paint28_linear_119_1800" x1="28.6023" y1="29.9196" x2="29.4655" y2="30.2073" gradientUnits="userSpaceOnUse">
<stop stop-color="#F5FBFF"/>
<stop offset="1" stop-color="#DBD5EF"/>
</linearGradient>
<linearGradient id="paint29_linear_119_1800" x1="29.1738" y1="30.097" x2="29.7768" y2="30.097" gradientUnits="userSpaceOnUse">
<stop stop-color="#DBD5EF" stop-opacity="0"/>
<stop offset="0.285" stop-color="#D9D2EE" stop-opacity="0.285"/>
<stop offset="0.474" stop-color="#D4C9E9" stop-opacity="0.474"/>
<stop offset="0.635" stop-color="#CBBAE2" stop-opacity="0.635"/>
<stop offset="0.779" stop-color="#BFA5D7" stop-opacity="0.78"/>
<stop offset="0.913" stop-color="#AF8ACA" stop-opacity="0.913"/>
<stop offset="1" stop-color="#A274BF"/>
</linearGradient>
<linearGradient id="paint30_linear_119_1800" x1="29.1348" y1="30.0955" x2="29.1348" y2="30.5016" gradientUnits="userSpaceOnUse">
<stop stop-color="#DBD5EF" stop-opacity="0"/>
<stop offset="0.285" stop-color="#D9D2EE" stop-opacity="0.285"/>
<stop offset="0.474" stop-color="#D4C9E9" stop-opacity="0.474"/>
<stop offset="0.635" stop-color="#CBBAE2" stop-opacity="0.635"/>
<stop offset="0.779" stop-color="#BFA5D7" stop-opacity="0.78"/>
<stop offset="0.913" stop-color="#AF8ACA" stop-opacity="0.913"/>
<stop offset="1" stop-color="#A274BF"/>
</linearGradient>
<linearGradient id="paint31_linear_119_1800" x1="25.2466" y1="24.6654" x2="28.1767" y2="27.5954" gradientUnits="userSpaceOnUse">
<stop stop-color="#FEA613"/>
<stop offset="1" stop-color="#C4573A"/>
</linearGradient>
<linearGradient id="paint32_linear_119_1800" x1="26.5" y1="26.8932" x2="26.5" y2="27.6278" gradientUnits="userSpaceOnUse">
<stop stop-color="#C4573A" stop-opacity="0"/>
<stop offset="0.235" stop-color="#BE5539" stop-opacity="0.235"/>
<stop offset="0.539" stop-color="#AE4E35" stop-opacity="0.539"/>
<stop offset="0.879" stop-color="#934330" stop-opacity="0.879"/>
<stop offset="1" stop-color="#883F2E"/>
</linearGradient>
<linearGradient id="paint33_linear_119_1800" x1="27.5763" y1="25.9186" x2="28.264" y2="25.9186" gradientUnits="userSpaceOnUse">
<stop stop-color="#C4573A" stop-opacity="0"/>
<stop offset="0.235" stop-color="#BE5539" stop-opacity="0.235"/>
<stop offset="0.539" stop-color="#AE4E35" stop-opacity="0.539"/>
<stop offset="0.879" stop-color="#934330" stop-opacity="0.879"/>
<stop offset="1" stop-color="#883F2E"/>
</linearGradient>
<linearGradient id="paint34_linear_119_1800" x1="27.5891" y1="25.4466" x2="26.5933" y2="24.0879" gradientUnits="userSpaceOnUse">
<stop stop-color="#C4573A" stop-opacity="0"/>
<stop offset="0.235" stop-color="#BE5539" stop-opacity="0.235"/>
<stop offset="0.539" stop-color="#AE4E35" stop-opacity="0.539"/>
<stop offset="0.879" stop-color="#934330" stop-opacity="0.879"/>
<stop offset="1" stop-color="#883F2E"/>
</linearGradient>
<linearGradient id="paint35_linear_119_1800" x1="26.1283" y1="24.4462" x2="27.0819" y2="25.0243" gradientUnits="userSpaceOnUse">
<stop stop-color="#FEF0AE"/>
<stop offset="1" stop-color="#FAC600"/>
</linearGradient>
<linearGradient id="paint36_linear_119_1800" x1="26.5002" y1="24.8985" x2="26.5002" y2="25.1348" gradientUnits="userSpaceOnUse">
<stop stop-color="#FE9738" stop-opacity="0"/>
<stop offset="1" stop-color="#FE9738"/>
</linearGradient>
<linearGradient id="paint37_linear_119_1800" x1="26.8349" y1="24.6886" x2="27.0172" y2="24.6886" gradientUnits="userSpaceOnUse">
<stop stop-color="#FE9738" stop-opacity="0"/>
<stop offset="1" stop-color="#FE9738"/>
</linearGradient>
<linearGradient id="paint38_linear_119_1800" x1="25.2857" y1="26.603" x2="26.1489" y2="26.8907" gradientUnits="userSpaceOnUse">
<stop stop-color="#F5FBFF"/>
<stop offset="1" stop-color="#DBD5EF"/>
</linearGradient>
<linearGradient id="paint39_linear_119_1800" x1="25.8572" y1="26.7804" x2="26.4602" y2="26.7804" gradientUnits="userSpaceOnUse">
<stop stop-color="#DBD5EF" stop-opacity="0"/>
<stop offset="0.285" stop-color="#D9D2EE" stop-opacity="0.285"/>
<stop offset="0.474" stop-color="#D4C9E9" stop-opacity="0.474"/>
<stop offset="0.635" stop-color="#CBBAE2" stop-opacity="0.635"/>
<stop offset="0.779" stop-color="#BFA5D7" stop-opacity="0.78"/>
<stop offset="0.913" stop-color="#AF8ACA" stop-opacity="0.913"/>
<stop offset="1" stop-color="#A274BF"/>
</linearGradient>
<linearGradient id="paint40_linear_119_1800" x1="25.8182" y1="26.7789" x2="25.8182" y2="27.185" gradientUnits="userSpaceOnUse">
<stop stop-color="#DBD5EF" stop-opacity="0"/>
<stop offset="0.285" stop-color="#D9D2EE" stop-opacity="0.285"/>
<stop offset="0.474" stop-color="#D4C9E9" stop-opacity="0.474"/>
<stop offset="0.635" stop-color="#CBBAE2" stop-opacity="0.635"/>
<stop offset="0.779" stop-color="#BFA5D7" stop-opacity="0.78"/>
<stop offset="0.913" stop-color="#AF8ACA" stop-opacity="0.913"/>
<stop offset="1" stop-color="#A274BF"/>
</linearGradient>
<linearGradient id="paint41_linear_119_1800" x1="21.9302" y1="24.6654" x2="24.8602" y2="27.5954" gradientUnits="userSpaceOnUse">
<stop stop-color="#FEA613"/>
<stop offset="1" stop-color="#C4573A"/>
</linearGradient>
<linearGradient id="paint42_linear_119_1800" x1="23.1834" y1="27.0546" x2="23.1834" y2="27.9194" gradientUnits="userSpaceOnUse">
<stop stop-color="#C4573A" stop-opacity="0"/>
<stop offset="0.235" stop-color="#BE5539" stop-opacity="0.235"/>
<stop offset="0.539" stop-color="#AE4E35" stop-opacity="0.539"/>
<stop offset="0.879" stop-color="#934330" stop-opacity="0.879"/>
<stop offset="1" stop-color="#883F2E"/>
</linearGradient>
<linearGradient id="paint43_linear_119_1800" x1="24.2592" y1="25.9186" x2="24.9469" y2="25.9186" gradientUnits="userSpaceOnUse">
<stop stop-color="#C4573A" stop-opacity="0"/>
<stop offset="0.235" stop-color="#BE5539" stop-opacity="0.235"/>
<stop offset="0.539" stop-color="#AE4E35" stop-opacity="0.539"/>
<stop offset="0.879" stop-color="#934330" stop-opacity="0.879"/>
<stop offset="1" stop-color="#883F2E"/>
</linearGradient>
<linearGradient id="paint44_linear_119_1800" x1="24.2731" y1="25.4466" x2="23.2773" y2="24.0879" gradientUnits="userSpaceOnUse">
<stop stop-color="#C4573A" stop-opacity="0"/>
<stop offset="0.235" stop-color="#BE5539" stop-opacity="0.235"/>
<stop offset="0.539" stop-color="#AE4E35" stop-opacity="0.539"/>
<stop offset="0.879" stop-color="#934330" stop-opacity="0.879"/>
<stop offset="1" stop-color="#883F2E"/>
</linearGradient>
<linearGradient id="paint45_linear_119_1800" x1="22.8117" y1="24.4462" x2="23.7653" y2="25.0243" gradientUnits="userSpaceOnUse">
<stop stop-color="#FEF0AE"/>
<stop offset="1" stop-color="#FAC600"/>
</linearGradient>
<linearGradient id="paint46_linear_119_1800" x1="23.1837" y1="24.8985" x2="23.1837" y2="25.1348" gradientUnits="userSpaceOnUse">
<stop stop-color="#FE9738" stop-opacity="0"/>
<stop offset="1" stop-color="#FE9738"/>
</linearGradient>
<linearGradient id="paint47_linear_119_1800" x1="23.5184" y1="24.6886" x2="23.7006" y2="24.6886" gradientUnits="userSpaceOnUse">
<stop stop-color="#FE9738" stop-opacity="0"/>
<stop offset="1" stop-color="#FE9738"/>
</linearGradient>
<linearGradient id="paint48_linear_119_1800" x1="21.9692" y1="26.603" x2="22.8324" y2="26.8907" gradientUnits="userSpaceOnUse">
<stop stop-color="#F5FBFF"/>
<stop offset="1" stop-color="#DBD5EF"/>
</linearGradient>
<linearGradient id="paint49_linear_119_1800" x1="22.5406" y1="26.7804" x2="23.1436" y2="26.7804" gradientUnits="userSpaceOnUse">
<stop stop-color="#DBD5EF" stop-opacity="0"/>
<stop offset="0.285" stop-color="#D9D2EE" stop-opacity="0.285"/>
<stop offset="0.474" stop-color="#D4C9E9" stop-opacity="0.474"/>
<stop offset="0.635" stop-color="#CBBAE2" stop-opacity="0.635"/>
<stop offset="0.779" stop-color="#BFA5D7" stop-opacity="0.78"/>
<stop offset="0.913" stop-color="#AF8ACA" stop-opacity="0.913"/>
<stop offset="1" stop-color="#A274BF"/>
</linearGradient>
<linearGradient id="paint50_linear_119_1800" x1="22.5017" y1="26.7789" x2="22.5017" y2="27.185" gradientUnits="userSpaceOnUse">
<stop stop-color="#DBD5EF" stop-opacity="0"/>
<stop offset="0.285" stop-color="#D9D2EE" stop-opacity="0.285"/>
<stop offset="0.474" stop-color="#D4C9E9" stop-opacity="0.474"/>
<stop offset="0.635" stop-color="#CBBAE2" stop-opacity="0.635"/>
<stop offset="0.779" stop-color="#BFA5D7" stop-opacity="0.78"/>
<stop offset="0.913" stop-color="#AF8ACA" stop-opacity="0.913"/>
<stop offset="1" stop-color="#A274BF"/>
</linearGradient>
<linearGradient id="paint51_linear_119_1800" x1="25.2471" y1="27.9819" x2="28.1771" y2="30.9119" gradientUnits="userSpaceOnUse">
<stop stop-color="#FEA613"/>
<stop offset="1" stop-color="#C4573A"/>
</linearGradient>
<linearGradient id="paint52_linear_119_1800" x1="26.5" y1="30.2098" x2="26.5" y2="30.9444" gradientUnits="userSpaceOnUse">
<stop stop-color="#C4573A" stop-opacity="0"/>
<stop offset="0.235" stop-color="#BE5539" stop-opacity="0.235"/>
<stop offset="0.539" stop-color="#AE4E35" stop-opacity="0.539"/>
<stop offset="0.879" stop-color="#934330" stop-opacity="0.879"/>
<stop offset="1" stop-color="#883F2E"/>
</linearGradient>
<linearGradient id="paint53_linear_119_1800" x1="27.5763" y1="29.2351" x2="28.264" y2="29.2351" gradientUnits="userSpaceOnUse">
<stop stop-color="#C4573A" stop-opacity="0"/>
<stop offset="0.235" stop-color="#BE5539" stop-opacity="0.235"/>
<stop offset="0.539" stop-color="#AE4E35" stop-opacity="0.539"/>
<stop offset="0.879" stop-color="#934330" stop-opacity="0.879"/>
<stop offset="1" stop-color="#883F2E"/>
</linearGradient>
<linearGradient id="paint54_linear_119_1800" x1="27.5891" y1="28.7631" x2="26.5933" y2="27.4045" gradientUnits="userSpaceOnUse">
<stop stop-color="#C4573A" stop-opacity="0"/>
<stop offset="0.235" stop-color="#BE5539" stop-opacity="0.235"/>
<stop offset="0.539" stop-color="#AE4E35" stop-opacity="0.539"/>
<stop offset="0.879" stop-color="#934330" stop-opacity="0.879"/>
<stop offset="1" stop-color="#883F2E"/>
</linearGradient>
<linearGradient id="paint55_linear_119_1800" x1="26.1283" y1="27.7627" x2="27.0819" y2="28.3408" gradientUnits="userSpaceOnUse">
<stop stop-color="#FEF0AE"/>
<stop offset="1" stop-color="#FAC600"/>
</linearGradient>
<linearGradient id="paint56_linear_119_1800" x1="26.5002" y1="28.2151" x2="26.5002" y2="28.4514" gradientUnits="userSpaceOnUse">
<stop stop-color="#FE9738" stop-opacity="0"/>
<stop offset="1" stop-color="#FE9738"/>
</linearGradient>
<linearGradient id="paint57_linear_119_1800" x1="26.8349" y1="28.0051" x2="27.0172" y2="28.0051" gradientUnits="userSpaceOnUse">
<stop stop-color="#FE9738" stop-opacity="0"/>
<stop offset="1" stop-color="#FE9738"/>
</linearGradient>
<linearGradient id="paint58_linear_119_1800" x1="25.2857" y1="29.9196" x2="26.1489" y2="30.2073" gradientUnits="userSpaceOnUse">
<stop stop-color="#F5FBFF"/>
<stop offset="1" stop-color="#DBD5EF"/>
</linearGradient>
<linearGradient id="paint59_linear_119_1800" x1="25.8572" y1="30.097" x2="26.4602" y2="30.097" gradientUnits="userSpaceOnUse">
<stop stop-color="#DBD5EF" stop-opacity="0"/>
<stop offset="0.285" stop-color="#D9D2EE" stop-opacity="0.285"/>
<stop offset="0.474" stop-color="#D4C9E9" stop-opacity="0.474"/>
<stop offset="0.635" stop-color="#CBBAE2" stop-opacity="0.635"/>
<stop offset="0.779" stop-color="#BFA5D7" stop-opacity="0.78"/>
<stop offset="0.913" stop-color="#AF8ACA" stop-opacity="0.913"/>
<stop offset="1" stop-color="#A274BF"/>
</linearGradient>
<linearGradient id="paint60_linear_119_1800" x1="25.8182" y1="30.0955" x2="25.8182" y2="30.5016" gradientUnits="userSpaceOnUse">
<stop stop-color="#DBD5EF" stop-opacity="0"/>
<stop offset="0.285" stop-color="#D9D2EE" stop-opacity="0.285"/>
<stop offset="0.474" stop-color="#D4C9E9" stop-opacity="0.474"/>
<stop offset="0.635" stop-color="#CBBAE2" stop-opacity="0.635"/>
<stop offset="0.779" stop-color="#BFA5D7" stop-opacity="0.78"/>
<stop offset="0.913" stop-color="#AF8ACA" stop-opacity="0.913"/>
<stop offset="1" stop-color="#A274BF"/>
</linearGradient>
<linearGradient id="paint61_linear_119_1800" x1="21.9302" y1="27.9819" x2="24.8602" y2="30.9119" gradientUnits="userSpaceOnUse">
<stop stop-color="#FEA613"/>
<stop offset="1" stop-color="#C4573A"/>
</linearGradient>
<linearGradient id="paint62_linear_119_1800" x1="23.1834" y1="30.2098" x2="23.1834" y2="30.9444" gradientUnits="userSpaceOnUse">
<stop stop-color="#C4573A" stop-opacity="0"/>
<stop offset="0.235" stop-color="#BE5539" stop-opacity="0.235"/>
<stop offset="0.539" stop-color="#AE4E35" stop-opacity="0.539"/>
<stop offset="0.879" stop-color="#934330" stop-opacity="0.879"/>
<stop offset="1" stop-color="#883F2E"/>
</linearGradient>
<linearGradient id="paint63_linear_119_1800" x1="24.2592" y1="29.2351" x2="24.9469" y2="29.2351" gradientUnits="userSpaceOnUse">
<stop stop-color="#C4573A" stop-opacity="0"/>
<stop offset="0.235" stop-color="#BE5539" stop-opacity="0.235"/>
<stop offset="0.539" stop-color="#AE4E35" stop-opacity="0.539"/>
<stop offset="0.879" stop-color="#934330" stop-opacity="0.879"/>
<stop offset="1" stop-color="#883F2E"/>
</linearGradient>
<linearGradient id="paint64_linear_119_1800" x1="24.2731" y1="28.7631" x2="23.2773" y2="27.4045" gradientUnits="userSpaceOnUse">
<stop stop-color="#C4573A" stop-opacity="0"/>
<stop offset="0.235" stop-color="#BE5539" stop-opacity="0.235"/>
<stop offset="0.539" stop-color="#AE4E35" stop-opacity="0.539"/>
<stop offset="0.879" stop-color="#934330" stop-opacity="0.879"/>
<stop offset="1" stop-color="#883F2E"/>
</linearGradient>
<linearGradient id="paint65_linear_119_1800" x1="22.8117" y1="27.7627" x2="23.7653" y2="28.3408" gradientUnits="userSpaceOnUse">
<stop stop-color="#FEF0AE"/>
<stop offset="1" stop-color="#FAC600"/>
</linearGradient>
<linearGradient id="paint66_linear_119_1800" x1="23.1837" y1="28.2151" x2="23.1837" y2="28.4514" gradientUnits="userSpaceOnUse">
<stop stop-color="#FE9738" stop-opacity="0"/>
<stop offset="1" stop-color="#FE9738"/>
</linearGradient>
<linearGradient id="paint67_linear_119_1800" x1="23.5184" y1="28.0051" x2="23.7006" y2="28.0051" gradientUnits="userSpaceOnUse">
<stop stop-color="#FE9738" stop-opacity="0"/>
<stop offset="1" stop-color="#FE9738"/>
</linearGradient>
<linearGradient id="paint68_linear_119_1800" x1="21.9692" y1="29.9196" x2="22.8324" y2="30.2073" gradientUnits="userSpaceOnUse">
<stop stop-color="#F5FBFF"/>
<stop offset="1" stop-color="#DBD5EF"/>
</linearGradient>
<linearGradient id="paint69_linear_119_1800" x1="22.5406" y1="30.097" x2="23.1436" y2="30.097" gradientUnits="userSpaceOnUse">
<stop stop-color="#DBD5EF" stop-opacity="0"/>
<stop offset="0.285" stop-color="#D9D2EE" stop-opacity="0.285"/>
<stop offset="0.474" stop-color="#D4C9E9" stop-opacity="0.474"/>
<stop offset="0.635" stop-color="#CBBAE2" stop-opacity="0.635"/>
<stop offset="0.779" stop-color="#BFA5D7" stop-opacity="0.78"/>
<stop offset="0.913" stop-color="#AF8ACA" stop-opacity="0.913"/>
<stop offset="1" stop-color="#A274BF"/>
</linearGradient>
<linearGradient id="paint70_linear_119_1800" x1="22.5017" y1="30.0955" x2="22.5017" y2="30.5016" gradientUnits="userSpaceOnUse">
<stop stop-color="#DBD5EF" stop-opacity="0"/>
<stop offset="0.285" stop-color="#D9D2EE" stop-opacity="0.285"/>
<stop offset="0.474" stop-color="#D4C9E9" stop-opacity="0.474"/>
<stop offset="0.635" stop-color="#CBBAE2" stop-opacity="0.635"/>
<stop offset="0.779" stop-color="#BFA5D7" stop-opacity="0.78"/>
<stop offset="0.913" stop-color="#AF8ACA" stop-opacity="0.913"/>
<stop offset="1" stop-color="#A274BF"/>
</linearGradient>
<linearGradient id="paint71_linear_119_1800" x1="27.6503" y1="21.219" x2="29.7234" y2="24.8068" gradientUnits="userSpaceOnUse">
<stop stop-color="#FEA613"/>
<stop offset="1" stop-color="#C4573A"/>
</linearGradient>
<linearGradient id="paint72_linear_119_1800" x1="28.285" y1="23.695" x2="28.0951" y2="24.4047" gradientUnits="userSpaceOnUse">
<stop stop-color="#C4573A" stop-opacity="0"/>
<stop offset="0.235" stop-color="#BE5539" stop-opacity="0.235"/>
<stop offset="0.539" stop-color="#AE4E35" stop-opacity="0.539"/>
<stop offset="0.879" stop-color="#934330" stop-opacity="0.879"/>
<stop offset="1" stop-color="#883F2E"/>
</linearGradient>
<linearGradient id="paint73_linear_119_1800" x1="29.5766" y1="23.0318" x2="30.2409" y2="23.2096" gradientUnits="userSpaceOnUse">
<stop stop-color="#C4573A" stop-opacity="0"/>
<stop offset="0.235" stop-color="#BE5539" stop-opacity="0.235"/>
<stop offset="0.539" stop-color="#AE4E35" stop-opacity="0.539"/>
<stop offset="0.879" stop-color="#934330" stop-opacity="0.879"/>
<stop offset="1" stop-color="#883F2E"/>
</linearGradient>
<linearGradient id="paint74_linear_119_1800" x1="29.7114" y1="22.5787" x2="29.1006" y2="21.0088" gradientUnits="userSpaceOnUse">
<stop stop-color="#C4573A" stop-opacity="0"/>
<stop offset="0.235" stop-color="#BE5539" stop-opacity="0.235"/>
<stop offset="0.539" stop-color="#AE4E35" stop-opacity="0.539"/>
<stop offset="0.879" stop-color="#934330" stop-opacity="0.879"/>
<stop offset="1" stop-color="#883F2E"/>
</linearGradient>
<linearGradient id="paint75_linear_119_1800" x1="28.5585" y1="21.2349" x2="29.3303" y2="22.0399" gradientUnits="userSpaceOnUse">
<stop stop-color="#FEF0AE"/>
<stop offset="1" stop-color="#FAC600"/>
</linearGradient>
<linearGradient id="paint76_linear_119_1800" x1="28.8009" y1="21.7674" x2="28.7398" y2="21.9957" gradientUnits="userSpaceOnUse">
<stop stop-color="#FE9738" stop-opacity="0"/>
<stop offset="1" stop-color="#FE9738"/>
</linearGradient>
<linearGradient id="paint77_linear_119_1800" x1="29.1784" y1="21.6511" x2="29.3544" y2="21.6982" gradientUnits="userSpaceOnUse">
<stop stop-color="#FE9738" stop-opacity="0"/>
<stop offset="1" stop-color="#FE9738"/>
</linearGradient>
<linearGradient id="paint78_linear_119_1800" x1="27.187" y1="23.1009" x2="27.9464" y2="23.602" gradientUnits="userSpaceOnUse">
<stop stop-color="#F5FBFF"/>
<stop offset="1" stop-color="#DBD5EF"/>
</linearGradient>
<linearGradient id="paint79_linear_119_1800" x1="27.6936" y1="23.4203" x2="28.2762" y2="23.5761" gradientUnits="userSpaceOnUse">
<stop stop-color="#DBD5EF" stop-opacity="0"/>
<stop offset="0.285" stop-color="#D9D2EE" stop-opacity="0.285"/>
<stop offset="0.474" stop-color="#D4C9E9" stop-opacity="0.474"/>
<stop offset="0.635" stop-color="#CBBAE2" stop-opacity="0.635"/>
<stop offset="0.779" stop-color="#BFA5D7" stop-opacity="0.78"/>
<stop offset="0.913" stop-color="#AF8ACA" stop-opacity="0.913"/>
<stop offset="1" stop-color="#A274BF"/>
</linearGradient>
<linearGradient id="paint80_linear_119_1800" x1="27.656" y1="23.4075" x2="27.551" y2="23.7998" gradientUnits="userSpaceOnUse">
<stop stop-color="#DBD5EF" stop-opacity="0"/>
<stop offset="0.285" stop-color="#D9D2EE" stop-opacity="0.285"/>
<stop offset="0.474" stop-color="#D4C9E9" stop-opacity="0.474"/>
<stop offset="0.635" stop-color="#CBBAE2" stop-opacity="0.635"/>
<stop offset="0.779" stop-color="#BFA5D7" stop-opacity="0.78"/>
<stop offset="0.913" stop-color="#AF8ACA" stop-opacity="0.913"/>
<stop offset="1" stop-color="#A274BF"/>
</linearGradient>
<clipPath id="clip0_119_1800">
<rect width="21" height="21" fill="white" transform="translate(16 10)"/>
</clipPath>
</defs>
</svg>
