<svg width="317" height="41" viewBox="0 0 317 41" fill="none" xmlns="http://www.w3.org/2000/svg">
<rect x="0.5" y="0.5" width="316" height="40" rx="7.5" fill="white"/>
<rect x="0.5" y="0.5" width="316" height="40" rx="7.5" stroke="#ECECEC"/>
<path d="M16 32.7277H40.6819V8.04583H16V32.7277Z" fill="black"/>
<path d="M66.4261 18.5H65.1932C65.1203 18.1454 64.9927 17.8338 64.8104 17.5653C64.6314 17.2969 64.4126 17.0715 64.1541 16.8892C63.8989 16.7036 63.6155 16.5644 63.304 16.4716C62.9924 16.3788 62.6676 16.3324 62.3295 16.3324C61.7131 16.3324 61.1546 16.4882 60.6541 16.7997C60.157 17.1113 59.7609 17.5703 59.4659 18.1768C59.1742 18.7834 59.0284 19.5275 59.0284 20.4091C59.0284 21.2907 59.1742 22.0348 59.4659 22.6413C59.7609 23.2479 60.157 23.7069 60.6541 24.0185C61.1546 24.33 61.7131 24.4858 62.3295 24.4858C62.6676 24.4858 62.9924 24.4394 63.304 24.3466C63.6155 24.2538 63.8989 24.1162 64.1541 23.9339C64.4126 23.7483 64.6314 23.5213 64.8104 23.2528C64.9927 22.9811 65.1203 22.6695 65.1932 22.3182H66.4261C66.3333 22.8385 66.1643 23.3042 65.919 23.7152C65.6738 24.1262 65.3688 24.4759 65.0043 24.7642C64.6397 25.0492 64.2304 25.2663 63.7763 25.4155C63.3255 25.5646 62.8433 25.6392 62.3295 25.6392C61.4612 25.6392 60.6889 25.4271 60.0128 25.0028C59.3366 24.5786 58.8047 23.9754 58.4169 23.1932C58.0291 22.411 57.8352 21.483 57.8352 20.4091C57.8352 19.3352 58.0291 18.4072 58.4169 17.625C58.8047 16.8428 59.3366 16.2396 60.0128 15.8153C60.6889 15.3911 61.4612 15.179 62.3295 15.179C62.8433 15.179 63.3255 15.2536 63.7763 15.4027C64.2304 15.5518 64.6397 15.7706 65.0043 16.0589C65.3688 16.344 65.6738 16.692 65.919 17.103C66.1643 17.5107 66.3333 17.9763 66.4261 18.5ZM71.3617 25.6591C70.6723 25.6591 70.0674 25.495 69.5471 25.1669C69.03 24.8388 68.6257 24.3797 68.334 23.7898C68.0456 23.1998 67.9015 22.5104 67.9015 21.7216C67.9015 20.9261 68.0456 20.2318 68.334 19.6385C68.6257 19.0452 69.03 18.5845 69.5471 18.2564C70.0674 17.9283 70.6723 17.7642 71.3617 17.7642C72.0511 17.7642 72.6543 17.9283 73.1713 18.2564C73.6917 18.5845 74.0961 19.0452 74.3844 19.6385C74.6761 20.2318 74.8219 20.9261 74.8219 21.7216C74.8219 22.5104 74.6761 23.1998 74.3844 23.7898C74.0961 24.3797 73.6917 24.8388 73.1713 25.1669C72.6543 25.495 72.0511 25.6591 71.3617 25.6591ZM71.3617 24.6051C71.8854 24.6051 72.3162 24.4709 72.6543 24.2024C72.9924 23.9339 73.2426 23.581 73.405 23.1435C73.5674 22.706 73.6486 22.232 73.6486 21.7216C73.6486 21.2112 73.5674 20.7356 73.405 20.2947C73.2426 19.8539 72.9924 19.4976 72.6543 19.2259C72.3162 18.9541 71.8854 18.8182 71.3617 18.8182C70.838 18.8182 70.4071 18.9541 70.0691 19.2259C69.731 19.4976 69.4808 19.8539 69.3184 20.2947C69.156 20.7356 69.0748 21.2112 69.0748 21.7216C69.0748 22.232 69.156 22.706 69.3184 23.1435C69.4808 23.581 69.731 23.9339 70.0691 24.2024C70.4071 24.4709 70.838 24.6051 71.3617 24.6051ZM82.022 19.5739L80.968 19.8722C80.9018 19.6965 80.804 19.5258 80.6747 19.3601C80.5488 19.1911 80.3764 19.0518 80.1577 18.9425C79.9389 18.8331 79.6589 18.7784 79.3175 18.7784C78.8501 18.7784 78.4607 18.8861 78.1491 19.1016C77.8409 19.3137 77.6868 19.5838 77.6868 19.9119C77.6868 20.2036 77.7929 20.4339 78.005 20.603C78.2171 20.772 78.5485 20.9129 78.9993 21.0256L80.1328 21.304C80.8156 21.4697 81.3243 21.7232 81.6591 22.0646C81.9938 22.4027 82.1612 22.8385 82.1612 23.3722C82.1612 23.8097 82.0353 24.2008 81.7834 24.5455C81.5348 24.8902 81.1868 25.1619 80.7393 25.3608C80.2919 25.5597 79.7715 25.6591 79.1783 25.6591C78.3994 25.6591 77.7547 25.4901 77.2443 25.152C76.7339 24.8139 76.4107 24.3201 76.2749 23.6705L77.3885 23.392C77.4946 23.803 77.6951 24.1113 77.9901 24.3168C78.2884 24.5223 78.6778 24.625 79.1584 24.625C79.7053 24.625 80.1394 24.509 80.4609 24.277C80.7857 24.0417 80.9482 23.7599 80.9482 23.4318C80.9482 23.1667 80.8554 22.9446 80.6697 22.7656C80.4841 22.5833 80.1991 22.4474 79.8146 22.358L78.5419 22.0597C77.8426 21.8939 77.3288 21.6371 77.0007 21.2891C76.6759 20.9377 76.5135 20.4986 76.5135 19.9716C76.5135 19.5407 76.6345 19.1596 76.8764 18.8281C77.1217 18.4967 77.4548 18.2365 77.8757 18.0476C78.3 17.8587 78.7805 17.7642 79.3175 17.7642C80.0732 17.7642 80.6664 17.9299 81.0973 18.2614C81.5315 18.5928 81.8397 19.0303 82.022 19.5739ZM87.2484 17.8636V18.858H83.291V17.8636H87.2484ZM84.4444 16.0341H85.6177V23.3125C85.6177 23.6439 85.6658 23.8925 85.7619 24.0582C85.8613 24.2206 85.9873 24.33 86.1397 24.3864C86.2955 24.4394 86.4596 24.4659 86.6319 24.4659C86.7612 24.4659 86.8672 24.4593 86.9501 24.446C87.033 24.4295 87.0993 24.4162 87.149 24.4062L87.3876 25.4602C87.3081 25.4901 87.197 25.5199 87.0545 25.5497C86.912 25.5829 86.7314 25.5994 86.5126 25.5994C86.1812 25.5994 85.8564 25.5282 85.5382 25.3857C85.2233 25.2431 84.9615 25.026 84.7527 24.7344C84.5472 24.4427 84.4444 24.0748 84.4444 23.6307V16.0341ZM101.701 20.4091C101.701 21.483 101.507 22.411 101.119 23.1932C100.731 23.9754 100.199 24.5786 99.5233 25.0028C98.8471 25.4271 98.0749 25.6392 97.2065 25.6392C96.3381 25.6392 95.5659 25.4271 94.8897 25.0028C94.2136 24.5786 93.6816 23.9754 93.2939 23.1932C92.9061 22.411 92.7122 21.483 92.7122 20.4091C92.7122 19.3352 92.9061 18.4072 93.2939 17.625C93.6816 16.8428 94.2136 16.2396 94.8897 15.8153C95.5659 15.3911 96.3381 15.179 97.2065 15.179C98.0749 15.179 98.8471 15.3911 99.5233 15.8153C100.199 16.2396 100.731 16.8428 101.119 17.625C101.507 18.4072 101.701 19.3352 101.701 20.4091ZM100.508 20.4091C100.508 19.5275 100.36 18.7834 100.065 18.1768C99.7735 17.5703 99.3774 17.1113 98.877 16.7997C98.3798 16.4882 97.823 16.3324 97.2065 16.3324C96.59 16.3324 96.0315 16.4882 95.5311 16.7997C95.0339 17.1113 94.6378 17.5703 94.3429 18.1768C94.0512 18.7834 93.9054 19.5275 93.9054 20.4091C93.9054 21.2907 94.0512 22.0348 94.3429 22.6413C94.6378 23.2479 95.0339 23.7069 95.5311 24.0185C96.0315 24.33 96.59 24.4858 97.2065 24.4858C97.823 24.4858 98.3798 24.33 98.877 24.0185C99.3774 23.7069 99.7735 23.2479 100.065 22.6413C100.36 22.0348 100.508 21.2907 100.508 20.4091ZM103.615 28.3636V17.8636H104.748V19.0767H104.888C104.974 18.9441 105.093 18.7751 105.246 18.5696C105.401 18.3608 105.623 18.1752 105.912 18.0128C106.203 17.8471 106.598 17.7642 107.095 17.7642C107.738 17.7642 108.305 17.925 108.795 18.2464C109.286 18.5679 109.669 19.0237 109.944 19.6136C110.219 20.2036 110.356 20.8996 110.356 21.7017C110.356 22.5104 110.219 23.2114 109.944 23.8047C109.669 24.3946 109.287 24.852 108.8 25.1768C108.313 25.4983 107.751 25.6591 107.115 25.6591C106.624 25.6591 106.232 25.5779 105.937 25.4155C105.642 25.2498 105.415 25.0625 105.256 24.8537C105.096 24.6416 104.974 24.4659 104.888 24.3267H104.788V28.3636H103.615ZM104.768 21.6818C104.768 22.2585 104.853 22.7673 105.022 23.2081C105.191 23.6456 105.438 23.9886 105.763 24.2372C106.087 24.4825 106.485 24.6051 106.956 24.6051C107.446 24.6051 107.856 24.4759 108.184 24.2173C108.515 23.9555 108.764 23.6042 108.93 23.1634C109.099 22.7192 109.183 22.2254 109.183 21.6818C109.183 21.1449 109.1 20.661 108.934 20.2301C108.772 19.7959 108.525 19.4529 108.194 19.201C107.866 18.9458 107.453 18.8182 106.956 18.8182C106.479 18.8182 106.077 18.9392 105.753 19.1811C105.428 19.4197 105.183 19.7545 105.017 20.1854C104.851 20.6129 104.768 21.1117 104.768 21.6818ZM115.467 17.8636V18.858H111.51V17.8636H115.467ZM112.663 16.0341H113.836V23.3125C113.836 23.6439 113.885 23.8925 113.981 24.0582C114.08 24.2206 114.206 24.33 114.358 24.3864C114.514 24.4394 114.678 24.4659 114.851 24.4659C114.98 24.4659 115.086 24.4593 115.169 24.446C115.252 24.4295 115.318 24.4162 115.368 24.4062L115.606 25.4602C115.527 25.4901 115.416 25.5199 115.273 25.5497C115.131 25.5829 114.95 25.5994 114.731 25.5994C114.4 25.5994 114.075 25.5282 113.757 25.3857C113.442 25.2431 113.18 25.026 112.971 24.7344C112.766 24.4427 112.663 24.0748 112.663 23.6307V16.0341ZM117.232 25.5V17.8636H118.405V25.5H117.232ZM117.829 16.5909C117.6 16.5909 117.403 16.513 117.237 16.3572C117.075 16.2015 116.993 16.0142 116.993 15.7955C116.993 15.5767 117.075 15.3894 117.237 15.2337C117.403 15.0779 117.6 15 117.829 15C118.057 15 118.253 15.0779 118.415 15.2337C118.581 15.3894 118.664 15.5767 118.664 15.7955C118.664 16.0142 118.581 16.2015 118.415 16.3572C118.253 16.513 118.057 16.5909 117.829 16.5909ZM120.554 25.5V17.8636H121.688V19.0568H121.787C121.946 18.6491 122.203 18.3326 122.558 18.1072C122.913 17.8786 123.338 17.7642 123.836 17.7642C124.339 17.7642 124.759 17.8786 125.093 18.1072C125.431 18.3326 125.695 18.6491 125.884 19.0568H125.963C126.159 18.6624 126.452 18.3492 126.843 18.1172C127.234 17.8819 127.703 17.7642 128.25 17.7642C128.933 17.7642 129.492 17.978 129.926 18.4055C130.36 18.8298 130.577 19.491 130.577 20.3892V25.5H129.404V20.3892C129.404 19.8258 129.25 19.4231 128.941 19.1811C128.633 18.9392 128.27 18.8182 127.853 18.8182C127.316 18.8182 126.9 18.9806 126.605 19.3054C126.31 19.6269 126.162 20.0346 126.162 20.5284V25.5H124.969V20.2699C124.969 19.8357 124.828 19.486 124.547 19.2209C124.265 18.9524 123.902 18.8182 123.458 18.8182C123.153 18.8182 122.868 18.8994 122.603 19.0618C122.341 19.2242 122.129 19.4496 121.966 19.7379C121.807 20.023 121.728 20.3527 121.728 20.7273V25.5H120.554ZM132.722 25.5V17.8636H133.896V25.5H132.722ZM133.319 16.5909C133.09 16.5909 132.893 16.513 132.727 16.3572C132.565 16.2015 132.484 16.0142 132.484 15.7955C132.484 15.5767 132.565 15.3894 132.727 15.2337C132.893 15.0779 133.09 15 133.319 15C133.548 15 133.743 15.0779 133.906 15.2337C134.071 15.3894 134.154 15.5767 134.154 15.7955C134.154 16.0142 134.071 16.2015 133.906 16.3572C133.743 16.513 133.548 16.5909 133.319 16.5909ZM135.826 25.5V24.6051L140.161 19.0369V18.9574H135.965V17.8636H141.672V18.7983L137.456 24.3267V24.4062H141.812V25.5H135.826ZM145.866 25.679C145.382 25.679 144.943 25.5878 144.548 25.4055C144.154 25.2199 143.841 24.9531 143.609 24.6051C143.377 24.2538 143.261 23.8295 143.261 23.3324C143.261 22.8949 143.347 22.5402 143.519 22.2685C143.692 21.9934 143.922 21.7779 144.21 21.6222C144.499 21.4664 144.817 21.3504 145.165 21.2741C145.516 21.1946 145.869 21.1316 146.224 21.0852C146.688 21.0256 147.064 20.9808 147.352 20.951C147.644 20.9179 147.856 20.8632 147.989 20.7869C148.125 20.7107 148.193 20.5781 148.193 20.3892V20.3494C148.193 19.8589 148.058 19.4777 147.79 19.206C147.525 18.9342 147.122 18.7983 146.582 18.7983C146.022 18.7983 145.583 18.9209 145.264 19.1662C144.946 19.4115 144.722 19.6733 144.593 19.9517L143.48 19.554C143.678 19.09 143.944 18.7287 144.275 18.4702C144.61 18.2083 144.974 18.026 145.369 17.9233C145.767 17.8172 146.158 17.7642 146.542 17.7642C146.787 17.7642 147.069 17.794 147.387 17.8537C147.709 17.91 148.019 18.0277 148.317 18.2067C148.619 18.3857 148.869 18.6558 149.068 19.017C149.267 19.3783 149.366 19.8622 149.366 20.4688V25.5H148.193V24.4659H148.133C148.053 24.6316 147.921 24.8089 147.735 24.9979C147.55 25.1868 147.303 25.3475 146.994 25.4801C146.686 25.6127 146.31 25.679 145.866 25.679ZM146.045 24.625C146.509 24.625 146.9 24.5339 147.218 24.3516C147.54 24.1693 147.782 23.9339 147.944 23.6456C148.11 23.3572 148.193 23.054 148.193 22.7358V21.6619C148.143 21.7216 148.034 21.7763 147.865 21.826C147.699 21.8724 147.507 21.9138 147.288 21.9503C147.072 21.9834 146.862 22.0133 146.656 22.0398C146.454 22.063 146.29 22.0829 146.164 22.0994C145.859 22.1392 145.574 22.2038 145.309 22.2933C145.047 22.3795 144.835 22.5104 144.673 22.6861C144.514 22.8584 144.434 23.0937 144.434 23.392C144.434 23.7997 144.585 24.108 144.887 24.3168C145.191 24.5223 145.578 24.625 146.045 24.625ZM154.828 17.8636V18.858H150.871V17.8636H154.828ZM152.025 16.0341H153.198V23.3125C153.198 23.6439 153.246 23.8925 153.342 24.0582C153.441 24.2206 153.567 24.33 153.72 24.3864C153.876 24.4394 154.04 24.4659 154.212 24.4659C154.341 24.4659 154.447 24.4593 154.53 24.446C154.613 24.4295 154.679 24.4162 154.729 24.4062L154.968 25.4602C154.888 25.4901 154.777 25.5199 154.635 25.5497C154.492 25.5829 154.311 25.5994 154.093 25.5994C153.761 25.5994 153.436 25.5282 153.118 25.3857C152.803 25.2431 152.542 25.026 152.333 24.7344C152.127 24.4427 152.025 24.0748 152.025 23.6307V16.0341ZM156.593 25.5V17.8636H157.767V25.5H156.593ZM157.19 16.5909C156.961 16.5909 156.764 16.513 156.598 16.3572C156.436 16.2015 156.355 16.0142 156.355 15.7955C156.355 15.5767 156.436 15.3894 156.598 15.2337C156.764 15.0779 156.961 15 157.19 15C157.419 15 157.614 15.0779 157.777 15.2337C157.942 15.3894 158.025 15.5767 158.025 15.7955C158.025 16.0142 157.942 16.2015 157.777 16.3572C157.614 16.513 157.419 16.5909 157.19 16.5909ZM163.018 25.6591C162.329 25.6591 161.724 25.495 161.203 25.1669C160.686 24.8388 160.282 24.3797 159.99 23.7898C159.702 23.1998 159.558 22.5104 159.558 21.7216C159.558 20.9261 159.702 20.2318 159.99 19.6385C160.282 19.0452 160.686 18.5845 161.203 18.2564C161.724 17.9283 162.329 17.7642 163.018 17.7642C163.707 17.7642 164.311 17.9283 164.828 18.2564C165.348 18.5845 165.752 19.0452 166.041 19.6385C166.332 20.2318 166.478 20.9261 166.478 21.7216C166.478 22.5104 166.332 23.1998 166.041 23.7898C165.752 24.3797 165.348 24.8388 164.828 25.1669C164.311 25.495 163.707 25.6591 163.018 25.6591ZM163.018 24.6051C163.542 24.6051 163.972 24.4709 164.311 24.2024C164.649 23.9339 164.899 23.581 165.061 23.1435C165.224 22.706 165.305 22.232 165.305 21.7216C165.305 21.2112 165.224 20.7356 165.061 20.2947C164.899 19.8539 164.649 19.4976 164.311 19.2259C163.972 18.9541 163.542 18.8182 163.018 18.8182C162.494 18.8182 162.063 18.9541 161.725 19.2259C161.387 19.4976 161.137 19.8539 160.975 20.2947C160.812 20.7356 160.731 21.2112 160.731 21.7216C160.731 22.232 160.812 22.706 160.975 23.1435C161.137 23.581 161.387 23.9339 161.725 24.2024C162.063 24.4709 162.494 24.6051 163.018 24.6051ZM169.442 20.9062V25.5H168.269V17.8636H169.403V19.0568H169.502C169.681 18.669 169.953 18.3575 170.317 18.1222C170.682 17.8835 171.153 17.7642 171.729 17.7642C172.246 17.7642 172.699 17.8703 173.087 18.0824C173.474 18.2912 173.776 18.6094 173.991 19.0369C174.207 19.4612 174.315 19.9981 174.315 20.6477V25.5H173.141V20.7273C173.141 20.1274 172.986 19.66 172.674 19.3253C172.362 18.9872 171.935 18.8182 171.391 18.8182C171.017 18.8182 170.682 18.8994 170.387 19.0618C170.095 19.2242 169.865 19.4612 169.696 19.7727C169.527 20.0843 169.442 20.4621 169.442 20.9062ZM181.868 19.5739L180.814 19.8722C180.747 19.6965 180.65 19.5258 180.52 19.3601C180.394 19.1911 180.222 19.0518 180.003 18.9425C179.785 18.8331 179.505 18.7784 179.163 18.7784C178.696 18.7784 178.306 18.8861 177.995 19.1016C177.687 19.3137 177.532 19.5838 177.532 19.9119C177.532 20.2036 177.639 20.4339 177.851 20.603C178.063 20.772 178.394 20.9129 178.845 21.0256L179.979 21.304C180.661 21.4697 181.17 21.7232 181.505 22.0646C181.84 22.4027 182.007 22.8385 182.007 23.3722C182.007 23.8097 181.881 24.2008 181.629 24.5455C181.381 24.8902 181.032 25.1619 180.585 25.3608C180.138 25.5597 179.617 25.6591 179.024 25.6591C178.245 25.6591 177.6 25.4901 177.09 25.152C176.58 24.8139 176.256 24.3201 176.121 23.6705L177.234 23.392C177.34 23.803 177.541 24.1113 177.836 24.3168C178.134 24.5223 178.523 24.625 179.004 24.625C179.551 24.625 179.985 24.509 180.307 24.277C180.631 24.0417 180.794 23.7599 180.794 23.4318C180.794 23.1667 180.701 22.9446 180.515 22.7656C180.33 22.5833 180.045 22.4474 179.66 22.358L178.388 22.0597C177.688 21.8939 177.175 21.6371 176.846 21.2891C176.522 20.9377 176.359 20.4986 176.359 19.9716C176.359 19.5407 176.48 19.1596 176.722 18.8281C176.967 18.4967 177.3 18.2365 177.721 18.0476C178.146 17.8587 178.626 17.7642 179.163 17.7642C179.919 17.7642 180.512 17.9299 180.943 18.2614C181.377 18.5928 181.685 19.0303 181.868 19.5739ZM189.958 25.679C189.474 25.679 189.035 25.5878 188.64 25.4055C188.246 25.2199 187.933 24.9531 187.701 24.6051C187.469 24.2538 187.353 23.8295 187.353 23.3324C187.353 22.8949 187.439 22.5402 187.611 22.2685C187.783 21.9934 188.014 21.7779 188.302 21.6222C188.591 21.4664 188.909 21.3504 189.257 21.2741C189.608 21.1946 189.961 21.1316 190.316 21.0852C190.78 21.0256 191.156 20.9808 191.444 20.951C191.736 20.9179 191.948 20.8632 192.081 20.7869C192.217 20.7107 192.284 20.5781 192.284 20.3892V20.3494C192.284 19.8589 192.15 19.4777 191.882 19.206C191.617 18.9342 191.214 18.7983 190.674 18.7983C190.114 18.7983 189.674 18.9209 189.356 19.1662C189.038 19.4115 188.814 19.6733 188.685 19.9517L187.571 19.554C187.77 19.09 188.035 18.7287 188.367 18.4702C188.702 18.2083 189.066 18.026 189.461 17.9233C189.858 17.8172 190.249 17.7642 190.634 17.7642C190.879 17.7642 191.161 17.794 191.479 17.8537C191.801 17.91 192.11 18.0277 192.409 18.2067C192.71 18.3857 192.961 18.6558 193.159 19.017C193.358 19.3783 193.458 19.8622 193.458 20.4688V25.5H192.284V24.4659H192.225C192.145 24.6316 192.013 24.8089 191.827 24.9979C191.641 25.1868 191.395 25.3475 191.086 25.4801C190.778 25.6127 190.402 25.679 189.958 25.679ZM190.137 24.625C190.601 24.625 190.992 24.5339 191.31 24.3516C191.632 24.1693 191.873 23.9339 192.036 23.6456C192.202 23.3572 192.284 23.054 192.284 22.7358V21.6619C192.235 21.7216 192.125 21.7763 191.956 21.826C191.791 21.8724 191.598 21.9138 191.38 21.9503C191.164 21.9834 190.954 22.0133 190.748 22.0398C190.546 22.063 190.382 22.0829 190.256 22.0994C189.951 22.1392 189.666 22.2038 189.401 22.2933C189.139 22.3795 188.927 22.5104 188.765 22.6861C188.605 22.8584 188.526 23.0937 188.526 23.392C188.526 23.7997 188.677 24.108 188.978 24.3168C189.283 24.5223 189.669 24.625 190.137 24.625ZM196.773 20.9062V25.5H195.599V17.8636H196.733V19.0568H196.832C197.011 18.669 197.283 18.3575 197.648 18.1222C198.012 17.8835 198.483 17.7642 199.059 17.7642C199.577 17.7642 200.029 17.8703 200.417 18.0824C200.805 18.2912 201.106 18.6094 201.322 19.0369C201.537 19.4612 201.645 19.9981 201.645 20.6477V25.5H200.471V20.7273C200.471 20.1274 200.316 19.66 200.004 19.3253C199.693 18.9872 199.265 18.8182 198.721 18.8182C198.347 18.8182 198.012 18.8994 197.717 19.0618C197.425 19.2242 197.195 19.4612 197.026 19.7727C196.857 20.0843 196.773 20.4621 196.773 20.9062ZM206.672 25.6591C206.036 25.6591 205.474 25.4983 204.987 25.1768C204.5 24.852 204.118 24.3946 203.843 23.8047C203.568 23.2114 203.431 22.5104 203.431 21.7017C203.431 20.8996 203.568 20.2036 203.843 19.6136C204.118 19.0237 204.501 18.5679 204.992 18.2464C205.482 17.925 206.049 17.7642 206.692 17.7642C207.189 17.7642 207.582 17.8471 207.87 18.0128C208.162 18.1752 208.384 18.3608 208.537 18.5696C208.692 18.7751 208.813 18.9441 208.9 19.0767H208.999V15.3182H210.172V25.5H209.039V24.3267H208.9C208.813 24.4659 208.691 24.6416 208.532 24.8537C208.373 25.0625 208.145 25.2498 207.85 25.4155C207.556 25.5779 207.163 25.6591 206.672 25.6591ZM206.831 24.6051C207.302 24.6051 207.7 24.4825 208.025 24.2372C208.349 23.9886 208.596 23.6456 208.765 23.2081C208.934 22.7673 209.019 22.2585 209.019 21.6818C209.019 21.1117 208.936 20.6129 208.77 20.1854C208.605 19.7545 208.359 19.4197 208.034 19.1811C207.71 18.9392 207.309 18.8182 206.831 18.8182C206.334 18.8182 205.92 18.9458 205.588 19.201C205.26 19.4529 205.013 19.7959 204.848 20.2301C204.685 20.661 204.604 21.1449 204.604 21.6818C204.604 22.2254 204.687 22.7192 204.853 23.1634C205.022 23.6042 205.27 23.9555 205.598 24.2173C205.93 24.4759 206.341 24.6051 206.831 24.6051ZM216.581 15.3182H218.052L221.512 23.7699H221.632L225.092 15.3182H226.564V25.5H225.41V17.7642H225.311L222.129 25.5H221.015L217.833 17.7642H217.734V25.5H216.581V15.3182ZM231.124 25.679C230.64 25.679 230.201 25.5878 229.806 25.4055C229.412 25.2199 229.099 24.9531 228.867 24.6051C228.635 24.2538 228.519 23.8295 228.519 23.3324C228.519 22.8949 228.605 22.5402 228.777 22.2685C228.95 21.9934 229.18 21.7779 229.468 21.6222C229.757 21.4664 230.075 21.3504 230.423 21.2741C230.774 21.1946 231.127 21.1316 231.482 21.0852C231.946 21.0256 232.322 20.9808 232.61 20.951C232.902 20.9179 233.114 20.8632 233.247 20.7869C233.383 20.7107 233.45 20.5781 233.45 20.3892V20.3494C233.45 19.8589 233.316 19.4777 233.048 19.206C232.783 18.9342 232.38 18.7983 231.84 18.7983C231.28 18.7983 230.84 18.9209 230.522 19.1662C230.204 19.4115 229.98 19.6733 229.851 19.9517L228.737 19.554C228.936 19.09 229.201 18.7287 229.533 18.4702C229.868 18.2083 230.232 18.026 230.627 17.9233C231.024 17.8172 231.415 17.7642 231.8 17.7642C232.045 17.7642 232.327 17.794 232.645 17.8537C232.967 17.91 233.276 18.0277 233.575 18.2067C233.876 18.3857 234.127 18.6558 234.325 19.017C234.524 19.3783 234.624 19.8622 234.624 20.4688V25.5H233.45V24.4659H233.391C233.311 24.6316 233.179 24.8089 232.993 24.9979C232.807 25.1868 232.561 25.3475 232.252 25.4801C231.944 25.6127 231.568 25.679 231.124 25.679ZM231.303 24.625C231.767 24.625 232.158 24.5339 232.476 24.3516C232.798 24.1693 233.039 23.9339 233.202 23.6456C233.368 23.3572 233.45 23.054 233.45 22.7358V21.6619C233.401 21.7216 233.291 21.7763 233.122 21.826C232.957 21.8724 232.764 21.9138 232.546 21.9503C232.33 21.9834 232.12 22.0133 231.914 22.0398C231.712 22.063 231.548 22.0829 231.422 22.0994C231.117 22.1392 230.832 22.2038 230.567 22.2933C230.305 22.3795 230.093 22.5104 229.931 22.6861C229.771 22.8584 229.692 23.0937 229.692 23.392C229.692 23.7997 229.843 24.108 230.144 24.3168C230.449 24.5223 230.835 24.625 231.303 24.625ZM236.765 25.5V17.8636H237.939V25.5H236.765ZM237.362 16.5909C237.133 16.5909 236.936 16.513 236.77 16.3572C236.608 16.2015 236.527 16.0142 236.527 15.7955C236.527 15.5767 236.608 15.3894 236.77 15.2337C236.936 15.0779 237.133 15 237.362 15C237.591 15 237.786 15.0779 237.949 15.2337C238.114 15.3894 238.197 15.5767 238.197 15.7955C238.197 16.0142 238.114 16.2015 237.949 16.3572C237.786 16.513 237.591 16.5909 237.362 16.5909ZM241.261 20.9062V25.5H240.088V17.8636H241.221V19.0568H241.32C241.499 18.669 241.771 18.3575 242.136 18.1222C242.5 17.8835 242.971 17.7642 243.548 17.7642C244.065 17.7642 244.517 17.8703 244.905 18.0824C245.293 18.2912 245.594 18.6094 245.81 19.0369C246.025 19.4612 246.133 19.9981 246.133 20.6477V25.5H244.96V20.7273C244.96 20.1274 244.804 19.66 244.492 19.3253C244.181 18.9872 243.753 18.8182 243.21 18.8182C242.835 18.8182 242.5 18.8994 242.205 19.0618C241.914 19.2242 241.683 19.4612 241.514 19.7727C241.345 20.0843 241.261 20.4621 241.261 20.9062ZM251.598 17.8636V18.858H247.641V17.8636H251.598ZM248.794 16.0341H249.967V23.3125C249.967 23.6439 250.015 23.8925 250.112 24.0582C250.211 24.2206 250.337 24.33 250.489 24.3864C250.645 24.4394 250.809 24.4659 250.982 24.4659C251.111 24.4659 251.217 24.4593 251.3 24.446C251.383 24.4295 251.449 24.4162 251.499 24.4062L251.737 25.4602C251.658 25.4901 251.547 25.5199 251.404 25.5497C251.262 25.5829 251.081 25.5994 250.862 25.5994C250.531 25.5994 250.206 25.5282 249.888 25.3857C249.573 25.2431 249.311 25.026 249.102 24.7344C248.897 24.4427 248.794 24.0748 248.794 23.6307V16.0341ZM256.483 25.6591C255.747 25.6591 255.112 25.4967 254.578 25.1719C254.048 24.8438 253.639 24.3864 253.35 23.7997C253.065 23.2098 252.923 22.5237 252.923 21.7415C252.923 20.9593 253.065 20.2699 253.35 19.6733C253.639 19.0734 254.04 18.6061 254.554 18.2713C255.071 17.9332 255.674 17.7642 256.363 17.7642C256.761 17.7642 257.154 17.8305 257.542 17.9631C257.929 18.0956 258.282 18.3111 258.6 18.6094C258.919 18.9044 259.172 19.2955 259.361 19.7827C259.55 20.2699 259.645 20.8698 259.645 21.5824V22.0795H253.758V21.0653H258.451C258.451 20.6345 258.365 20.25 258.193 19.9119C258.024 19.5739 257.782 19.3071 257.467 19.1115C257.155 18.916 256.788 18.8182 256.363 18.8182C255.896 18.8182 255.492 18.9342 255.15 19.1662C254.812 19.3949 254.552 19.6932 254.37 20.0611C254.187 20.429 254.096 20.8234 254.096 21.2443V21.9205C254.096 22.4972 254.196 22.986 254.395 23.3871C254.597 23.7848 254.877 24.0881 255.235 24.2969C255.593 24.5024 256.009 24.6051 256.483 24.6051C256.791 24.6051 257.069 24.562 257.318 24.4759C257.57 24.3864 257.787 24.2538 257.969 24.0781C258.151 23.8991 258.292 23.6771 258.392 23.4119L259.525 23.7301C259.406 24.1146 259.205 24.4527 258.924 24.7443C258.642 25.0327 258.294 25.258 257.88 25.4205C257.465 25.5795 257 25.6591 256.483 25.6591ZM262.603 20.9062V25.5H261.429V17.8636H262.563V19.0568H262.662C262.841 18.669 263.113 18.3575 263.478 18.1222C263.842 17.8835 264.313 17.7642 264.89 17.7642C265.407 17.7642 265.859 17.8703 266.247 18.0824C266.635 18.2912 266.936 18.6094 267.152 19.0369C267.367 19.4612 267.475 19.9981 267.475 20.6477V25.5H266.301V20.7273C266.301 20.1274 266.146 19.66 265.834 19.3253C265.523 18.9872 265.095 18.8182 264.551 18.8182C264.177 18.8182 263.842 18.8994 263.547 19.0618C263.256 19.2242 263.025 19.4612 262.856 19.7727C262.687 20.0843 262.603 20.4621 262.603 20.9062ZM271.866 25.679C271.382 25.679 270.943 25.5878 270.548 25.4055C270.154 25.2199 269.841 24.9531 269.609 24.6051C269.377 24.2538 269.261 23.8295 269.261 23.3324C269.261 22.8949 269.347 22.5402 269.519 22.2685C269.692 21.9934 269.922 21.7779 270.21 21.6222C270.499 21.4664 270.817 21.3504 271.165 21.2741C271.516 21.1946 271.869 21.1316 272.224 21.0852C272.688 21.0256 273.064 20.9808 273.352 20.951C273.644 20.9179 273.856 20.8632 273.989 20.7869C274.125 20.7107 274.193 20.5781 274.193 20.3892V20.3494C274.193 19.8589 274.058 19.4777 273.79 19.206C273.525 18.9342 273.122 18.7983 272.582 18.7983C272.022 18.7983 271.583 18.9209 271.264 19.1662C270.946 19.4115 270.722 19.6733 270.593 19.9517L269.48 19.554C269.678 19.09 269.944 18.7287 270.275 18.4702C270.61 18.2083 270.974 18.026 271.369 17.9233C271.767 17.8172 272.158 17.7642 272.542 17.7642C272.787 17.7642 273.069 17.794 273.387 17.8537C273.709 17.91 274.019 18.0277 274.317 18.2067C274.619 18.3857 274.869 18.6558 275.068 19.017C275.267 19.3783 275.366 19.8622 275.366 20.4688V25.5H274.193V24.4659H274.133C274.053 24.6316 273.921 24.8089 273.735 24.9979C273.55 25.1868 273.303 25.3475 272.994 25.4801C272.686 25.6127 272.31 25.679 271.866 25.679ZM272.045 24.625C272.509 24.625 272.9 24.5339 273.218 24.3516C273.54 24.1693 273.782 23.9339 273.944 23.6456C274.11 23.3572 274.193 23.054 274.193 22.7358V21.6619C274.143 21.7216 274.034 21.7763 273.865 21.826C273.699 21.8724 273.507 21.9138 273.288 21.9503C273.072 21.9834 272.862 22.0133 272.656 22.0398C272.454 22.063 272.29 22.0829 272.164 22.0994C271.859 22.1392 271.574 22.2038 271.309 22.2933C271.047 22.3795 270.835 22.5104 270.673 22.6861C270.514 22.8584 270.434 23.0937 270.434 23.392C270.434 23.7997 270.585 24.108 270.887 24.3168C271.191 24.5223 271.578 24.625 272.045 24.625ZM278.681 20.9062V25.5H277.507V17.8636H278.641V19.0568H278.74C278.919 18.669 279.191 18.3575 279.556 18.1222C279.92 17.8835 280.391 17.7642 280.968 17.7642C281.485 17.7642 281.937 17.8703 282.325 18.0824C282.713 18.2912 283.014 18.6094 283.23 19.0369C283.445 19.4612 283.553 19.9981 283.553 20.6477V25.5H282.38V20.7273C282.38 20.1274 282.224 19.66 281.912 19.3253C281.601 18.9872 281.173 18.8182 280.63 18.8182C280.255 18.8182 279.92 18.8994 279.625 19.0618C279.334 19.2242 279.103 19.4612 278.934 19.7727C278.765 20.0843 278.681 20.4621 278.681 20.9062ZM288.799 25.6591C288.083 25.6591 287.467 25.4901 286.95 25.152C286.433 24.8139 286.035 24.3482 285.757 23.755C285.478 23.1617 285.339 22.4839 285.339 21.7216C285.339 20.946 285.481 20.2616 285.767 19.6683C286.055 19.0717 286.456 18.6061 286.97 18.2713C287.487 17.9332 288.09 17.7642 288.779 17.7642C289.316 17.7642 289.8 17.8636 290.231 18.0625C290.662 18.2614 291.015 18.5398 291.29 18.8977C291.565 19.2557 291.736 19.6733 291.802 20.1506H290.629C290.539 19.8026 290.34 19.4943 290.032 19.2259C289.727 18.9541 289.316 18.8182 288.799 18.8182C288.342 18.8182 287.941 18.9375 287.596 19.1761C287.255 19.4115 286.988 19.7446 286.796 20.1754C286.607 20.603 286.512 21.1051 286.512 21.6818C286.512 22.2718 286.605 22.7855 286.791 23.223C286.98 23.6605 287.245 24.0002 287.586 24.2422C287.931 24.4841 288.335 24.6051 288.799 24.6051C289.104 24.6051 289.381 24.5521 289.629 24.446C289.878 24.34 290.088 24.1875 290.261 23.9886C290.433 23.7898 290.556 23.5511 290.629 23.2727H291.802C291.736 23.7235 291.572 24.1295 291.31 24.4908C291.051 24.8487 290.708 25.1338 290.281 25.3459C289.856 25.5547 289.363 25.6591 288.799 25.6591ZM296.719 25.6591C295.983 25.6591 295.348 25.4967 294.815 25.1719C294.285 24.8438 293.875 24.3864 293.587 23.7997C293.302 23.2098 293.159 22.5237 293.159 21.7415C293.159 20.9593 293.302 20.2699 293.587 19.6733C293.875 19.0734 294.276 18.6061 294.79 18.2713C295.307 17.9332 295.91 17.7642 296.6 17.7642C296.997 17.7642 297.39 17.8305 297.778 17.9631C298.166 18.0956 298.519 18.3111 298.837 18.6094C299.155 18.9044 299.409 19.2955 299.597 19.7827C299.786 20.2699 299.881 20.8698 299.881 21.5824V22.0795H293.994V21.0653H298.688C298.688 20.6345 298.602 20.25 298.429 19.9119C298.26 19.5739 298.018 19.3071 297.703 19.1115C297.392 18.916 297.024 18.8182 296.6 18.8182C296.132 18.8182 295.728 18.9342 295.387 19.1662C295.048 19.3949 294.788 19.6932 294.606 20.0611C294.424 20.429 294.333 20.8234 294.333 21.2443V21.9205C294.333 22.4972 294.432 22.986 294.631 23.3871C294.833 23.7848 295.113 24.0881 295.471 24.2969C295.829 24.5024 296.245 24.6051 296.719 24.6051C297.027 24.6051 297.306 24.562 297.554 24.4759C297.806 24.3864 298.023 24.2538 298.205 24.0781C298.388 23.8991 298.529 23.6771 298.628 23.4119L299.762 23.7301C299.642 24.1146 299.442 24.4527 299.16 24.7443C298.878 25.0327 298.53 25.258 298.116 25.4205C297.702 25.5795 297.236 25.6591 296.719 25.6591Z" fill="#071518"/>
</svg>
