<svg width="250" height="41" viewBox="0 0 250 41" fill="none" xmlns="http://www.w3.org/2000/svg">
<rect x="0.5" y="0.5" width="249" height="40" rx="7.5" fill="white"/>
<rect x="0.5" y="0.5" width="249" height="40" rx="7.5" stroke="#ECECEC"/>
<path d="M16 29.9112H36.16V9.7512H16V29.9112Z" fill="black"/>
<path d="M54.6506 25.5H53.358L57.0966 15.3182H58.3693L62.108 25.5H60.8153L57.7727 16.929H57.6932L54.6506 25.5ZM55.1278 21.5227H60.3381V22.6165H55.1278V21.5227ZM64.9268 15.3182V25.5H63.6939V15.3182H64.9268ZM72.5694 15.3182V25.5H71.3365V15.3182H72.5694ZM74.8825 25.5V17.8636H76.016V19.0568H76.1154C76.2745 18.6491 76.5314 18.3326 76.886 18.1072C77.2406 17.8786 77.6665 17.7642 78.1637 17.7642C78.6675 17.7642 79.0868 17.8786 79.4215 18.1072C79.7596 18.3326 80.0231 18.6491 80.212 19.0568H80.2915C80.4871 18.6624 80.7804 18.3492 81.1715 18.1172C81.5626 17.8819 82.0316 17.7642 82.5785 17.7642C83.2612 17.7642 83.8197 17.978 84.2539 18.4055C84.6881 18.8298 84.9052 19.491 84.9052 20.3892V25.5H83.7319V20.3892C83.7319 19.8258 83.5778 19.4231 83.2695 19.1811C82.9613 18.9392 82.5984 18.8182 82.1808 18.8182C81.6438 18.8182 81.2279 18.9806 80.9329 19.3054C80.6379 19.6269 80.4904 20.0346 80.4904 20.5284V25.5H79.2972V20.2699C79.2972 19.8357 79.1564 19.486 78.8746 19.2209C78.5929 18.9524 78.23 18.8182 77.7859 18.8182C77.4809 18.8182 77.1959 18.8994 76.9308 19.0618C76.6689 19.2242 76.4568 19.4496 76.2944 19.7379C76.1353 20.023 76.0558 20.3527 76.0558 20.7273V25.5H74.8825ZM87.0504 28.3636V17.8636H88.1839V19.0767H88.3232C88.4093 18.9441 88.5286 18.7751 88.6811 18.5696C88.8369 18.3608 89.0589 18.1752 89.3473 18.0128C89.639 17.8471 90.0334 17.7642 90.5305 17.7642C91.1735 17.7642 91.7403 17.925 92.2308 18.2464C92.7214 18.5679 93.1042 19.0237 93.3793 19.6136C93.6544 20.2036 93.7919 20.8996 93.7919 21.7017C93.7919 22.5104 93.6544 23.2114 93.3793 23.8047C93.1042 24.3946 92.723 24.852 92.2358 25.1768C91.7486 25.4983 91.1868 25.6591 90.5504 25.6591C90.0599 25.6591 89.6671 25.5779 89.3722 25.4155C89.0772 25.2498 88.8501 25.0625 88.6911 24.8537C88.532 24.6416 88.4093 24.4659 88.3232 24.3267H88.2237V28.3636H87.0504ZM88.2038 21.6818C88.2038 22.2585 88.2884 22.7673 88.4574 23.2081C88.6264 23.6456 88.8733 23.9886 89.1982 24.2372C89.523 24.4825 89.9207 24.6051 90.3913 24.6051C90.8819 24.6051 91.2912 24.4759 91.6193 24.2173C91.9508 23.9555 92.1993 23.6042 92.3651 23.1634C92.5341 22.7192 92.6186 22.2254 92.6186 21.6818C92.6186 21.1449 92.5357 20.661 92.37 20.2301C92.2076 19.7959 91.9607 19.4529 91.6293 19.201C91.3011 18.9458 90.8885 18.8182 90.3913 18.8182C89.9141 18.8182 89.513 18.9392 89.1882 19.1811C88.8634 19.4197 88.6181 19.7545 88.4524 20.1854C88.2867 20.6129 88.2038 21.1117 88.2038 21.6818ZM96.755 15.3182V25.5H95.5817V15.3182H96.755ZM102.106 25.6591C101.37 25.6591 100.735 25.4967 100.202 25.1719C99.6712 24.8438 99.2619 24.3864 98.9735 23.7997C98.6885 23.2098 98.546 22.5237 98.546 21.7415C98.546 20.9593 98.6885 20.2699 98.9735 19.6733C99.2619 19.0734 99.6629 18.6061 100.177 18.2713C100.694 17.9332 101.297 17.7642 101.986 17.7642C102.384 17.7642 102.777 17.8305 103.165 17.9631C103.552 18.0956 103.905 18.3111 104.224 18.6094C104.542 18.9044 104.795 19.2955 104.984 19.7827C105.173 20.2699 105.268 20.8698 105.268 21.5824V22.0795H99.3812V21.0653H104.074C104.074 20.6345 103.988 20.25 103.816 19.9119C103.647 19.5739 103.405 19.3071 103.09 19.1115C102.778 18.916 102.411 18.8182 101.986 18.8182C101.519 18.8182 101.115 18.9342 100.773 19.1662C100.435 19.3949 100.175 19.6932 99.9927 20.0611C99.8104 20.429 99.7193 20.8234 99.7193 21.2443V21.9205C99.7193 22.4972 99.8187 22.986 100.018 23.3871C100.22 23.7848 100.5 24.0881 100.858 24.2969C101.216 24.5024 101.632 24.6051 102.106 24.6051C102.414 24.6051 102.692 24.562 102.941 24.4759C103.193 24.3864 103.41 24.2538 103.592 24.0781C103.774 23.8991 103.915 23.6771 104.015 23.4119L105.148 23.7301C105.029 24.1146 104.828 24.4527 104.547 24.7443C104.265 25.0327 103.917 25.258 103.503 25.4205C103.088 25.5795 102.623 25.6591 102.106 25.6591ZM107.052 25.5V17.8636H108.186V19.0568H108.285C108.444 18.6491 108.701 18.3326 109.056 18.1072C109.411 17.8786 109.836 17.7642 110.334 17.7642C110.837 17.7642 111.257 17.8786 111.591 18.1072C111.93 18.3326 112.193 18.6491 112.382 19.0568H112.461C112.657 18.6624 112.95 18.3492 113.341 18.1172C113.733 17.8819 114.202 17.7642 114.748 17.7642C115.431 17.7642 115.99 17.978 116.424 18.4055C116.858 18.8298 117.075 19.491 117.075 20.3892V25.5H115.902V20.3892C115.902 19.8258 115.748 19.4231 115.439 19.1811C115.131 18.9392 114.768 18.8182 114.351 18.8182C113.814 18.8182 113.398 18.9806 113.103 19.3054C112.808 19.6269 112.66 20.0346 112.66 20.5284V25.5H111.467V20.2699C111.467 19.8357 111.326 19.486 111.045 19.2209C110.763 18.9524 110.4 18.8182 109.956 18.8182C109.651 18.8182 109.366 18.8994 109.101 19.0618C108.839 19.2242 108.627 19.4496 108.464 19.7379C108.305 20.023 108.226 20.3527 108.226 20.7273V25.5H107.052ZM122.422 25.6591C121.686 25.6591 121.052 25.4967 120.518 25.1719C119.988 24.8438 119.578 24.3864 119.29 23.7997C119.005 23.2098 118.862 22.5237 118.862 21.7415C118.862 20.9593 119.005 20.2699 119.29 19.6733C119.578 19.0734 119.979 18.6061 120.493 18.2713C121.01 17.9332 121.613 17.7642 122.303 17.7642C122.7 17.7642 123.093 17.8305 123.481 17.9631C123.869 18.0956 124.222 18.3111 124.54 18.6094C124.858 18.9044 125.112 19.2955 125.301 19.7827C125.49 20.2699 125.584 20.8698 125.584 21.5824V22.0795H119.698V21.0653H124.391C124.391 20.6345 124.305 20.25 124.132 19.9119C123.963 19.5739 123.721 19.3071 123.406 19.1115C123.095 18.916 122.727 18.8182 122.303 18.8182C121.835 18.8182 121.431 18.9342 121.09 19.1662C120.752 19.3949 120.491 19.6932 120.309 20.0611C120.127 20.429 120.036 20.8234 120.036 21.2443V21.9205C120.036 22.4972 120.135 22.986 120.334 23.3871C120.536 23.7848 120.816 24.0881 121.174 24.2969C121.532 24.5024 121.948 24.6051 122.422 24.6051C122.73 24.6051 123.009 24.562 123.257 24.4759C123.509 24.3864 123.726 24.2538 123.909 24.0781C124.091 23.8991 124.232 23.6771 124.331 23.4119L125.465 23.7301C125.345 24.1146 125.145 24.4527 124.863 24.7443C124.581 25.0327 124.233 25.258 123.819 25.4205C123.405 25.5795 122.939 25.6591 122.422 25.6591ZM128.542 20.9062V25.5H127.369V17.8636H128.502V19.0568H128.602C128.781 18.669 129.052 18.3575 129.417 18.1222C129.782 17.8835 130.252 17.7642 130.829 17.7642C131.346 17.7642 131.798 17.8703 132.186 18.0824C132.574 18.2912 132.876 18.6094 133.091 19.0369C133.307 19.4612 133.414 19.9981 133.414 20.6477V25.5H132.241V20.7273C132.241 20.1274 132.085 19.66 131.774 19.3253C131.462 18.9872 131.035 18.8182 130.491 18.8182C130.116 18.8182 129.782 18.8994 129.487 19.0618C129.195 19.2242 128.965 19.4612 128.796 19.7727C128.627 20.0843 128.542 20.4621 128.542 20.9062ZM138.879 17.8636V18.858H134.922V17.8636H138.879ZM136.075 16.0341H137.249V23.3125C137.249 23.6439 137.297 23.8925 137.393 24.0582C137.492 24.2206 137.618 24.33 137.771 24.3864C137.926 24.4394 138.09 24.4659 138.263 24.4659C138.392 24.4659 138.498 24.4593 138.581 24.446C138.664 24.4295 138.73 24.4162 138.78 24.4062L139.018 25.4602C138.939 25.4901 138.828 25.5199 138.685 25.5497C138.543 25.5829 138.362 25.5994 138.143 25.5994C137.812 25.5994 137.487 25.5282 137.169 25.3857C136.854 25.2431 136.592 25.026 136.384 24.7344C136.178 24.4427 136.075 24.0748 136.075 23.6307V16.0341ZM142.891 25.679C142.407 25.679 141.968 25.5878 141.574 25.4055C141.179 25.2199 140.866 24.9531 140.634 24.6051C140.402 24.2538 140.286 23.8295 140.286 23.3324C140.286 22.8949 140.372 22.5402 140.545 22.2685C140.717 21.9934 140.947 21.7779 141.236 21.6222C141.524 21.4664 141.842 21.3504 142.19 21.2741C142.542 21.1946 142.895 21.1316 143.249 21.0852C143.713 21.0256 144.089 20.9808 144.378 20.951C144.67 20.9179 144.882 20.8632 145.014 20.7869C145.15 20.7107 145.218 20.5781 145.218 20.3892V20.3494C145.218 19.8589 145.084 19.4777 144.815 19.206C144.55 18.9342 144.147 18.7983 143.607 18.7983C143.047 18.7983 142.608 18.9209 142.29 19.1662C141.972 19.4115 141.748 19.6733 141.619 19.9517L140.505 19.554C140.704 19.09 140.969 18.7287 141.3 18.4702C141.635 18.2083 142 18.026 142.394 17.9233C142.792 17.8172 143.183 17.7642 143.567 17.7642C143.813 17.7642 144.094 17.794 144.413 17.8537C144.734 17.91 145.044 18.0277 145.342 18.2067C145.644 18.3857 145.894 18.6558 146.093 19.017C146.292 19.3783 146.391 19.8622 146.391 20.4688V25.5H145.218V24.4659H145.158C145.079 24.6316 144.946 24.8089 144.761 24.9979C144.575 25.1868 144.328 25.3475 144.02 25.4801C143.712 25.6127 143.335 25.679 142.891 25.679ZM143.07 24.625C143.534 24.625 143.925 24.5339 144.244 24.3516C144.565 24.1693 144.807 23.9339 144.969 23.6456C145.135 23.3572 145.218 23.054 145.218 22.7358V21.6619C145.168 21.7216 145.059 21.7763 144.89 21.826C144.724 21.8724 144.532 21.9138 144.313 21.9503C144.098 21.9834 143.887 22.0133 143.682 22.0398C143.48 22.063 143.316 22.0829 143.19 22.0994C142.885 22.1392 142.6 22.2038 142.335 22.2933C142.073 22.3795 141.861 22.5104 141.698 22.6861C141.539 22.8584 141.46 23.0937 141.46 23.392C141.46 23.7997 141.61 24.108 141.912 24.3168C142.217 24.5223 142.603 24.625 143.07 24.625ZM151.854 17.8636V18.858H147.896V17.8636H151.854ZM149.05 16.0341H150.223V23.3125C150.223 23.6439 150.271 23.8925 150.367 24.0582C150.467 24.2206 150.593 24.33 150.745 24.3864C150.901 24.4394 151.065 24.4659 151.237 24.4659C151.367 24.4659 151.473 24.4593 151.556 24.446C151.638 24.4295 151.705 24.4162 151.754 24.4062L151.993 25.4602C151.914 25.4901 151.802 25.5199 151.66 25.5497C151.517 25.5829 151.337 25.5994 151.118 25.5994C150.787 25.5994 150.462 25.5282 150.144 25.3857C149.829 25.2431 149.567 25.026 149.358 24.7344C149.153 24.4427 149.05 24.0748 149.05 23.6307V16.0341ZM153.619 25.5V17.8636H154.792V25.5H153.619ZM154.215 16.5909C153.987 16.5909 153.789 16.513 153.624 16.3572C153.461 16.2015 153.38 16.0142 153.38 15.7955C153.38 15.5767 153.461 15.3894 153.624 15.2337C153.789 15.0779 153.987 15 154.215 15C154.444 15 154.64 15.0779 154.802 15.2337C154.968 15.3894 155.051 15.5767 155.051 15.7955C155.051 16.0142 154.968 16.2015 154.802 16.3572C154.64 16.513 154.444 16.5909 154.215 16.5909ZM160.043 25.6591C159.354 25.6591 158.749 25.495 158.229 25.1669C157.712 24.8388 157.307 24.3797 157.016 23.7898C156.727 23.1998 156.583 22.5104 156.583 21.7216C156.583 20.9261 156.727 20.2318 157.016 19.6385C157.307 19.0452 157.712 18.5845 158.229 18.2564C158.749 17.9283 159.354 17.7642 160.043 17.7642C160.733 17.7642 161.336 17.9283 161.853 18.2564C162.373 18.5845 162.778 19.0452 163.066 19.6385C163.358 20.2318 163.504 20.9261 163.504 21.7216C163.504 22.5104 163.358 23.1998 163.066 23.7898C162.778 24.3797 162.373 24.8388 161.853 25.1669C161.336 25.495 160.733 25.6591 160.043 25.6591ZM160.043 24.6051C160.567 24.6051 160.998 24.4709 161.336 24.2024C161.674 23.9339 161.924 23.581 162.087 23.1435C162.249 22.706 162.33 22.232 162.33 21.7216C162.33 21.2112 162.249 20.7356 162.087 20.2947C161.924 19.8539 161.674 19.4976 161.336 19.2259C160.998 18.9541 160.567 18.8182 160.043 18.8182C159.52 18.8182 159.089 18.9541 158.751 19.2259C158.413 19.4976 158.162 19.8539 158 20.2947C157.838 20.7356 157.756 21.2112 157.756 21.7216C157.756 22.232 157.838 22.706 158 23.1435C158.162 23.581 158.413 23.9339 158.751 24.2024C159.089 24.4709 159.52 24.6051 160.043 24.6051ZM166.468 20.9062V25.5H165.295V17.8636H166.428V19.0568H166.528C166.706 18.669 166.978 18.3575 167.343 18.1222C167.707 17.8835 168.178 17.7642 168.755 17.7642C169.272 17.7642 169.724 17.8703 170.112 18.0824C170.5 18.2912 170.801 18.6094 171.017 19.0369C171.232 19.4612 171.34 19.9981 171.34 20.6477V25.5H170.167V20.7273C170.167 20.1274 170.011 19.66 169.699 19.3253C169.388 18.9872 168.96 18.8182 168.417 18.8182C168.042 18.8182 167.707 18.8994 167.412 19.0618C167.121 19.2242 166.89 19.4612 166.721 19.7727C166.552 20.0843 166.468 20.4621 166.468 20.9062ZM183.149 17.8636C183.089 17.3598 182.847 16.9688 182.423 16.6903C181.999 16.4119 181.478 16.2727 180.862 16.2727C180.411 16.2727 180.017 16.3456 179.679 16.4915C179.344 16.6373 179.082 16.8378 178.893 17.093C178.708 17.3482 178.615 17.6383 178.615 17.9631C178.615 18.2348 178.679 18.4685 178.809 18.6641C178.941 18.8563 179.11 19.017 179.316 19.1463C179.521 19.2723 179.737 19.3767 179.962 19.4595C180.187 19.5391 180.395 19.6037 180.583 19.6534L181.618 19.9318C181.883 20.0014 182.178 20.0975 182.502 20.2202C182.831 20.3428 183.144 20.5102 183.442 20.7223C183.744 20.9311 183.992 21.1996 184.188 21.5277C184.383 21.8558 184.481 22.2585 184.481 22.7358C184.481 23.286 184.337 23.7831 184.049 24.2273C183.764 24.6714 183.346 25.0244 182.796 25.2862C182.249 25.5481 181.584 25.679 180.802 25.679C180.073 25.679 179.442 25.5613 178.908 25.326C178.378 25.0907 177.96 24.7625 177.655 24.3416C177.354 23.9207 177.183 23.4318 177.143 22.875H178.416C178.449 23.2595 178.578 23.5777 178.804 23.8295C179.032 24.0781 179.321 24.2637 179.669 24.3864C180.02 24.5057 180.398 24.5653 180.802 24.5653C181.273 24.5653 181.695 24.4891 182.07 24.3366C182.444 24.1809 182.741 23.9654 182.96 23.6903C183.179 23.4119 183.288 23.0871 183.288 22.7159C183.288 22.3778 183.194 22.1027 183.005 21.8906C182.816 21.6785 182.567 21.5062 182.259 21.3736C181.951 21.241 181.618 21.125 181.26 21.0256L180.007 20.6676C179.211 20.4389 178.582 20.1125 178.118 19.6882C177.654 19.264 177.422 18.7088 177.422 18.0227C177.422 17.4527 177.576 16.9555 177.884 16.5312C178.195 16.1037 178.613 15.7723 179.137 15.5369C179.664 15.2983 180.252 15.179 180.902 15.179C181.558 15.179 182.141 15.2966 182.652 15.532C183.162 15.764 183.566 16.0821 183.865 16.4865C184.166 16.8909 184.325 17.3499 184.342 17.8636H183.149ZM189.551 25.6591C188.815 25.6591 188.18 25.4967 187.647 25.1719C187.117 24.8438 186.707 24.3864 186.419 23.7997C186.134 23.2098 185.991 22.5237 185.991 21.7415C185.991 20.9593 186.134 20.2699 186.419 19.6733C186.707 19.0734 187.108 18.6061 187.622 18.2713C188.139 17.9332 188.742 17.7642 189.432 17.7642C189.829 17.7642 190.222 17.8305 190.61 17.9631C190.998 18.0956 191.351 18.3111 191.669 18.6094C191.987 18.9044 192.241 19.2955 192.43 19.7827C192.618 20.2699 192.713 20.8698 192.713 21.5824V22.0795H186.827V21.0653H191.52C191.52 20.6345 191.434 20.25 191.261 19.9119C191.092 19.5739 190.85 19.3071 190.535 19.1115C190.224 18.916 189.856 18.8182 189.432 18.8182C188.964 18.8182 188.56 18.9342 188.219 19.1662C187.881 19.3949 187.62 19.6932 187.438 20.0611C187.256 20.429 187.165 20.8234 187.165 21.2443V21.9205C187.165 22.4972 187.264 22.986 187.463 23.3871C187.665 23.7848 187.945 24.0881 188.303 24.2969C188.661 24.5024 189.077 24.6051 189.551 24.6051C189.859 24.6051 190.138 24.562 190.386 24.4759C190.638 24.3864 190.855 24.2538 191.037 24.0781C191.22 23.8991 191.361 23.6771 191.46 23.4119L192.594 23.7301C192.474 24.1146 192.274 24.4527 191.992 24.7443C191.71 25.0327 191.362 25.258 190.948 25.4205C190.534 25.5795 190.068 25.6591 189.551 25.6591ZM194.498 25.5V17.8636H195.631V19.017H195.711C195.85 18.6392 196.102 18.3326 196.466 18.0973C196.831 17.862 197.242 17.7443 197.699 17.7443C197.786 17.7443 197.893 17.746 198.023 17.7493C198.152 17.7526 198.25 17.7576 198.316 17.7642V18.9574C198.276 18.9474 198.185 18.9325 198.042 18.9126C197.903 18.8894 197.756 18.8778 197.6 18.8778C197.229 18.8778 196.897 18.9557 196.606 19.1115C196.317 19.264 196.089 19.4761 195.92 19.7479C195.754 20.0163 195.671 20.3229 195.671 20.6676V25.5H194.498ZM206.183 17.8636L203.36 25.5H202.166L199.343 17.8636H200.615L202.723 23.9489H202.803L204.911 17.8636H206.183ZM207.732 25.5V17.8636H208.905V25.5H207.732ZM208.329 16.5909C208.1 16.5909 207.903 16.513 207.737 16.3572C207.575 16.2015 207.493 16.0142 207.493 15.7955C207.493 15.5767 207.575 15.3894 207.737 15.2337C207.903 15.0779 208.1 15 208.329 15C208.557 15 208.753 15.0779 208.915 15.2337C209.081 15.3894 209.164 15.5767 209.164 15.7955C209.164 16.0142 209.081 16.2015 208.915 16.3572C208.753 16.513 208.557 16.5909 208.329 16.5909ZM214.157 25.6591C213.441 25.6591 212.824 25.4901 212.307 25.152C211.79 24.8139 211.392 24.3482 211.114 23.755C210.836 23.1617 210.696 22.4839 210.696 21.7216C210.696 20.946 210.839 20.2616 211.124 19.6683C211.412 19.0717 211.813 18.6061 212.327 18.2713C212.844 17.9332 213.447 17.7642 214.137 17.7642C214.674 17.7642 215.158 17.8636 215.588 18.0625C216.019 18.2614 216.372 18.5398 216.647 18.8977C216.922 19.2557 217.093 19.6733 217.159 20.1506H215.986C215.897 19.8026 215.698 19.4943 215.39 19.2259C215.085 18.9541 214.674 18.8182 214.157 18.8182C213.699 18.8182 213.298 18.9375 212.953 19.1761C212.612 19.4115 212.345 19.7446 212.153 20.1754C211.964 20.603 211.87 21.1051 211.87 21.6818C211.87 22.2718 211.962 22.7855 212.148 23.223C212.337 23.6605 212.602 24.0002 212.944 24.2422C213.288 24.4841 213.693 24.6051 214.157 24.6051C214.462 24.6051 214.738 24.5521 214.987 24.446C215.235 24.34 215.446 24.1875 215.618 23.9886C215.791 23.7898 215.913 23.5511 215.986 23.2727H217.159C217.093 23.7235 216.929 24.1295 216.667 24.4908C216.409 24.8487 216.066 25.1338 215.638 25.3459C215.214 25.5547 214.72 25.6591 214.157 25.6591ZM222.076 25.6591C221.341 25.6591 220.706 25.4967 220.172 25.1719C219.642 24.8438 219.233 24.3864 218.944 23.7997C218.659 23.2098 218.517 22.5237 218.517 21.7415C218.517 20.9593 218.659 20.2699 218.944 19.6733C219.233 19.0734 219.634 18.6061 220.147 18.2713C220.664 17.9332 221.268 17.7642 221.957 17.7642C222.355 17.7642 222.748 17.8305 223.135 17.9631C223.523 18.0956 223.876 18.3111 224.194 18.6094C224.512 18.9044 224.766 19.2955 224.955 19.7827C225.144 20.2699 225.238 20.8698 225.238 21.5824V22.0795H219.352V21.0653H224.045C224.045 20.6345 223.959 20.25 223.787 19.9119C223.618 19.5739 223.376 19.3071 223.061 19.1115C222.749 18.916 222.381 18.8182 221.957 18.8182C221.49 18.8182 221.085 18.9342 220.744 19.1662C220.406 19.3949 220.146 19.6932 219.963 20.0611C219.781 20.429 219.69 20.8234 219.69 21.2443V21.9205C219.69 22.4972 219.789 22.986 219.988 23.3871C220.19 23.7848 220.471 24.0881 220.828 24.2969C221.186 24.5024 221.602 24.6051 222.076 24.6051C222.385 24.6051 222.663 24.562 222.912 24.4759C223.163 24.3864 223.381 24.2538 223.563 24.0781C223.745 23.8991 223.886 23.6771 223.985 23.4119L225.119 23.7301C225 24.1146 224.799 24.4527 224.517 24.7443C224.236 25.0327 223.888 25.258 223.473 25.4205C223.059 25.5795 222.593 25.6591 222.076 25.6591ZM232.432 19.5739L231.378 19.8722C231.312 19.6965 231.214 19.5258 231.085 19.3601C230.959 19.1911 230.787 19.0518 230.568 18.9425C230.349 18.8331 230.069 18.7784 229.728 18.7784C229.26 18.7784 228.871 18.8861 228.559 19.1016C228.251 19.3137 228.097 19.5838 228.097 19.9119C228.097 20.2036 228.203 20.4339 228.415 20.603C228.627 20.772 228.959 20.9129 229.409 21.0256L230.543 21.304C231.226 21.4697 231.734 21.7232 232.069 22.0646C232.404 22.4027 232.571 22.8385 232.571 23.3722C232.571 23.8097 232.445 24.2008 232.194 24.5455C231.945 24.8902 231.597 25.1619 231.15 25.3608C230.702 25.5597 230.182 25.6591 229.588 25.6591C228.81 25.6591 228.165 25.4901 227.654 25.152C227.144 24.8139 226.821 24.3201 226.685 23.6705L227.799 23.392C227.905 23.803 228.105 24.1113 228.4 24.3168C228.699 24.5223 229.088 24.625 229.569 24.625C230.115 24.625 230.55 24.509 230.871 24.277C231.196 24.0417 231.358 23.7599 231.358 23.4318C231.358 23.1667 231.266 22.9446 231.08 22.7656C230.894 22.5833 230.609 22.4474 230.225 22.358L228.952 22.0597C228.253 21.8939 227.739 21.6371 227.411 21.2891C227.086 20.9377 226.924 20.4986 226.924 19.9716C226.924 19.5407 227.045 19.1596 227.287 18.8281C227.532 18.4967 227.865 18.2365 228.286 18.0476C228.71 17.8587 229.191 17.7642 229.728 17.7642C230.483 17.7642 231.077 17.9299 231.507 18.2614C231.942 18.5928 232.25 19.0303 232.432 19.5739Z" fill="#071518"/>
</svg>
