<svg width="195" height="41" viewBox="0 0 195 41" fill="none" xmlns="http://www.w3.org/2000/svg">
<rect x="0.5" y="0.5" width="194" height="40" rx="7.5" fill="white"/>
<rect x="0.5" y="0.5" width="194" height="40" rx="7.5" stroke="#ECECEC"/>
<path d="M16 30.3758H35.6545V10.7213H16V30.3758Z" fill="black"/>
<path d="M60.1932 18.5C60.0838 18.1652 59.9396 17.8653 59.7607 17.6001C59.585 17.3317 59.3745 17.103 59.1293 16.9141C58.8873 16.7251 58.6122 16.581 58.304 16.4815C57.9957 16.3821 57.6577 16.3324 57.2898 16.3324C56.6866 16.3324 56.138 16.4882 55.6442 16.7997C55.1503 17.1113 54.7576 17.5703 54.4659 18.1768C54.1742 18.7834 54.0284 19.5275 54.0284 20.4091C54.0284 21.2907 54.1759 22.0348 54.4709 22.6413C54.7659 23.2479 55.1652 23.7069 55.669 24.0185C56.1728 24.33 56.7396 24.4858 57.3693 24.4858C57.9527 24.4858 58.4664 24.3615 58.9105 24.1129C59.358 23.861 59.706 23.5064 59.9545 23.049C60.2064 22.5883 60.3324 22.0464 60.3324 21.4233L60.7102 21.5028H57.6477V20.4091H61.5256V21.5028C61.5256 22.3414 61.3466 23.0705 60.9886 23.6903C60.634 24.3101 60.1435 24.7907 59.517 25.1321C58.8939 25.4702 58.178 25.6392 57.3693 25.6392C56.4678 25.6392 55.6757 25.4271 54.9929 25.0028C54.3134 24.5786 53.7831 23.9754 53.402 23.1932C53.0241 22.411 52.8352 21.483 52.8352 20.4091C52.8352 19.6037 52.9429 18.8795 53.1584 18.2365C53.3771 17.5902 53.6854 17.04 54.0831 16.5859C54.4808 16.1319 54.9515 15.7839 55.495 15.5419C56.0386 15.3 56.6368 15.179 57.2898 15.179C57.8267 15.179 58.3272 15.2602 58.7912 15.4226C59.2585 15.5817 59.6745 15.8087 60.0391 16.1037C60.407 16.3954 60.7135 16.745 60.9588 17.1527C61.2041 17.5571 61.3731 18.0062 61.4659 18.5H60.1932ZM66.6799 25.6591C65.9441 25.6591 65.3094 25.4967 64.7757 25.1719C64.2454 24.8438 63.8361 24.3864 63.5478 23.7997C63.2627 23.2098 63.1202 22.5237 63.1202 21.7415C63.1202 20.9593 63.2627 20.2699 63.5478 19.6733C63.8361 19.0734 64.2372 18.6061 64.7509 18.2713C65.2679 17.9332 65.8712 17.7642 66.5605 17.7642C66.9583 17.7642 67.351 17.8305 67.7388 17.9631C68.1266 18.0956 68.4796 18.3111 68.7978 18.6094C69.1159 18.9044 69.3695 19.2955 69.5584 19.7827C69.7473 20.2699 69.8418 20.8698 69.8418 21.5824V22.0795H63.9554V21.0653H68.6486C68.6486 20.6345 68.5624 20.25 68.3901 19.9119C68.2211 19.5739 67.9791 19.3071 67.6642 19.1115C67.3527 18.916 66.9848 18.8182 66.5605 18.8182C66.0932 18.8182 65.6889 18.9342 65.3475 19.1662C65.0094 19.3949 64.7492 19.6932 64.5669 20.0611C64.3846 20.429 64.2935 20.8234 64.2935 21.2443V21.9205C64.2935 22.4972 64.3929 22.986 64.5918 23.3871C64.794 23.7848 65.074 24.0881 65.432 24.2969C65.79 24.5024 66.2059 24.6051 66.6799 24.6051C66.9881 24.6051 67.2665 24.562 67.5151 24.4759C67.767 24.3864 67.9841 24.2538 68.1664 24.0781C68.3487 23.8991 68.4895 23.6771 68.589 23.4119L69.7225 23.7301C69.6032 24.1146 69.4026 24.4527 69.1209 24.7443C68.8392 25.0327 68.4912 25.258 68.0769 25.4205C67.6626 25.5795 67.1969 25.6591 66.6799 25.6591ZM72.7999 20.9062V25.5H71.6266V17.8636H72.7601V19.0568H72.8596C73.0385 18.669 73.3103 18.3575 73.6749 18.1222C74.0395 17.8835 74.5101 17.7642 75.0868 17.7642C75.6039 17.7642 76.0563 17.8703 76.4441 18.0824C76.8319 18.2912 77.1335 18.6094 77.3489 19.0369C77.5643 19.4612 77.6721 19.9981 77.6721 20.6477V25.5H76.4988V20.7273C76.4988 20.1274 76.343 19.66 76.0314 19.3253C75.7199 18.9872 75.2923 18.8182 74.7488 18.8182C74.3742 18.8182 74.0395 18.8994 73.7445 19.0618C73.4528 19.2242 73.2225 19.4612 73.0534 19.7727C72.8844 20.0843 72.7999 20.4621 72.7999 20.9062ZM83.0178 25.6591C82.282 25.6591 81.6473 25.4967 81.1136 25.1719C80.5833 24.8438 80.174 24.3864 79.8857 23.7997C79.6006 23.2098 79.4581 22.5237 79.4581 21.7415C79.4581 20.9593 79.6006 20.2699 79.8857 19.6733C80.174 19.0734 80.575 18.6061 81.0888 18.2713C81.6058 17.9332 82.209 17.7642 82.8984 17.7642C83.2962 17.7642 83.6889 17.8305 84.0767 17.9631C84.4645 18.0956 84.8175 18.3111 85.1357 18.6094C85.4538 18.9044 85.7074 19.2955 85.8963 19.7827C86.0852 20.2699 86.1797 20.8698 86.1797 21.5824V22.0795H80.2933V21.0653H84.9865C84.9865 20.6345 84.9003 20.25 84.728 19.9119C84.5589 19.5739 84.317 19.3071 84.0021 19.1115C83.6906 18.916 83.3227 18.8182 82.8984 18.8182C82.4311 18.8182 82.0268 18.9342 81.6854 19.1662C81.3473 19.3949 81.0871 19.6932 80.9048 20.0611C80.7225 20.429 80.6314 20.8234 80.6314 21.2443V21.9205C80.6314 22.4972 80.7308 22.986 80.9297 23.3871C81.1319 23.7848 81.4119 24.0881 81.7699 24.2969C82.1278 24.5024 82.5438 24.6051 83.0178 24.6051C83.326 24.6051 83.6044 24.562 83.853 24.4759C84.1049 24.3864 84.322 24.2538 84.5043 24.0781C84.6866 23.8991 84.8274 23.6771 84.9268 23.4119L86.0604 23.7301C85.9411 24.1146 85.7405 24.4527 85.4588 24.7443C85.1771 25.0327 84.8291 25.258 84.4148 25.4205C84.0005 25.5795 83.5348 25.6591 83.0178 25.6591ZM87.9645 25.5V17.8636H89.098V19.017H89.1776C89.3168 18.6392 89.5687 18.3326 89.9332 18.0973C90.2978 17.862 90.7088 17.7443 91.1662 17.7443C91.2524 17.7443 91.3601 17.746 91.4893 17.7493C91.6186 17.7526 91.7164 17.7576 91.7827 17.7642V18.9574C91.7429 18.9474 91.6518 18.9325 91.5092 18.9126C91.37 18.8894 91.2225 18.8778 91.0668 18.8778C90.6955 18.8778 90.3641 18.9557 90.0724 19.1115C89.7841 19.264 89.5554 19.4761 89.3864 19.7479C89.2206 20.0163 89.1378 20.3229 89.1378 20.6676V25.5H87.9645ZM95.4206 25.679C94.9367 25.679 94.4976 25.5878 94.1032 25.4055C93.7087 25.2199 93.3955 24.9531 93.1635 24.6051C92.9315 24.2538 92.8155 23.8295 92.8155 23.3324C92.8155 22.8949 92.9017 22.5402 93.074 22.2685C93.2464 21.9934 93.4767 21.7779 93.7651 21.6222C94.0534 21.4664 94.3716 21.3504 94.7196 21.2741C95.071 21.1946 95.4239 21.1316 95.7786 21.0852C96.2426 21.0256 96.6188 20.9808 96.9071 20.951C97.1988 20.9179 97.4109 20.8632 97.5435 20.7869C97.6794 20.7107 97.7473 20.5781 97.7473 20.3892V20.3494C97.7473 19.8589 97.6131 19.4777 97.3446 19.206C97.0795 18.9342 96.6768 18.7983 96.1365 18.7983C95.5764 18.7983 95.1373 18.9209 94.8191 19.1662C94.5009 19.4115 94.2772 19.6733 94.1479 19.9517L93.0343 19.554C93.2331 19.09 93.4983 18.7287 93.8297 18.4702C94.1645 18.2083 94.5291 18.026 94.9235 17.9233C95.3212 17.8172 95.7123 17.7642 96.0968 17.7642C96.342 17.7642 96.6238 17.794 96.9419 17.8537C97.2634 17.91 97.5733 18.0277 97.8716 18.2067C98.1732 18.3857 98.4235 18.6558 98.6223 19.017C98.8212 19.3783 98.9206 19.8622 98.9206 20.4688V25.5H97.7473V24.4659H97.6877C97.6081 24.6316 97.4756 24.8089 97.29 24.9979C97.1043 25.1868 96.8574 25.3475 96.5492 25.4801C96.2409 25.6127 95.8648 25.679 95.4206 25.679ZM95.5996 24.625C96.0636 24.625 96.4547 24.5339 96.7729 24.3516C97.0944 24.1693 97.3364 23.9339 97.4988 23.6456C97.6645 23.3572 97.7473 23.054 97.7473 22.7358V21.6619C97.6976 21.7216 97.5882 21.7763 97.4192 21.826C97.2535 21.8724 97.0613 21.9138 96.8425 21.9503C96.6271 21.9834 96.4166 22.0133 96.2111 22.0398C96.0089 22.063 95.8449 22.0829 95.7189 22.0994C95.414 22.1392 95.129 22.2038 94.8638 22.2933C94.602 22.3795 94.3899 22.5104 94.2275 22.6861C94.0684 22.8584 93.9888 23.0937 93.9888 23.392C93.9888 23.7997 94.1396 24.108 94.4412 24.3168C94.7462 24.5223 95.1323 24.625 95.5996 24.625ZM104.383 17.8636V18.858H100.426V17.8636H104.383ZM101.579 16.0341H102.752V23.3125C102.752 23.6439 102.801 23.8925 102.897 24.0582C102.996 24.2206 103.122 24.33 103.275 24.3864C103.43 24.4394 103.594 24.4659 103.767 24.4659C103.896 24.4659 104.002 24.4593 104.085 24.446C104.168 24.4295 104.234 24.4162 104.284 24.4062L104.522 25.4602C104.443 25.4901 104.332 25.5199 104.189 25.5497C104.047 25.5829 103.866 25.5994 103.647 25.5994C103.316 25.5994 102.991 25.5282 102.673 25.3857C102.358 25.2431 102.096 25.026 101.887 24.7344C101.682 24.4427 101.579 24.0748 101.579 23.6307V16.0341ZM106.148 25.5V17.8636H107.321V25.5H106.148ZM106.745 16.5909C106.516 16.5909 106.319 16.513 106.153 16.3572C105.991 16.2015 105.909 16.0142 105.909 15.7955C105.909 15.5767 105.991 15.3894 106.153 15.2337C106.319 15.0779 106.516 15 106.745 15C106.973 15 107.169 15.0779 107.331 15.2337C107.497 15.3894 107.58 15.5767 107.58 15.7955C107.58 16.0142 107.497 16.2015 107.331 16.3572C107.169 16.513 106.973 16.5909 106.745 16.5909ZM115.715 17.8636L112.891 25.5H111.698L108.874 17.8636H110.146L112.254 23.9489H112.334L114.442 17.8636H115.715ZM120.192 25.6591C119.456 25.6591 118.821 25.4967 118.287 25.1719C117.757 24.8438 117.348 24.3864 117.059 23.7997C116.774 23.2098 116.632 22.5237 116.632 21.7415C116.632 20.9593 116.774 20.2699 117.059 19.6733C117.348 19.0734 117.749 18.6061 118.263 18.2713C118.78 17.9332 119.383 17.7642 120.072 17.7642C120.47 17.7642 120.863 17.8305 121.251 17.9631C121.638 18.0956 121.991 18.3111 122.309 18.6094C122.628 18.9044 122.881 19.2955 123.07 19.7827C123.259 20.2699 123.354 20.8698 123.354 21.5824V22.0795H117.467V21.0653H122.16C122.16 20.6345 122.074 20.25 121.902 19.9119C121.733 19.5739 121.491 19.3071 121.176 19.1115C120.864 18.916 120.497 18.8182 120.072 18.8182C119.605 18.8182 119.201 18.9342 118.859 19.1662C118.521 19.3949 118.261 19.6932 118.079 20.0611C117.896 20.429 117.805 20.8234 117.805 21.2443V21.9205C117.805 22.4972 117.905 22.986 118.104 23.3871C118.306 23.7848 118.586 24.0881 118.944 24.2969C119.302 24.5024 119.718 24.6051 120.192 24.6051C120.5 24.6051 120.778 24.562 121.027 24.4759C121.279 24.3864 121.496 24.2538 121.678 24.0781C121.86 23.8991 122.001 23.6771 122.101 23.4119L123.234 23.7301C123.115 24.1146 122.914 24.4527 122.633 24.7443C122.351 25.0327 122.003 25.258 121.589 25.4205C121.174 25.5795 120.709 25.6591 120.192 25.6591ZM129.653 25.5H128.36L132.099 15.3182H133.371L137.11 25.5H135.817L132.775 16.929H132.695L129.653 25.5ZM130.13 21.5227H135.34V22.6165H130.13V21.5227ZM139.929 15.3182V25.5H138.696V15.3182H139.929ZM146.756 25.5H145.463L149.202 15.3182H150.475L154.213 25.5H152.921L149.878 16.929H149.799L146.756 25.5ZM147.233 21.5227H152.444V22.6165H147.233V21.5227ZM155.64 28.3636V17.8636H156.774V19.0767H156.913C156.999 18.9441 157.118 18.7751 157.271 18.5696C157.427 18.3608 157.649 18.1752 157.937 18.0128C158.229 17.8471 158.623 17.7642 159.12 17.7642C159.763 17.7642 160.33 17.925 160.821 18.2464C161.311 18.5679 161.694 19.0237 161.969 19.6136C162.244 20.2036 162.382 20.8996 162.382 21.7017C162.382 22.5104 162.244 23.2114 161.969 23.8047C161.694 24.3946 161.313 24.852 160.826 25.1768C160.338 25.4983 159.777 25.6591 159.14 25.6591C158.65 25.6591 158.257 25.5779 157.962 25.4155C157.667 25.2498 157.44 25.0625 157.281 24.8537C157.122 24.6416 156.999 24.4659 156.913 24.3267H156.814V28.3636H155.64ZM156.794 21.6818C156.794 22.2585 156.878 22.7673 157.047 23.2081C157.216 23.6456 157.463 23.9886 157.788 24.2372C158.113 24.4825 158.511 24.6051 158.981 24.6051C159.472 24.6051 159.881 24.4759 160.209 24.2173C160.541 23.9555 160.789 23.6042 160.955 23.1634C161.124 22.7192 161.208 22.2254 161.208 21.6818C161.208 21.1449 161.126 20.661 160.96 20.2301C160.797 19.7959 160.551 19.4529 160.219 19.201C159.891 18.9458 159.478 18.8182 158.981 18.8182C158.504 18.8182 158.103 18.9392 157.778 19.1811C157.453 19.4197 157.208 19.7545 157.042 20.1854C156.877 20.6129 156.794 21.1117 156.794 21.6818ZM164.172 28.3636V17.8636H165.305V19.0767H165.444C165.53 18.9441 165.65 18.7751 165.802 18.5696C165.958 18.3608 166.18 18.1752 166.468 18.0128C166.76 17.8471 167.154 17.7642 167.652 17.7642C168.295 17.7642 168.861 17.925 169.352 18.2464C169.842 18.5679 170.225 19.0237 170.5 19.6136C170.775 20.2036 170.913 20.8996 170.913 21.7017C170.913 22.5104 170.775 23.2114 170.5 23.8047C170.225 24.3946 169.844 24.852 169.357 25.1768C168.87 25.4983 168.308 25.6591 167.672 25.6591C167.181 25.6591 166.788 25.5779 166.493 25.4155C166.198 25.2498 165.971 25.0625 165.812 24.8537C165.653 24.6416 165.53 24.4659 165.444 24.3267H165.345V28.3636H164.172ZM165.325 21.6818C165.325 22.2585 165.409 22.7673 165.578 23.2081C165.748 23.6456 165.994 23.9886 166.319 24.2372C166.644 24.4825 167.042 24.6051 167.512 24.6051C168.003 24.6051 168.412 24.4759 168.74 24.2173C169.072 23.9555 169.32 23.6042 169.486 23.1634C169.655 22.7192 169.74 22.2254 169.74 21.6818C169.74 21.1449 169.657 20.661 169.491 20.2301C169.329 19.7959 169.082 19.4529 168.75 19.201C168.422 18.9458 168.01 18.8182 167.512 18.8182C167.035 18.8182 166.634 18.9392 166.309 19.1811C165.984 19.4197 165.739 19.7545 165.574 20.1854C165.408 20.6129 165.325 21.1117 165.325 21.6818ZM178.112 19.5739L177.058 19.8722C176.992 19.6965 176.894 19.5258 176.765 19.3601C176.639 19.1911 176.466 19.0518 176.248 18.9425C176.029 18.8331 175.749 18.7784 175.407 18.7784C174.94 18.7784 174.551 18.8861 174.239 19.1016C173.931 19.3137 173.777 19.5838 173.777 19.9119C173.777 20.2036 173.883 20.4339 174.095 20.603C174.307 20.772 174.638 20.9129 175.089 21.0256L176.223 21.304C176.905 21.4697 177.414 21.7232 177.749 22.0646C178.084 22.4027 178.251 22.8385 178.251 23.3722C178.251 23.8097 178.125 24.2008 177.873 24.5455C177.625 24.8902 177.277 25.1619 176.829 25.3608C176.382 25.5597 175.861 25.6591 175.268 25.6591C174.489 25.6591 173.845 25.4901 173.334 25.152C172.824 24.8139 172.501 24.3201 172.365 23.6705L173.478 23.392C173.584 23.803 173.785 24.1113 174.08 24.3168C174.378 24.5223 174.768 24.625 175.248 24.625C175.795 24.625 176.229 24.509 176.551 24.277C176.876 24.0417 177.038 23.7599 177.038 23.4318C177.038 23.1667 176.945 22.9446 176.76 22.7656C176.574 22.5833 176.289 22.4474 175.904 22.358L174.632 22.0597C173.932 21.8939 173.419 21.6371 173.091 21.2891C172.766 20.9377 172.603 20.4986 172.603 19.9716C172.603 19.5407 172.724 19.1596 172.966 18.8281C173.212 18.4967 173.545 18.2365 173.966 18.0476C174.39 17.8587 174.87 17.7642 175.407 17.7642C176.163 17.7642 176.756 17.9299 177.187 18.2614C177.621 18.5928 177.93 19.0303 178.112 19.5739Z" fill="#071518"/>
</svg>
