<svg width="513" height="388" viewBox="0 0 513 388" fill="none" xmlns="http://www.w3.org/2000/svg">
<path d="M71.3676 177.421V178.421V361.584H103.888V178.473V177.473H104.888H115.359C119.057 177.473 120.995 173.194 118.642 170.415C118.641 170.414 118.64 170.413 118.639 170.412L92.678 140.409L71.3676 177.421ZM71.3676 177.421H70.3676M71.3676 177.421H70.3676M70.3676 177.421H59.8974C56.2311 177.421 54.2771 173.183 56.6624 170.419L70.3676 177.421ZM82.6299 140.409L82.6308 140.408C85.2901 137.344 90.0178 137.344 92.6771 140.408L82.6299 140.409ZM82.6299 140.409L56.663 170.419L82.6299 140.409Z" fill="#EDFF6C" stroke="black" stroke-width="2"/>
<path d="M456.523 169.765L430.555 139.754C427.497 136.229 422.055 136.229 418.996 139.754L393.028 169.765C390.074 173.186 392.51 178.421 397.019 178.421H407.489V362.584H442.062V178.473H452.532C457.042 178.473 459.426 173.186 456.523 169.765Z" fill="#161616"/>
<path d="M442.062 362.637V178.474H452.532C457.042 178.474 459.426 173.187 456.523 169.818L430.555 139.807C427.497 136.282 422.055 136.282 418.996 139.807L393.028 169.818C390.074 173.239 392.51 178.474 397.019 178.474H407.489V362.637" stroke="black" stroke-width="2.59165" stroke-miterlimit="10" stroke-linecap="round"/>
<path d="M201.35 97.1484L175.381 67.1371C172.323 63.6124 166.881 63.6124 163.823 67.1371L137.854 97.1484C134.9 100.569 137.336 105.804 141.845 105.804H152.316V362.585H186.836V105.856H197.307C201.868 105.856 204.252 100.569 201.35 97.1484Z" fill="#161616"/>
<path d="M201.35 97.1484L175.381 67.1371C172.323 63.6124 166.881 63.6124 163.823 67.1371L137.854 97.1484C134.9 100.569 137.336 105.804 141.845 105.804H152.316V362.585H186.836V105.856H197.307C201.868 105.856 204.252 100.569 201.35 97.1484Z" stroke="black" stroke-width="2.59165" stroke-miterlimit="10" stroke-linecap="round"/>
<path d="M363.986 361.637V50.291V49.291H364.986H377.737C382.365 49.291 384.824 43.8775 381.801 40.3713L363.986 361.637ZM363.986 361.637H323.95V50.291V49.291H322.95H310.199C305.615 49.291 303.117 43.8714 306.135 40.3713C306.135 40.3709 306.135 40.3705 306.136 40.3702L337.7 3.88188C341.036 0.0361345 346.953 0.0443584 350.232 3.87665L350.235 3.88084L381.801 40.3702L363.986 361.637Z" fill="#EDFF6C" stroke="black" stroke-width="2"/>
<path d="M114.911 135.307L122.754 143.15L130.597 135.307L122.754 127.463L114.911 135.307Z" fill="#161616"/>
<path d="M439.236 62.4727L450.084 73.3214L460.933 62.4727L450.084 51.6239L439.236 62.4727Z" fill="#161616"/>
<path d="M182.416 27.3343L190.259 35.1776L198.102 27.3343L190.259 19.4909L182.416 27.3343Z" fill="#161616"/>
<path d="M61.6094 64.5093L74.6572 77.5571L87.705 64.5093L74.6572 51.4615L61.6094 64.5093Z" fill="#161616"/>
<path d="M381.907 125.454L388.064 131.611L394.221 125.454L388.064 119.297L381.907 125.454Z" fill="#161616"/>
<path d="M2 362.637H511" stroke="black" stroke-width="2.59165" stroke-miterlimit="10" stroke-linecap="round"/>
<path d="M297.241 100.311C300.195 90.9813 302.424 82.9472 304.083 76.3126C307.97 60.7627 301.543 44.3316 287.911 35.8828C249.658 12.0915 234.004 45.4201 234.004 45.4201C234.004 45.4201 220.942 26.501 204.771 48.4264C188.599 70.3518 221.875 113.891 221.875 113.891L297.241 100.311Z" fill="black"/>
<path d="M297.241 100.311C300.195 90.9813 302.424 82.9472 304.083 76.3126C307.97 60.7627 301.543 44.3316 287.911 35.8828C249.658 12.0915 234.004 45.4201 234.004 45.4201C234.004 45.4201 220.942 26.501 204.771 48.4264C188.599 70.3518 221.875 113.891 221.875 113.891L297.241 100.311Z" stroke="black" stroke-width="2.59165" stroke-miterlimit="10" stroke-linecap="round"/>
<path d="M155.581 179.149L232.034 164.895L285.785 165.31L349.644 179.253L345.963 347.554H162.682L155.581 179.149Z" fill="#161616"/>
<path d="M186.332 235.507C199.388 222.451 199.388 201.283 186.332 188.227C173.277 175.171 152.109 175.171 139.053 188.227C125.997 201.283 125.997 222.451 139.053 235.507C152.109 248.563 173.277 248.563 186.332 235.507Z" fill="#161616"/>
<path d="M374.612 219.543C378.855 201.574 367.727 183.567 349.758 179.324C331.789 175.081 313.782 186.208 309.539 204.178C305.296 222.147 316.423 240.154 334.392 244.397C352.362 248.64 370.368 237.512 374.612 219.543Z" fill="#161616"/>
<path d="M129.25 211.856L121.786 289.917L188.443 292.457L195.907 215.848L129.25 211.856Z" fill="#161616"/>
<path d="M375.56 211.856L383.024 289.917L316.367 292.457L308.903 215.848L375.56 211.856Z" fill="#161616"/>
<path d="M121.786 289.916L119.661 325.784C117.224 366.318 156.669 396.381 195.078 383.319L261.009 360.979L196.166 321.897L187.095 324.696L188.391 292.456L121.786 289.916Z" fill="white"/>
<path d="M121.786 289.916L119.661 325.784C117.224 366.318 156.669 396.381 195.078 383.319L261.009 360.979L196.166 321.897L187.095 324.696L188.391 292.456L121.786 289.916Z" stroke="black" stroke-width="2.59165" stroke-miterlimit="10" stroke-linecap="round"/>
<path d="M383.024 289.916L385.875 323.4C388.726 356.521 358.559 382.852 326.112 375.596L230.583 354.189C224.363 352.789 218.973 348.798 215.811 343.252L214.204 340.401C211.25 335.166 206.222 331.382 200.365 330.035L185.437 326.562C185.437 326.562 188.391 307.072 232.035 310.39C275.626 313.707 318.388 315.625 318.388 315.625L316.367 292.559L383.024 289.916Z" fill="white"/>
<path d="M383.024 289.916L385.875 323.4C388.726 356.521 358.559 382.852 326.112 375.596L230.583 354.189C224.363 352.789 218.973 348.798 215.811 343.252L214.204 340.401C211.25 335.166 206.222 331.382 200.365 330.035L185.437 326.562C185.437 326.562 188.391 307.072 232.035 310.39C275.626 313.707 318.388 315.625 318.388 315.625L316.367 292.559L383.024 289.916Z" stroke="black" stroke-width="2.59165" stroke-miterlimit="10" stroke-linecap="round"/>
<path d="M264.275 192.055H253.597C241.727 192.055 232.086 182.414 232.086 170.545V111.248H285.837V170.493C285.785 182.415 276.144 192.055 264.275 192.055Z" fill="white"/>
<path d="M264.275 192.055H253.597C241.727 192.055 232.086 182.414 232.086 170.545V111.248H285.837V170.493C285.785 182.415 276.144 192.055 264.275 192.055Z" stroke="black" stroke-width="2.59165" stroke-miterlimit="10" stroke-linecap="round"/>
<path d="M314.604 315.366L335.441 316.403" stroke="black" stroke-width="2.59165" stroke-miterlimit="10" stroke-linecap="round"/>
<path d="M185.437 326.511L171.338 330.813" stroke="black" stroke-width="2.59165" stroke-miterlimit="10" stroke-linecap="round"/>
<path d="M121.786 289.916L123.756 268.976" stroke="black" stroke-width="2.59165" stroke-miterlimit="10" stroke-linecap="round"/>
<path d="M188.443 292.456L190.257 254.669" stroke="black" stroke-width="2.59165" stroke-miterlimit="10" stroke-linecap="round"/>
<path d="M316.367 292.456L312.998 257.832" stroke="black" stroke-width="2.59165" stroke-miterlimit="10" stroke-linecap="round"/>
<path d="M383.024 289.916L381.469 273.588" stroke="black" stroke-width="2.59165" stroke-miterlimit="10" stroke-linecap="round"/>
<path d="M295.841 76.4672C295.841 76.4672 306.83 168.471 267.437 167.952C228.925 167.434 222.912 121.044 222.912 121.044C222.912 121.044 214.878 76.9855 226.696 61.1765C238.566 45.3156 287.185 32.15 295.841 76.4672Z" fill="white"/>
<path d="M295.841 76.4672C295.841 76.4672 306.83 168.471 267.437 167.952C228.925 167.434 222.912 121.044 222.912 121.044C222.912 121.044 214.878 76.9855 226.696 61.1765C238.566 45.3156 287.185 32.15 295.841 76.4672Z" stroke="black" stroke-width="2.59165" stroke-miterlimit="10" stroke-linecap="round"/>
<path d="M221.098 77.5052C221.098 77.5052 241.313 67.5014 237.529 52.4699C237.529 52.4699 231.983 47.5457 228.147 50.0337C224.311 52.5217 217.677 63.8213 217.521 72.3219C217.418 80.8744 221.098 77.5052 221.098 77.5052Z" fill="black"/>
<path d="M221.098 77.5053C221.098 77.5053 241.313 67.5015 237.529 52.47" stroke="black" stroke-width="2.59165" stroke-miterlimit="10" stroke-linecap="round"/>
<path d="M237.529 52.4696C237.529 52.4696 259.351 80.2521 287.392 57.3419C287.392 57.3419 289.31 55.8388 290.087 49.3078C290.865 42.7768 262.979 34.4317 250.072 39.0967C237.114 43.7617 237.529 52.4696 237.529 52.4696Z" fill="black"/>
<path d="M237.529 52.47C237.529 52.47 259.35 80.2525 287.392 57.3423" stroke="black" stroke-width="2.59165" stroke-miterlimit="10" stroke-linecap="round"/>
<path d="M225.296 116.016C225.296 116.016 231.205 132.136 239.187 136.23C240.069 136.645 241.105 136.438 241.727 135.712C248.258 128.507 257.847 124.879 267.488 126.175C267.644 126.175 267.799 126.227 267.955 126.227C273.242 127.004 278.218 129.233 282.364 132.602L283.66 133.691C284.749 134.572 286.304 134.209 286.977 133.017C289.776 127.574 296.359 114.253 297.085 107.567C297.085 107.567 308.799 175.157 266.659 178.63C217.366 182.725 217.78 114.72 217.78 114.72L225.296 116.016Z" fill="black"/>
<path d="M225.296 116.016C225.296 116.016 231.205 132.136 239.187 136.23C240.069 136.645 241.105 136.438 241.727 135.712C248.258 128.507 257.847 124.879 267.488 126.175C267.644 126.175 267.799 126.227 267.955 126.227C273.242 127.004 278.218 129.233 282.364 132.602L283.66 133.691C284.749 134.572 286.304 134.209 286.977 133.017C289.776 127.574 296.359 114.253 297.085 107.567C297.085 107.567 308.799 175.157 266.659 178.63C217.366 182.725 217.78 114.72 217.78 114.72L225.296 116.016Z" stroke="black" stroke-width="2.59165" stroke-miterlimit="10" stroke-linecap="round"/>
<path d="M223.482 95.5949C223.482 95.5949 218.092 88.8048 213.271 89.9451C208.451 91.0854 207.31 113.477 214.982 117.468C222.653 121.46 225.141 117.676 225.141 117.676L223.482 95.5949Z" fill="white"/>
<path d="M223.482 95.5949C223.482 95.5949 218.092 88.8048 213.271 89.9451C208.451 91.0854 207.31 113.477 214.982 117.468C222.653 121.46 227.784 113.063 227.784 113.063" stroke="black" stroke-width="2.59165" stroke-miterlimit="10" stroke-linecap="round"/>
<path d="M294.649 92.5877C294.649 92.5877 299.262 85.2793 301.854 87.7672C305.534 91.2401 306 112.854 301.595 114.565C298.64 115.705 294.131 113.632 294.131 113.632L294.649 92.5877Z" fill="white"/>
<path d="M294.649 92.5877C294.649 92.5877 299.262 85.2793 301.854 87.7672C305.534 91.2401 306 112.854 301.595 114.565C298.64 115.705 294.701 113.736 294.701 113.736" stroke="black" stroke-width="2.59165" stroke-miterlimit="10" stroke-linecap="round"/>
<path d="M253.131 140.171C253.131 140.171 261.994 149.034 275.056 139.912" stroke="white" stroke-width="2.59165" stroke-miterlimit="10" stroke-linecap="round"/>
<path d="M214.826 103.266C214.826 103.266 216.899 107.257 220.631 107.568" stroke="black" stroke-width="2.59165" stroke-miterlimit="10" stroke-linecap="round"/>
<path d="M300.506 100.725C300.506 100.725 299.055 103.265 297.24 103.006" stroke="black" stroke-width="2.59165" stroke-miterlimit="10" stroke-linecap="round"/>
<path d="M278.114 97.772C278.114 100.053 276.87 101.867 275.315 101.867C273.76 101.867 272.516 100.053 272.516 97.772C272.516 95.4913 273.76 93.6772 275.315 93.6772C276.87 93.6772 278.114 95.4913 278.114 97.772Z" fill="black"/>
<path d="M260.906 103.678C262.668 107.099 264.431 110.572 265.208 114.408C265.519 115.911 265.778 117.569 265.519 119.073C265.312 120.161 264.845 121.457 263.757 121.872C263.083 122.131 262.668 122.753 262.876 123.478C263.031 124.1 263.809 124.619 264.482 124.359C268.37 122.856 268.525 118.399 267.955 114.874C267.23 110.468 265.156 106.373 263.187 102.382C262.409 100.879 260.18 102.175 260.906 103.678Z" fill="black"/>
<path d="M241.053 100.467C241.053 100.467 247.636 95.5949 253.545 100.467" stroke="black" stroke-width="2.59165" stroke-miterlimit="10" stroke-linecap="round"/>
<path d="M237.166 91.2403C237.166 91.2403 247.844 83.3617 257.433 91.2403" stroke="black" stroke-width="2.59165" stroke-miterlimit="10" stroke-linecap="round"/>
<path d="M264.119 91.2403C264.119 91.2403 274.797 83.3617 284.386 91.2403" stroke="black" stroke-width="2.59165" stroke-miterlimit="10" stroke-linecap="round"/>
</svg>
